M48
;Layer_Color=9474304
;FILE_FORMAT=2:4
INCH,TZ
;TYPE=PLATED
T1F00S00C0.0079
T2F00S00C0.0276
T3F00S00C0.0354
T4F00S00C0.0523
;TYPE=NON_PLATED
T5F00S00C0.1083
%
T01
X2126Y3701
X3976Y1929
X5669Y1969
X7717
X8858Y1181
X10866Y4606
X12835Y5512
Y6378
X11535Y7126
X11417Y8268
X12402
X13937Y8031
X13907Y9134
X13189Y10197
X11703Y10207
X10118Y9724
X15846Y7382
X15079Y5551
X14173
X8002Y7441
X6348Y7067
X4055Y7441
X2165Y6890
X4931Y5138
X7283Y9370
X7913Y9724
Y11220
Y11968
X3661Y11811
X3100Y12815
X2470Y11378
T02
X9518Y12264
X11427
X2362Y9843
Y9055
T03
X9909Y1181
X10909
X11909
X12909
T04
X9055Y13307
X11890
T05
X1575Y1575
X15157Y1575
Y12598
X1575Y12598
M30
