G04*
G04 #@! TF.GenerationSoftware,Altium Limited,Altium Designer,21.9.2 (33)*
G04*
G04 Layer_Color=65535*
%FSLAX25Y25*%
%MOIN*%
G70*
G04*
G04 #@! TF.SameCoordinates,0BDF80D0-06DB-4186-A1CF-57D38C80D236*
G04*
G04*
G04 #@! TF.FilePolarity,Positive*
G04*
G01*
G75*
%ADD10C,0.00787*%
%ADD11C,0.01575*%
%ADD12C,0.00600*%
%ADD13C,0.00996*%
%ADD14C,0.00598*%
D10*
X29331Y53347D02*
X29246Y54344D01*
X28993Y55314D01*
X28581Y56226D01*
X28020Y57056D01*
X27327Y57780D01*
X26522Y58375D01*
X25627Y58826D01*
X24669Y59119D01*
X23676Y59247D01*
X22675Y59204D01*
X21696Y58993D01*
X20766Y58620D01*
X19914Y58095D01*
X19162Y57433D01*
X18532Y56653D01*
X18044Y55779D01*
X17710Y54835D01*
X17541Y53847D01*
Y52846D01*
X17710Y51858D01*
X18044Y50914D01*
X18532Y50039D01*
X19162Y49260D01*
X19914Y48598D01*
X20766Y48073D01*
X21696Y47700D01*
X22675Y47489D01*
X23676Y47446D01*
X24669Y47574D01*
X25627Y47867D01*
X26522Y48318D01*
X27327Y48913D01*
X28020Y49637D01*
X28581Y50466D01*
X28993Y51379D01*
X29246Y52348D01*
X29331Y53347D01*
X99213Y76378D02*
Y81102D01*
X18307Y65945D02*
X28543D01*
X18307Y40748D02*
X28543D01*
X11614Y41929D02*
Y64764D01*
X35236D02*
X35236Y41929D01*
X31890Y98032D02*
X35827D01*
X135433Y106693D02*
Y110630D01*
X120472Y106693D02*
Y110630D01*
X118898Y26772D02*
Y30709D01*
X46850Y83071D02*
X50787D01*
X56299D02*
X60236D01*
X118898Y53150D02*
Y57087D01*
X118898Y35039D02*
Y38976D01*
X111024Y42126D02*
X119291D01*
X111024Y42126D02*
Y50000D01*
X119291D01*
X65354Y83071D02*
X69291D01*
X28346Y94291D02*
Y104528D01*
Y81299D02*
Y91535D01*
X10630Y81299D02*
X28346D01*
X10630D02*
Y104528D01*
X28346D01*
X135669Y7874D02*
Y18898D01*
X85433Y7874D02*
X135669D01*
X87795Y18898D02*
X135669D01*
X85433Y7874D02*
Y18898D01*
X61024Y105394D02*
X67027D01*
X133661Y88583D02*
Y93307D01*
X145079D01*
Y88583D02*
Y93307D01*
X133661Y88583D02*
X145079D01*
X133465Y83661D02*
Y87205D01*
X92716Y34055D02*
Y58858D01*
X67913Y34055D02*
X92716D01*
X67913D02*
Y58858D01*
X92716D01*
X117717Y122047D02*
X120079D01*
Y128740D01*
X89370Y122047D02*
Y128740D01*
Y137402D02*
Y140551D01*
X120079Y137402D02*
Y140551D01*
X89370D02*
X120079D01*
X89370Y122047D02*
X91732D01*
X118898Y69685D02*
Y73622D01*
X73622Y83071D02*
X77559D01*
X81890Y83071D02*
X85827D01*
X31890Y118504D02*
X35827D01*
X122047Y92126D02*
X125984D01*
X112205Y92126D02*
X116142D01*
X139764Y64961D02*
X143701D01*
X148819Y64961D02*
X152756D01*
X71956Y115881D02*
X75893D01*
X92520Y92126D02*
X96457D01*
X101575D02*
X105512D01*
X35827Y23917D02*
Y27854D01*
X66535Y18110D02*
Y22047D01*
X118898Y61417D02*
Y65354D01*
D11*
X96850Y64468D02*
X96306Y65217D01*
X95426Y64931D01*
Y64006D01*
X96306Y63720D01*
X96850Y64468D01*
D12*
X112336Y83202D02*
X111680Y83858D01*
X110368D01*
X109712Y83202D01*
Y80578D01*
X110368Y79922D01*
X111680D01*
X112336Y80578D01*
X113648D02*
X114304Y79922D01*
X115616D01*
X116272Y80578D01*
Y83202D01*
X115616Y83858D01*
X114304D01*
X113648Y83202D01*
Y82546D01*
X114304Y81890D01*
X116272D01*
X96589Y73621D02*
X99213Y69686D01*
Y73621D02*
X96589Y69686D01*
X100524D02*
X101836D01*
X101181D01*
Y73621D01*
X100524Y72966D01*
X38846Y95408D02*
X38190Y94752D01*
Y93440D01*
X38846Y92784D01*
X39502D01*
X40157Y93440D01*
Y94752D01*
X40813Y95408D01*
X41469D01*
X42125Y94752D01*
Y93440D01*
X41469Y92784D01*
X38190Y96720D02*
X42125D01*
Y98687D01*
X41469Y99343D01*
X40813D01*
X40157Y98687D01*
Y96720D01*
Y98687D01*
X39502Y99343D01*
X38846D01*
X38190Y98687D01*
Y96720D01*
Y103279D02*
X38846Y101967D01*
X40157Y100655D01*
X41469D01*
X42125Y101311D01*
Y102623D01*
X41469Y103279D01*
X40813D01*
X40157Y102623D01*
Y100655D01*
X129594Y72965D02*
X128938Y73621D01*
X127626D01*
X126970Y72965D01*
Y70342D01*
X127626Y69686D01*
X128938D01*
X129594Y70342D01*
X130906Y69686D02*
X132218D01*
X131562D01*
Y73621D01*
X130906Y72965D01*
X136153Y69686D02*
Y73621D01*
X134186Y71653D01*
X136809D01*
X73885Y94555D02*
X73229Y93899D01*
Y92587D01*
X73885Y91931D01*
X76509D01*
X77165Y92587D01*
Y93899D01*
X76509Y94555D01*
X77165Y95867D02*
Y97178D01*
Y96522D01*
X73229D01*
X73885Y95867D01*
Y99146D02*
X73229Y99802D01*
Y101114D01*
X73885Y101770D01*
X74541D01*
X75197Y101114D01*
Y100458D01*
Y101114D01*
X75853Y101770D01*
X76509D01*
X77165Y101114D01*
Y99802D01*
X76509Y99146D01*
X82153Y94555D02*
X81497Y93899D01*
Y92587D01*
X82153Y91931D01*
X84777D01*
X85432Y92587D01*
Y93899D01*
X84777Y94555D01*
X85432Y95867D02*
Y97178D01*
Y96522D01*
X81497D01*
X82153Y95867D01*
X85432Y101770D02*
Y99146D01*
X82809Y101770D01*
X82153D01*
X81497Y101114D01*
Y99802D01*
X82153Y99146D01*
X25853Y110959D02*
X25197Y110303D01*
Y108991D01*
X25853Y108335D01*
X28477D01*
X29133Y108991D01*
Y110303D01*
X28477Y110959D01*
X29133Y112270D02*
Y113582D01*
Y112926D01*
X25197D01*
X25853Y112270D01*
X29133Y115550D02*
Y116862D01*
Y116206D01*
X25197D01*
X25853Y115550D01*
X102855Y116863D02*
X102199Y117519D01*
X100887D01*
X100231Y116863D01*
Y114239D01*
X100887Y113583D01*
X102199D01*
X102855Y114239D01*
X104167Y113583D02*
Y117519D01*
X106791Y113583D01*
Y117519D01*
X108103Y113583D02*
X109415D01*
X108759D01*
Y117519D01*
X108103Y116863D01*
X65781Y14796D02*
X65125Y15452D01*
X63813D01*
X63157Y14796D01*
Y12172D01*
X63813Y11516D01*
X65125D01*
X65781Y12172D01*
X69717Y11516D02*
X67093D01*
X69717Y14140D01*
Y14796D01*
X69061Y15452D01*
X67749D01*
X67093Y14796D01*
X158465Y72508D02*
Y75132D01*
Y73820D01*
X162401D01*
Y76444D02*
X158465D01*
Y78412D01*
X159121Y79068D01*
X160433D01*
X161089Y78412D01*
Y76444D01*
X158465Y83004D02*
Y80380D01*
X160433D01*
X159777Y81692D01*
Y82348D01*
X160433Y83004D01*
X161745D01*
X162401Y82348D01*
Y81036D01*
X161745Y80380D01*
X158465Y85303D02*
Y87927D01*
Y86615D01*
X162401D01*
Y89239D02*
X158465D01*
Y91207D01*
X159121Y91863D01*
X160433D01*
X161089Y91207D01*
Y89239D01*
X162401Y95143D02*
X158465D01*
X160433Y93175D01*
Y95799D01*
X158465Y99083D02*
Y101707D01*
Y100395D01*
X162401D01*
Y103019D02*
X158465D01*
Y104987D01*
X159121Y105643D01*
X160433D01*
X161089Y104987D01*
Y103019D01*
X159121Y106955D02*
X158465Y107610D01*
Y108922D01*
X159121Y109578D01*
X159777D01*
X160433Y108922D01*
Y108266D01*
Y108922D01*
X161089Y109578D01*
X161745D01*
X162401Y108922D01*
Y107610D01*
X161745Y106955D01*
X48426Y40815D02*
Y43439D01*
Y42127D01*
X52362D01*
Y44751D02*
X48426D01*
Y46719D01*
X49082Y47375D01*
X50394D01*
X51050Y46719D01*
Y44751D01*
X52362Y51311D02*
Y48687D01*
X49738Y51311D01*
X49082D01*
X48426Y50655D01*
Y49343D01*
X49082Y48687D01*
X48820Y56432D02*
Y59056D01*
Y57744D01*
X52755D01*
Y60368D02*
X48820D01*
Y62336D01*
X49475Y62991D01*
X50787D01*
X51443Y62336D01*
Y60368D01*
X52755Y64303D02*
Y65615D01*
Y64959D01*
X48820D01*
X49475Y64303D01*
X30316Y82021D02*
Y80709D01*
Y81365D01*
X33595D01*
X34251Y80709D01*
Y80053D01*
X33595Y79397D01*
X34251Y85957D02*
Y83333D01*
X31628Y85957D01*
X30972D01*
X30316Y85301D01*
Y83989D01*
X30972Y83333D01*
X80709Y9054D02*
X79397D01*
X80053D01*
Y5775D01*
X79397Y5119D01*
X78741D01*
X78085Y5775D01*
X82021Y5119D02*
X83333D01*
X82677D01*
Y9054D01*
X82021Y8399D01*
X132219Y117454D02*
X131563Y118110D01*
X130251D01*
X129595Y117454D01*
Y116798D01*
X130251Y116142D01*
X131563D01*
X132219Y115486D01*
Y114830D01*
X131563Y114174D01*
X130251D01*
X129595Y114830D01*
X133531Y118110D02*
Y114174D01*
X135498D01*
X136154Y114830D01*
Y115486D01*
X135498Y116142D01*
X133531D01*
X135498D01*
X136154Y116798D01*
Y117454D01*
X135498Y118110D01*
X133531D01*
X140090D02*
X137466D01*
Y116142D01*
X138778Y116798D01*
X139434D01*
X140090Y116142D01*
Y114830D01*
X139434Y114174D01*
X138122D01*
X137466Y114830D01*
X56956Y94095D02*
X56300Y93439D01*
Y92127D01*
X56956Y91471D01*
X57612D01*
X58268Y92127D01*
Y93439D01*
X58924Y94095D01*
X59580D01*
X60236Y93439D01*
Y92127D01*
X59580Y91471D01*
X56300Y95407D02*
X60236D01*
Y97375D01*
X59580Y98031D01*
X58924D01*
X58268Y97375D01*
Y95407D01*
Y97375D01*
X57612Y98031D01*
X56956D01*
X56300Y97375D01*
Y95407D01*
X60236Y99343D02*
Y100655D01*
Y99999D01*
X56300D01*
X56956Y99343D01*
X6168Y52363D02*
X5512Y51707D01*
Y50395D01*
X6168Y49739D01*
X6824D01*
X7480Y50395D01*
Y51707D01*
X8136Y52363D01*
X8792D01*
X9448Y51707D01*
Y50395D01*
X8792Y49739D01*
X5512Y53675D02*
X9448D01*
X8136Y54987D01*
X9448Y56299D01*
X5512D01*
X9448Y57610D02*
Y58922D01*
Y58267D01*
X5512D01*
X6168Y57610D01*
X117455Y117454D02*
X116799Y118110D01*
X115487D01*
X114831Y117454D01*
Y116798D01*
X115487Y116142D01*
X116799D01*
X117455Y115486D01*
Y114830D01*
X116799Y114174D01*
X115487D01*
X114831Y114830D01*
X118767Y118110D02*
Y114174D01*
X120735D01*
X121391Y114830D01*
Y115486D01*
X120735Y116142D01*
X118767D01*
X120735D01*
X121391Y116798D01*
Y117454D01*
X120735Y118110D01*
X118767D01*
X124670Y114174D02*
Y118110D01*
X122703Y116142D01*
X125326D01*
X47507Y94227D02*
X46851Y93571D01*
Y92259D01*
X47507Y91603D01*
X48163D01*
X48819Y92259D01*
Y93571D01*
X49475Y94227D01*
X50131D01*
X50787Y93571D01*
Y92259D01*
X50131Y91603D01*
X46851Y95539D02*
X50787D01*
Y97506D01*
X50131Y98162D01*
X49475D01*
X48819Y97506D01*
Y95539D01*
Y97506D01*
X48163Y98162D01*
X47507D01*
X46851Y97506D01*
Y95539D01*
X50787Y102098D02*
Y99474D01*
X48163Y102098D01*
X47507D01*
X46851Y101442D01*
Y100130D01*
X47507Y99474D01*
X130053Y30052D02*
X129397Y30708D01*
X128085D01*
X127429Y30052D01*
Y29396D01*
X128085Y28740D01*
X129397D01*
X130053Y28084D01*
Y27428D01*
X129397Y26772D01*
X128085D01*
X127429Y27428D01*
X131365Y30708D02*
Y26772D01*
X133333D01*
X133989Y27428D01*
Y28084D01*
X133333Y28740D01*
X131365D01*
X133333D01*
X133989Y29396D01*
Y30052D01*
X133333Y30708D01*
X131365D01*
X135301Y30052D02*
X135957Y30708D01*
X137269D01*
X137925Y30052D01*
Y29396D01*
X137269Y28740D01*
X136613D01*
X137269D01*
X137925Y28084D01*
Y27428D01*
X137269Y26772D01*
X135957D01*
X135301Y27428D01*
X127035Y53150D02*
Y57086D01*
X129003D01*
X129659Y56430D01*
Y55118D01*
X129003Y54462D01*
X127035D01*
X128347D02*
X129659Y53150D01*
X133595D02*
X130971D01*
X133595Y55774D01*
Y56430D01*
X132939Y57086D01*
X131627D01*
X130971Y56430D01*
X127297Y35040D02*
Y38976D01*
X129265D01*
X129921Y38320D01*
Y37008D01*
X129265Y36352D01*
X127297D01*
X128609D02*
X129921Y35040D01*
X131233D02*
X132545D01*
X131889D01*
Y38976D01*
X131233Y38320D01*
X127299Y47637D02*
Y43701D01*
X129922D01*
X133858Y47637D02*
X131234D01*
Y43701D01*
X133858D01*
X131234Y45669D02*
X132546D01*
X135170Y47637D02*
Y43701D01*
X137138D01*
X137794Y44357D01*
Y46981D01*
X137138Y47637D01*
X135170D01*
X139106Y43701D02*
X140418D01*
X139762D01*
Y47637D01*
X139106Y46981D01*
X64961Y91864D02*
X68897D01*
Y94488D01*
Y95800D02*
Y97112D01*
Y96456D01*
X64961D01*
X65617Y95800D01*
X135238Y81102D02*
X136550D01*
X135894D01*
Y77166D01*
X135238D01*
X136550D01*
X141141Y80446D02*
X140486Y81102D01*
X139174D01*
X138518Y80446D01*
Y77822D01*
X139174Y77166D01*
X140486D01*
X141141Y77822D01*
X145077Y77166D02*
X142453D01*
X145077Y79790D01*
Y80446D01*
X144421Y81102D01*
X143109D01*
X142453Y80446D01*
X68702Y107086D02*
X70014D01*
X69358D01*
Y103150D01*
X68702D01*
X70014D01*
X74606Y106430D02*
X73950Y107086D01*
X72638D01*
X71982Y106430D01*
Y103806D01*
X72638Y103150D01*
X73950D01*
X74606Y103806D01*
X75918Y106430D02*
X76574Y107086D01*
X77886D01*
X78542Y106430D01*
Y105774D01*
X77886Y105118D01*
X77230D01*
X77886D01*
X78542Y104462D01*
Y103806D01*
X77886Y103150D01*
X76574D01*
X75918Y103806D01*
X101969Y27232D02*
Y28544D01*
Y27888D01*
X105905D01*
Y27232D01*
Y28544D01*
X102625Y33136D02*
X101969Y32480D01*
Y31168D01*
X102625Y30512D01*
X105249D01*
X105905Y31168D01*
Y32480D01*
X105249Y33136D01*
X105905Y34448D02*
Y35760D01*
Y35104D01*
X101969D01*
X102625Y34448D01*
X121720Y83202D02*
X121064Y83858D01*
X119752D01*
X119096Y83202D01*
Y80578D01*
X119752Y79922D01*
X121064D01*
X121720Y80578D01*
X123032Y79922D02*
X124344D01*
X123688D01*
Y83858D01*
X123032Y83202D01*
X126312D02*
X126968Y83858D01*
X128279D01*
X128935Y83202D01*
Y80578D01*
X128279Y79922D01*
X126968D01*
X126312Y80578D01*
Y83202D01*
X141076Y56430D02*
X140420Y57086D01*
X139109D01*
X138452Y56430D01*
Y53806D01*
X139109Y53150D01*
X140420D01*
X141076Y53806D01*
X142388Y56430D02*
X143044Y57086D01*
X144356D01*
X145012Y56430D01*
Y55774D01*
X144356Y55118D01*
X145012Y54462D01*
Y53806D01*
X144356Y53150D01*
X143044D01*
X142388Y53806D01*
Y54462D01*
X143044Y55118D01*
X142388Y55774D01*
Y56430D01*
X143044Y55118D02*
X144356D01*
X150131Y56430D02*
X149476Y57086D01*
X148164D01*
X147508Y56430D01*
Y53806D01*
X148164Y53150D01*
X149476D01*
X150131Y53806D01*
X151443Y57086D02*
X154067D01*
Y56430D01*
X151443Y53806D01*
Y53150D01*
X93832Y103674D02*
X93176Y104330D01*
X91864D01*
X91208Y103674D01*
Y101050D01*
X91864Y100394D01*
X93176D01*
X93832Y101050D01*
X97768Y104330D02*
X95144D01*
Y102362D01*
X96456Y103018D01*
X97112D01*
X97768Y102362D01*
Y101050D01*
X97112Y100394D01*
X95800D01*
X95144Y101050D01*
X102887Y103674D02*
X102231Y104330D01*
X100919D01*
X100264Y103674D01*
Y101050D01*
X100919Y100394D01*
X102231D01*
X102887Y101050D01*
X106167Y100394D02*
Y104330D01*
X104199Y102362D01*
X106823D01*
X34777Y20308D02*
X34121Y20964D01*
X32809D01*
X32153Y20308D01*
Y17684D01*
X32809Y17028D01*
X34121D01*
X34777Y17684D01*
X36089Y20308D02*
X36745Y20964D01*
X38057D01*
X38713Y20308D01*
Y19652D01*
X38057Y18996D01*
X37401D01*
X38057D01*
X38713Y18340D01*
Y17684D01*
X38057Y17028D01*
X36745D01*
X36089Y17684D01*
X79003Y115092D02*
X78347Y114436D01*
Y113124D01*
X79003Y112468D01*
X81627D01*
X82283Y113124D01*
Y114436D01*
X81627Y115092D01*
X78347Y119028D02*
X79003Y117716D01*
X80315Y116404D01*
X81627D01*
X82283Y117060D01*
Y118372D01*
X81627Y119028D01*
X80971D01*
X80315Y118372D01*
Y116404D01*
X129528Y64698D02*
X128872Y65354D01*
X127560D01*
X126904Y64698D01*
Y62074D01*
X127560Y61418D01*
X128872D01*
X129528Y62074D01*
X130840Y61418D02*
X132151D01*
X131495D01*
Y65354D01*
X130840Y64698D01*
D13*
X36823Y136033D02*
Y130130D01*
X39775D01*
X40759Y131114D01*
Y135050D01*
X39775Y136033D01*
X36823D01*
X45678Y130130D02*
X43710D01*
X42726Y131114D01*
Y133082D01*
X43710Y134066D01*
X45678D01*
X46662Y133082D01*
Y132098D01*
X42726D01*
X52566Y134066D02*
X49614D01*
X48630Y133082D01*
Y131114D01*
X49614Y130130D01*
X52566D01*
X55518D02*
X57485D01*
X58469Y131114D01*
Y133082D01*
X57485Y134066D01*
X55518D01*
X54534Y133082D01*
Y131114D01*
X55518Y130130D01*
X60437Y136033D02*
Y130130D01*
X64373D01*
X70277Y136033D02*
X66341D01*
Y130130D01*
X70277D01*
X66341Y133082D02*
X68309D01*
X72244Y136033D02*
Y130130D01*
X75196D01*
X76180Y131114D01*
Y135050D01*
X75196Y136033D01*
X72244D01*
D14*
X32094Y6962D02*
Y4339D01*
Y5650D01*
X32750Y6306D01*
X33406Y6962D01*
X34062D01*
X37998Y4339D02*
X36686D01*
X36030Y4995D01*
Y6306D01*
X36686Y6962D01*
X37998D01*
X38654Y6306D01*
Y5650D01*
X36030D01*
X39966Y6962D02*
X41278Y4339D01*
X42590Y6962D01*
X47837Y4339D02*
X49149D01*
X48493D01*
Y8274D01*
X47837Y7618D01*
X51117Y4339D02*
Y4995D01*
X51773D01*
Y4339D01*
X51117D01*
X54397D02*
X55709D01*
X55053D01*
Y8274D01*
X54397Y7618D01*
M02*
