G04*
G04 #@! TF.GenerationSoftware,Altium Limited,Altium Designer,21.9.2 (33)*
G04*
G04 Layer_Physical_Order=2*
G04 Layer_Color=32768*
%FSLAX25Y25*%
%MOIN*%
G70*
G04*
G04 #@! TF.SameCoordinates,0BDF80D0-06DB-4186-A1CF-57D38C80D236*
G04*
G04*
G04 #@! TF.FilePolarity,Negative*
G04*
G01*
G75*
%ADD56C,0.04000*%
%ADD57C,0.14827*%
%ADD58C,0.06756*%
%ADD59C,0.07543*%
%ADD60C,0.04787*%
D56*
X151575Y0D02*
X152564Y31D01*
X153549Y124D01*
X154526Y279D01*
X155491Y495D01*
X156441Y771D01*
X157372Y1106D01*
X158280Y1499D01*
X159161Y1948D01*
X160013Y2451D01*
X160831Y3008D01*
X161613Y3614D01*
X162355Y4268D01*
X163055Y4968D01*
X163709Y5710D01*
X164315Y6492D01*
X164871Y7310D01*
X165375Y8161D01*
X165824Y9043D01*
X166217Y9951D01*
X166552Y10882D01*
X166828Y11832D01*
X167044Y12797D01*
X167199Y13774D01*
X167292Y14759D01*
X167323Y15748D01*
Y125984D02*
X167292Y126973D01*
X167199Y127958D01*
X167044Y128935D01*
X166828Y129901D01*
X166552Y130851D01*
X166217Y131781D01*
X165824Y132689D01*
X165375Y133571D01*
X164871Y134423D01*
X164315Y135241D01*
X163709Y136022D01*
X163055Y136765D01*
X162355Y137464D01*
X161613Y138118D01*
X160831Y138725D01*
X160013Y139281D01*
X159161Y139784D01*
X158280Y140234D01*
X157372Y140626D01*
X156441Y140962D01*
X155491Y141237D01*
X154526Y141453D01*
X153549Y141608D01*
X152564Y141701D01*
X151575Y141732D01*
X15748D02*
X14759Y141701D01*
X13774Y141608D01*
X12797Y141453D01*
X11832Y141237D01*
X10882Y140962D01*
X9951Y140626D01*
X9043Y140234D01*
X8161Y139784D01*
X7310Y139281D01*
X6492Y138725D01*
X5710Y138118D01*
X4968Y137464D01*
X4268Y136765D01*
X3614Y136022D01*
X3008Y135241D01*
X2451Y134423D01*
X1948Y133571D01*
X1499Y132689D01*
X1106Y131781D01*
X771Y130851D01*
X495Y129901D01*
X279Y128935D01*
X124Y127958D01*
X31Y126973D01*
X0Y125984D01*
Y15748D02*
X31Y14759D01*
X124Y13774D01*
X279Y12797D01*
X495Y11832D01*
X771Y10882D01*
X1106Y9951D01*
X1499Y9043D01*
X1948Y8161D01*
X2451Y7310D01*
X3008Y6492D01*
X3614Y5710D01*
X4268Y4968D01*
X4968Y4268D01*
X5710Y3614D01*
X6492Y3008D01*
X7310Y2451D01*
X8161Y1948D01*
X9043Y1499D01*
X9951Y1106D01*
X10882Y771D01*
X11832Y495D01*
X12797Y279D01*
X13774Y124D01*
X14759Y31D01*
X15748Y0D01*
X151575D01*
X15748Y141732D02*
X151575D01*
X167323Y15748D02*
Y125984D01*
X0Y15748D02*
Y125984D01*
D57*
X15748Y125984D02*
D03*
Y15748D02*
D03*
X151575Y15748D02*
D03*
Y125984D02*
D03*
D58*
X21654Y96850D02*
D03*
Y88976D02*
D03*
D59*
X110551Y13386D02*
D03*
X120551D02*
D03*
X100551D02*
D03*
X90551D02*
D03*
D60*
X108661Y71653D02*
D03*
X58268Y69291D02*
D03*
X49311Y51378D02*
D03*
X33858Y129134D02*
D03*
X80709Y119685D02*
D03*
X41339Y72835D02*
D03*
X81890D02*
D03*
X67323Y93701D02*
D03*
X77165Y20079D02*
D03*
X131890Y102362D02*
D03*
X117323D02*
D03*
X81496Y13386D02*
D03*
X139075Y91339D02*
D03*
M02*
