G04*
G04 #@! TF.GenerationSoftware,Altium Limited,Altium Designer,21.9.2 (33)*
G04*
G04 Layer_Color=32768*
%FSLAX25Y25*%
%MOIN*%
G70*
G04*
G04 #@! TF.SameCoordinates,966C8154-A70F-4D01-A40B-C349B40C5DFB*
G04*
G04*
G04 #@! TF.FilePolarity,Positive*
G04*
G01*
G75*
%ADD67C,0.00394*%
%ADD69C,0.00197*%
D67*
X37303Y31299D02*
Y74606D01*
X9744Y31299D02*
X37303D01*
X9744Y74606D02*
X37303D01*
X9744Y31299D02*
Y74606D01*
X126043Y115945D02*
Y145472D01*
X83406D02*
X126043D01*
X83406Y115945D02*
Y145472D01*
Y115945D02*
X126043D01*
D69*
X76090Y109286D02*
Y122475D01*
X68610Y109286D02*
Y122475D01*
Y109286D02*
X76090D01*
X68610Y122475D02*
X76090D01*
X34744Y112008D02*
Y125197D01*
X27264Y112008D02*
Y125197D01*
Y112008D02*
X34744D01*
X27264Y125197D02*
X34744D01*
X68012Y104724D02*
Y126378D01*
X38681D02*
X68012D01*
X38681Y104724D02*
Y126378D01*
Y104724D02*
X68012D01*
X29232Y22146D02*
X42421D01*
X29232Y29626D02*
X42421D01*
X29232Y22146D02*
Y29626D01*
X42421Y22146D02*
Y29626D01*
X11614Y107087D02*
X31299D01*
X11614Y81890D02*
Y107087D01*
Y81890D02*
X31299D01*
Y107087D01*
X50197Y89665D02*
X57677D01*
X50197Y76476D02*
Y89665D01*
Y76476D02*
X57677D01*
Y89665D01*
X59646D02*
X67126D01*
X59646Y76476D02*
Y89665D01*
Y76476D02*
X67126D01*
Y89665D01*
X91142Y87106D02*
Y100295D01*
X98622Y87106D02*
Y100295D01*
X91142D02*
X98622D01*
X91142Y87106D02*
X98622D01*
X82087D02*
Y100295D01*
X89567Y87106D02*
Y100295D01*
X82087D02*
X89567D01*
X82087Y87106D02*
X89567D01*
X137992Y71555D02*
X145472D01*
X137992Y58366D02*
X145472D01*
X137992D02*
Y71555D01*
X145472Y58366D02*
Y71555D01*
X154528Y58366D02*
Y71555D01*
X147047Y58366D02*
Y71555D01*
Y58366D02*
X154528D01*
X147047Y71555D02*
X154528D01*
X127756Y85532D02*
Y98721D01*
X120276Y85532D02*
Y98721D01*
Y85532D02*
X127756D01*
X120276Y98721D02*
X127756D01*
X142028Y104921D02*
Y112402D01*
X128839D02*
X142028D01*
X128839Y104921D02*
Y112402D01*
Y104921D02*
X142028D01*
X127067D02*
Y112402D01*
X113878D02*
X127067D01*
X113878Y104921D02*
Y112402D01*
Y104921D02*
X127067D01*
X112303Y67520D02*
X125492D01*
X112303Y60039D02*
X125492D01*
Y67520D01*
X112303Y60039D02*
Y67520D01*
X72835Y16240D02*
Y23720D01*
X59646Y16240D02*
Y23720D01*
X72835D01*
X59646Y16240D02*
X72835D01*
X69095Y76476D02*
X76575D01*
Y89665D01*
X69095D02*
X76575D01*
X69095Y76476D02*
Y89665D01*
X100886Y25886D02*
Y67028D01*
X59744Y25886D02*
X100886D01*
X59744D02*
Y67028D01*
X100886D01*
X111614Y41535D02*
X126181D01*
X111614D02*
Y50591D01*
X126181D01*
Y41535D02*
Y50591D01*
X125492Y51378D02*
Y58858D01*
X112303D02*
X125492D01*
X112303Y51378D02*
Y58858D01*
Y51378D02*
X125492D01*
X112303Y33268D02*
Y40748D01*
Y33268D02*
X125492D01*
Y40748D01*
X112303D02*
X125492D01*
X112303Y25000D02*
Y32480D01*
Y25000D02*
X125492D01*
Y32480D01*
X112303D02*
X125492D01*
X117913Y85532D02*
Y98721D01*
X110433Y85532D02*
Y98721D01*
Y85532D02*
X117913D01*
X110433Y98721D02*
X117913D01*
X132283Y82677D02*
X146457D01*
Y99213D01*
X132283D02*
X146457D01*
X132283Y82677D02*
Y99213D01*
M02*
