G04*
G04 #@! TF.GenerationSoftware,Altium Limited,Altium Designer,21.9.2 (33)*
G04*
G04 Layer_Physical_Order=4*
G04 Layer_Color=16711680*
%FSLAX25Y25*%
%MOIN*%
G70*
G04*
G04 #@! TF.SameCoordinates,966C8154-A70F-4D01-A40B-C349B40C5DFB*
G04*
G04*
G04 #@! TF.FilePolarity,Positive*
G04*
G01*
G75*
%ADD12C,0.01000*%
%ADD50C,0.01500*%
%ADD51C,0.01968*%
%ADD52C,0.06000*%
%ADD53C,0.07284*%
%ADD54C,0.04921*%
%ADD55R,0.05906X0.05906*%
%ADD56C,0.05906*%
%ADD57C,0.04331*%
%ADD58R,0.04331X0.04331*%
%ADD59C,0.01575*%
G36*
X154497Y140674D02*
X156389Y140167D01*
X158199Y139417D01*
X159896Y138437D01*
X161450Y137245D01*
X162835Y135860D01*
X164028Y134305D01*
X165007Y132609D01*
X165757Y130798D01*
X166264Y128906D01*
X166520Y126964D01*
Y125984D01*
Y15748D01*
Y14769D01*
X166264Y12826D01*
X165757Y10934D01*
X165007Y9124D01*
X164028Y7427D01*
X162835Y5873D01*
X161450Y4487D01*
X159896Y3295D01*
X158199Y2315D01*
X156389Y1565D01*
X154497Y1058D01*
X152554Y803D01*
X14769D01*
X12826Y1058D01*
X10934Y1565D01*
X9124Y2315D01*
X7427Y3295D01*
X5873Y4487D01*
X4487Y5873D01*
X3295Y7427D01*
X2315Y9124D01*
X1565Y10934D01*
X1058Y12826D01*
X803Y14769D01*
Y15748D01*
Y125984D01*
Y126964D01*
X1058Y128906D01*
X1565Y130798D01*
X2315Y132609D01*
X3295Y134305D01*
X4487Y135859D01*
X5873Y137245D01*
X7427Y138437D01*
X9124Y139417D01*
X10934Y140167D01*
X12826Y140674D01*
X14769Y140929D01*
X152554D01*
X154497Y140674D01*
D02*
G37*
%LPC*%
G36*
X152358Y138696D02*
X150796D01*
X150743Y138685D01*
X150689Y138689D01*
X149141Y138485D01*
X149090Y138468D01*
X149036Y138464D01*
X147528Y138060D01*
X147479Y138036D01*
X147426Y138025D01*
X145984Y137428D01*
X145939Y137398D01*
X145888Y137381D01*
X144535Y136600D01*
X144495Y136564D01*
X144447Y136540D01*
X143208Y135590D01*
X143172Y135549D01*
X143127Y135519D01*
X142023Y134415D01*
X141993Y134370D01*
X141953Y134335D01*
X141002Y133095D01*
X140978Y133047D01*
X140942Y133007D01*
X140161Y131654D01*
X140144Y131603D01*
X140114Y131558D01*
X139516Y130115D01*
X139506Y130062D01*
X139482Y130014D01*
X139078Y128505D01*
X139074Y128452D01*
X139057Y128401D01*
X138853Y126852D01*
X138857Y126798D01*
X138846Y126746D01*
Y125965D01*
Y125184D01*
X138857Y125131D01*
X138853Y125077D01*
X139057Y123529D01*
X139074Y123478D01*
X139078Y123424D01*
X139482Y121915D01*
X139506Y121867D01*
X139516Y121814D01*
X140114Y120371D01*
X140144Y120326D01*
X140161Y120275D01*
X140942Y118923D01*
X140978Y118882D01*
X141002Y118834D01*
X141953Y117595D01*
X141993Y117559D01*
X142023Y117515D01*
X143127Y116410D01*
X143172Y116380D01*
X143208Y116340D01*
X144447Y115389D01*
X144495Y115365D01*
X144535Y115330D01*
X145888Y114549D01*
X145939Y114531D01*
X145984Y114502D01*
X147427Y113904D01*
X147480Y113893D01*
X147528Y113870D01*
X149037Y113465D01*
X149090Y113462D01*
X149141Y113444D01*
X150690Y113241D01*
X150744Y113244D01*
X150796Y113233D01*
X152358D01*
X152411Y113244D01*
X152465Y113241D01*
X154013Y113444D01*
X154064Y113462D01*
X154118Y113465D01*
X155627Y113870D01*
X155675Y113893D01*
X155728Y113904D01*
X157171Y114501D01*
X157215Y114531D01*
X157266Y114549D01*
X158619Y115330D01*
X158659Y115365D01*
X158708Y115389D01*
X159947Y116340D01*
X159982Y116380D01*
X160027Y116410D01*
X161132Y117515D01*
X161161Y117559D01*
X161202Y117595D01*
X162153Y118834D01*
X162177Y118882D01*
X162212Y118923D01*
X162993Y120275D01*
X163010Y120326D01*
X163040Y120371D01*
X163638Y121814D01*
X163648Y121867D01*
X163672Y121915D01*
X164076Y123424D01*
X164080Y123478D01*
X164097Y123529D01*
X164301Y125077D01*
X164298Y125131D01*
X164308Y125184D01*
Y125965D01*
Y126746D01*
X164298Y126798D01*
X164301Y126852D01*
X164097Y128401D01*
X164080Y128452D01*
X164076Y128505D01*
X163672Y130014D01*
X163648Y130062D01*
X163638Y130115D01*
X163040Y131558D01*
X163010Y131603D01*
X162993Y131654D01*
X162212Y133007D01*
X162177Y133047D01*
X162153Y133095D01*
X161202Y134334D01*
X161161Y134370D01*
X161132Y134415D01*
X160027Y135519D01*
X159982Y135549D01*
X159947Y135590D01*
X158708Y136540D01*
X158659Y136564D01*
X158619Y136600D01*
X157266Y137381D01*
X157215Y137398D01*
X157170Y137428D01*
X155727Y138025D01*
X155675Y138036D01*
X155626Y138060D01*
X154118Y138464D01*
X154064Y138468D01*
X154013Y138485D01*
X152464Y138689D01*
X152411Y138685D01*
X152358Y138696D01*
D02*
G37*
G36*
X16531D02*
X14969D01*
X14916Y138685D01*
X14863Y138689D01*
X13314Y138485D01*
X13263Y138468D01*
X13209Y138464D01*
X11701Y138060D01*
X11653Y138036D01*
X11600Y138025D01*
X10157Y137428D01*
X10112Y137398D01*
X10061Y137381D01*
X8709Y136600D01*
X8668Y136564D01*
X8620Y136540D01*
X7381Y135590D01*
X7345Y135549D01*
X7300Y135519D01*
X6196Y134415D01*
X6166Y134370D01*
X6126Y134335D01*
X5175Y133095D01*
X5151Y133047D01*
X5116Y133007D01*
X4335Y131654D01*
X4317Y131603D01*
X4287Y131558D01*
X3690Y130115D01*
X3679Y130062D01*
X3655Y130014D01*
X3251Y128505D01*
X3247Y128452D01*
X3230Y128401D01*
X3026Y126852D01*
X3030Y126798D01*
X3019Y126746D01*
Y125965D01*
Y125184D01*
X3030Y125131D01*
X3026Y125077D01*
X3230Y123529D01*
X3247Y123478D01*
X3251Y123424D01*
X3655Y121915D01*
X3679Y121867D01*
X3690Y121814D01*
X4287Y120371D01*
X4317Y120326D01*
X4335Y120275D01*
X5116Y118923D01*
X5151Y118882D01*
X5175Y118834D01*
X6126Y117595D01*
X6166Y117559D01*
X6196Y117515D01*
X7300Y116410D01*
X7345Y116380D01*
X7381Y116340D01*
X8620Y115389D01*
X8668Y115365D01*
X8709Y115330D01*
X10061Y114549D01*
X10112Y114531D01*
X10157Y114502D01*
X11600Y113904D01*
X11653Y113893D01*
X11701Y113870D01*
X13210Y113465D01*
X13264Y113462D01*
X13315Y113444D01*
X14863Y113241D01*
X14917Y113244D01*
X14970Y113233D01*
X16532D01*
X16584Y113244D01*
X16638Y113241D01*
X18187Y113444D01*
X18238Y113462D01*
X18291Y113465D01*
X19800Y113870D01*
X19848Y113893D01*
X19901Y113904D01*
X21344Y114501D01*
X21388Y114531D01*
X21440Y114549D01*
X22792Y115330D01*
X22833Y115365D01*
X22881Y115389D01*
X24120Y116340D01*
X24156Y116380D01*
X24200Y116410D01*
X25305Y117515D01*
X25335Y117559D01*
X25375Y117595D01*
X26326Y118834D01*
X26350Y118882D01*
X26385Y118923D01*
X27166Y120275D01*
X27184Y120326D01*
X27213Y120371D01*
X27811Y121814D01*
X27822Y121867D01*
X27845Y121915D01*
X28250Y123424D01*
X28253Y123478D01*
X28271Y123529D01*
X28474Y125077D01*
X28471Y125131D01*
X28481Y125184D01*
Y125965D01*
Y126746D01*
X28471Y126798D01*
X28474Y126852D01*
X28271Y128401D01*
X28253Y128452D01*
X28250Y128505D01*
X27845Y130014D01*
X27822Y130062D01*
X27811Y130115D01*
X27213Y131558D01*
X27184Y131603D01*
X27166Y131654D01*
X26385Y133007D01*
X26350Y133047D01*
X26326Y133095D01*
X25375Y134334D01*
X25335Y134370D01*
X25305Y134415D01*
X24200Y135519D01*
X24156Y135549D01*
X24120Y135590D01*
X22881Y136540D01*
X22833Y136564D01*
X22792Y136600D01*
X21440Y137381D01*
X21388Y137398D01*
X21344Y137428D01*
X19901Y138025D01*
X19848Y138036D01*
X19800Y138060D01*
X18291Y138464D01*
X18237Y138468D01*
X18186Y138485D01*
X16638Y138689D01*
X16584Y138685D01*
X16531Y138696D01*
D02*
G37*
G36*
X119898Y137608D02*
Y134071D01*
X123435D01*
X123223Y134862D01*
X122612Y135921D01*
X121748Y136785D01*
X120689Y137396D01*
X119898Y137608D01*
D02*
G37*
G36*
X91551D02*
Y134071D01*
X95089D01*
X94877Y134862D01*
X94266Y135921D01*
X93401Y136785D01*
X92343Y137396D01*
X91551Y137608D01*
D02*
G37*
G36*
X89551D02*
X88759Y137396D01*
X87701Y136785D01*
X86837Y135921D01*
X86226Y134862D01*
X86014Y134071D01*
X89551D01*
Y137608D01*
D02*
G37*
G36*
X117898D02*
X117106Y137396D01*
X116048Y136785D01*
X115183Y135921D01*
X114572Y134862D01*
X114360Y134071D01*
X117898D01*
Y137608D01*
D02*
G37*
G36*
X123435Y132071D02*
X119898D01*
Y128533D01*
X120689Y128745D01*
X121748Y129357D01*
X122612Y130221D01*
X123223Y131279D01*
X123435Y132071D01*
D02*
G37*
G36*
X95089D02*
X91551D01*
Y128533D01*
X92343Y128745D01*
X93401Y129357D01*
X94266Y130221D01*
X94877Y131279D01*
X95089Y132071D01*
D02*
G37*
G36*
X89551D02*
X86014D01*
X86226Y131279D01*
X86837Y130221D01*
X87701Y129357D01*
X88759Y128745D01*
X89551Y128533D01*
Y132071D01*
D02*
G37*
G36*
X117898D02*
X114360D01*
X114572Y131279D01*
X115183Y130221D01*
X116048Y129357D01*
X117106Y128745D01*
X117898Y128533D01*
Y132071D01*
D02*
G37*
G36*
X31320Y129737D02*
X30688D01*
X30105Y129495D01*
X29658Y129049D01*
X29416Y128465D01*
Y127834D01*
X29658Y127250D01*
X30105Y126804D01*
X30688Y126562D01*
X31320D01*
X31903Y126804D01*
X32350Y127250D01*
X32591Y127834D01*
Y128465D01*
X32350Y129049D01*
X31903Y129495D01*
X31320Y129737D01*
D02*
G37*
G36*
X96177Y125953D02*
Y123638D01*
X98492D01*
X98402Y123974D01*
X97946Y124763D01*
X97302Y125407D01*
X96513Y125863D01*
X96177Y125953D01*
D02*
G37*
G36*
X115272D02*
Y123638D01*
X117586D01*
X117496Y123974D01*
X117041Y124763D01*
X116396Y125407D01*
X115607Y125863D01*
X115272Y125953D01*
D02*
G37*
G36*
X113272Y125952D02*
X112936Y125863D01*
X112147Y125407D01*
X111503Y124763D01*
X111047Y123974D01*
X110957Y123638D01*
X113272D01*
Y125952D01*
D02*
G37*
G36*
X94177Y125953D02*
X93841Y125863D01*
X93052Y125407D01*
X92408Y124763D01*
X91952Y123974D01*
X91862Y123638D01*
X94177D01*
Y125953D01*
D02*
G37*
G36*
X113272Y121638D02*
X110957D01*
X111047Y121302D01*
X111503Y120513D01*
X112147Y119869D01*
X112936Y119413D01*
X113272Y119323D01*
Y121638D01*
D02*
G37*
G36*
X98492D02*
X96177D01*
Y119323D01*
X96513Y119413D01*
X97302Y119869D01*
X97946Y120513D01*
X98402Y121302D01*
X98492Y121638D01*
D02*
G37*
G36*
X94177D02*
X91862D01*
X91952Y121302D01*
X92408Y120513D01*
X93052Y119869D01*
X93841Y119413D01*
X94177Y119323D01*
Y121638D01*
D02*
G37*
G36*
X117586D02*
X115272D01*
Y119323D01*
X115607Y119413D01*
X116396Y119869D01*
X117041Y120513D01*
X117496Y121302D01*
X117586Y121638D01*
D02*
G37*
G36*
X79450Y121272D02*
X78818D01*
X78235Y121031D01*
X77788Y120584D01*
X77547Y120001D01*
Y119369D01*
X77788Y118786D01*
X78235Y118339D01*
X78818Y118098D01*
X79450D01*
X80033Y118339D01*
X80480Y118786D01*
X80721Y119369D01*
Y120001D01*
X80480Y120584D01*
X80033Y121031D01*
X79450Y121272D01*
D02*
G37*
G36*
X18620Y108099D02*
X5002D01*
X4923Y108083D01*
X4843D01*
X4775Y108070D01*
X4775Y108070D01*
X4775D01*
X4701Y108039D01*
X4690Y108037D01*
X4679Y108030D01*
X4481Y107948D01*
X4346Y107813D01*
X4256Y107723D01*
X4256Y107723D01*
X4256Y107723D01*
X4200Y107587D01*
X4174Y107525D01*
X4168Y107515D01*
X4165Y107503D01*
X4135Y107429D01*
Y107429D01*
X4135Y107429D01*
X4121Y107362D01*
Y107282D01*
X4106Y107203D01*
Y31576D01*
X4121Y31498D01*
Y31417D01*
X4135Y31350D01*
X4135Y31350D01*
Y31350D01*
X4165Y31276D01*
X4168Y31264D01*
X4174Y31254D01*
X4256Y31056D01*
X4391Y30921D01*
X4481Y30831D01*
X4481Y30831D01*
X4482Y30831D01*
X4618Y30775D01*
X4679Y30749D01*
X4690Y30742D01*
X4701Y30740D01*
X4775Y30709D01*
X4775D01*
X4775Y30709D01*
X4843Y30696D01*
X4923D01*
X5002Y30680D01*
X18620D01*
X18699Y30696D01*
X18780D01*
X18847Y30709D01*
X18847Y30709D01*
X18847D01*
X18921Y30740D01*
X18933Y30742D01*
X18943Y30749D01*
X19141Y30831D01*
X19276Y30966D01*
X19366Y31056D01*
X19366Y31056D01*
X19366Y31056D01*
X19422Y31193D01*
X19448Y31254D01*
X19454Y31264D01*
X19457Y31276D01*
X19488Y31350D01*
Y31350D01*
X19488Y31350D01*
X19501Y31417D01*
Y31498D01*
X19516Y31576D01*
Y107203D01*
X19501Y107282D01*
Y107362D01*
X19488Y107429D01*
X19488Y107429D01*
Y107429D01*
X19457Y107503D01*
X19454Y107515D01*
X19448Y107525D01*
X19366Y107723D01*
X19231Y107858D01*
X19141Y107948D01*
X19141Y107948D01*
X19141Y107948D01*
X19004Y108005D01*
X18943Y108030D01*
X18933Y108037D01*
X18921Y108039D01*
X18847Y108070D01*
X18847D01*
X18846Y108070D01*
X18779Y108083D01*
X18699D01*
X18620Y108099D01*
D02*
G37*
G36*
X132205Y103556D02*
X131574D01*
X130991Y103314D01*
X130544Y102868D01*
X130302Y102284D01*
Y101653D01*
X130544Y101069D01*
X130991Y100623D01*
X131574Y100381D01*
X132205D01*
X132789Y100623D01*
X133236Y101069D01*
X133477Y101653D01*
Y102284D01*
X133236Y102868D01*
X132789Y103314D01*
X132205Y103556D01*
D02*
G37*
G36*
X36614Y119930D02*
X35918Y119791D01*
X35328Y119397D01*
X22336Y106404D01*
X21941Y105814D01*
X21803Y105118D01*
X21803Y105118D01*
Y101391D01*
X20657D01*
Y95460D01*
X26587D01*
Y101391D01*
X25441D01*
Y104365D01*
X37901Y116824D01*
X38295Y117414D01*
X38433Y118110D01*
X38295Y118806D01*
X37901Y119397D01*
X37310Y119791D01*
X36614Y119930D01*
D02*
G37*
G36*
X73150Y95288D02*
X72519D01*
X71935Y95047D01*
X71489Y94600D01*
X71247Y94016D01*
Y93385D01*
X71489Y92802D01*
X71935Y92355D01*
X72519Y92113D01*
X73150D01*
X73734Y92355D01*
X74180Y92802D01*
X74422Y93385D01*
Y94016D01*
X74180Y94600D01*
X73734Y95047D01*
X73150Y95288D01*
D02*
G37*
G36*
X124213Y103886D02*
X124213Y103886D01*
X117028D01*
X116331Y103748D01*
X115741Y103353D01*
X115347Y102763D01*
X115208Y102067D01*
X115347Y101371D01*
X115741Y100781D01*
X116331Y100386D01*
X117028Y100248D01*
X123459D01*
X133655Y90052D01*
X133655Y90052D01*
X134245Y89658D01*
X134941Y89519D01*
X134941Y89519D01*
X139075D01*
X139771Y89658D01*
X140361Y90052D01*
X140755Y90642D01*
X140894Y91339D01*
X140755Y92035D01*
X140361Y92625D01*
X139771Y93019D01*
X139075Y93158D01*
X135695D01*
X125499Y103353D01*
X124909Y103748D01*
X124213Y103886D01*
D02*
G37*
G36*
X24012Y93516D02*
X23232D01*
X22478Y93314D01*
X21801Y92924D01*
X21249Y92372D01*
X20859Y91696D01*
X20657Y90942D01*
Y90161D01*
X20859Y89407D01*
X21249Y88730D01*
X21801Y88178D01*
X22478Y87788D01*
X23232Y87586D01*
X24012D01*
X24767Y87788D01*
X25443Y88178D01*
X25995Y88730D01*
X26385Y89407D01*
X26587Y90161D01*
Y90942D01*
X26385Y91696D01*
X25995Y92372D01*
X25443Y92924D01*
X24767Y93314D01*
X24012Y93516D01*
D02*
G37*
G36*
X80335Y75997D02*
X79704D01*
X79687Y75990D01*
X40884D01*
X40867Y75997D01*
X40235D01*
X39652Y75755D01*
X39206Y75309D01*
X38964Y74725D01*
Y74094D01*
X39206Y73510D01*
X39652Y73064D01*
X40235Y72822D01*
X40867D01*
X40884Y72829D01*
X79687D01*
X79704Y72822D01*
X80335D01*
X80919Y73064D01*
X81365Y73510D01*
X81607Y74094D01*
Y74725D01*
X81365Y75309D01*
X80919Y75755D01*
X80335Y75997D01*
D02*
G37*
G36*
X115670Y72847D02*
X115039D01*
X114455Y72606D01*
X114009Y72159D01*
X113767Y71576D01*
Y70944D01*
X114009Y70361D01*
X114455Y69914D01*
X115039Y69672D01*
X115670D01*
X116253Y69914D01*
X116700Y70361D01*
X116942Y70944D01*
Y71576D01*
X116700Y72159D01*
X116253Y72606D01*
X115670Y72847D01*
D02*
G37*
G36*
X63800Y72257D02*
X63169D01*
X62585Y72015D01*
X62138Y71569D01*
X61897Y70985D01*
Y70354D01*
X61904Y70337D01*
Y66206D01*
X48429Y52731D01*
X48412Y52724D01*
X47965Y52277D01*
X47724Y51694D01*
Y51062D01*
X47965Y50479D01*
X48412Y50032D01*
X48995Y49791D01*
X49627D01*
X50210Y50032D01*
X50657Y50479D01*
X50664Y50496D01*
X64602Y64434D01*
X64944Y64946D01*
X65065Y65551D01*
Y70337D01*
X65072Y70354D01*
Y70985D01*
X64830Y71569D01*
X64383Y72015D01*
X63800Y72257D01*
D02*
G37*
G36*
X152358Y28460D02*
X150796D01*
X150743Y28449D01*
X150689Y28453D01*
X149141Y28249D01*
X149090Y28231D01*
X149036Y28228D01*
X147528Y27824D01*
X147479Y27800D01*
X147426Y27789D01*
X145984Y27192D01*
X145939Y27162D01*
X145888Y27145D01*
X144535Y26364D01*
X144495Y26328D01*
X144447Y26304D01*
X143208Y25353D01*
X143172Y25313D01*
X143127Y25283D01*
X142023Y24179D01*
X141993Y24134D01*
X141953Y24098D01*
X141002Y22859D01*
X140978Y22811D01*
X140942Y22771D01*
X140161Y21418D01*
X140144Y21367D01*
X140114Y21322D01*
X139516Y19879D01*
X139506Y19826D01*
X139482Y19778D01*
X139078Y18269D01*
X139074Y18215D01*
X139057Y18165D01*
X138853Y16616D01*
X138857Y16562D01*
X138846Y16510D01*
Y15729D01*
Y14947D01*
X138857Y14895D01*
X138853Y14841D01*
X139057Y13293D01*
X139074Y13241D01*
X139078Y13188D01*
X139482Y11679D01*
X139506Y11631D01*
X139516Y11578D01*
X140114Y10135D01*
X140144Y10090D01*
X140161Y10039D01*
X140942Y8687D01*
X140978Y8646D01*
X141002Y8598D01*
X141953Y7359D01*
X141993Y7323D01*
X142023Y7278D01*
X143127Y6174D01*
X143172Y6144D01*
X143208Y6104D01*
X144447Y5153D01*
X144495Y5129D01*
X144535Y5093D01*
X145888Y4312D01*
X145939Y4295D01*
X145984Y4265D01*
X147427Y3667D01*
X147480Y3657D01*
X147528Y3633D01*
X149037Y3229D01*
X149090Y3225D01*
X149141Y3208D01*
X150690Y3004D01*
X150744Y3008D01*
X150796Y2997D01*
X152358D01*
X152411Y3008D01*
X152465Y3004D01*
X154013Y3208D01*
X154064Y3225D01*
X154118Y3229D01*
X155627Y3633D01*
X155675Y3657D01*
X155728Y3667D01*
X157170Y4265D01*
X157215Y4295D01*
X157266Y4312D01*
X158619Y5093D01*
X158659Y5129D01*
X158708Y5153D01*
X159947Y6103D01*
X159982Y6144D01*
X160027Y6174D01*
X161132Y7278D01*
X161161Y7323D01*
X161202Y7359D01*
X162153Y8598D01*
X162177Y8646D01*
X162212Y8686D01*
X162993Y10039D01*
X163010Y10090D01*
X163040Y10135D01*
X163638Y11578D01*
X163648Y11631D01*
X163672Y11679D01*
X164076Y13188D01*
X164080Y13241D01*
X164097Y13292D01*
X164301Y14841D01*
X164298Y14895D01*
X164308Y14947D01*
Y15728D01*
Y16509D01*
X164298Y16562D01*
X164301Y16616D01*
X164097Y18164D01*
X164080Y18215D01*
X164076Y18269D01*
X163672Y19778D01*
X163648Y19826D01*
X163638Y19879D01*
X163040Y21322D01*
X163010Y21367D01*
X162993Y21418D01*
X162212Y22770D01*
X162177Y22811D01*
X162153Y22859D01*
X161202Y24098D01*
X161161Y24134D01*
X161132Y24178D01*
X160027Y25283D01*
X159982Y25313D01*
X159947Y25353D01*
X158708Y26304D01*
X158659Y26328D01*
X158619Y26363D01*
X157266Y27144D01*
X157215Y27162D01*
X157170Y27192D01*
X155727Y27789D01*
X155675Y27800D01*
X155626Y27824D01*
X154118Y28228D01*
X154064Y28231D01*
X154013Y28249D01*
X152464Y28453D01*
X152411Y28449D01*
X152358Y28460D01*
D02*
G37*
G36*
X16531D02*
X14969D01*
X14916Y28449D01*
X14863Y28453D01*
X13314Y28249D01*
X13263Y28231D01*
X13209Y28228D01*
X11701Y27824D01*
X11653Y27800D01*
X11600Y27789D01*
X10157Y27192D01*
X10112Y27162D01*
X10061Y27145D01*
X8709Y26364D01*
X8668Y26328D01*
X8620Y26304D01*
X7381Y25353D01*
X7345Y25313D01*
X7300Y25283D01*
X6196Y24179D01*
X6166Y24134D01*
X6126Y24098D01*
X5175Y22859D01*
X5151Y22811D01*
X5116Y22771D01*
X4335Y21418D01*
X4317Y21367D01*
X4287Y21322D01*
X3690Y19879D01*
X3679Y19826D01*
X3655Y19778D01*
X3251Y18269D01*
X3247Y18215D01*
X3230Y18165D01*
X3026Y16616D01*
X3030Y16562D01*
X3019Y16510D01*
Y15729D01*
Y14947D01*
X3030Y14895D01*
X3026Y14841D01*
X3230Y13293D01*
X3247Y13241D01*
X3251Y13188D01*
X3655Y11679D01*
X3679Y11631D01*
X3690Y11578D01*
X4287Y10135D01*
X4317Y10090D01*
X4335Y10039D01*
X5116Y8687D01*
X5151Y8646D01*
X5175Y8598D01*
X6126Y7359D01*
X6166Y7323D01*
X6196Y7278D01*
X7300Y6174D01*
X7345Y6144D01*
X7381Y6104D01*
X8620Y5153D01*
X8668Y5129D01*
X8709Y5093D01*
X10061Y4312D01*
X10112Y4295D01*
X10157Y4265D01*
X11600Y3667D01*
X11653Y3657D01*
X11701Y3633D01*
X13210Y3229D01*
X13264Y3225D01*
X13315Y3208D01*
X14863Y3004D01*
X14917Y3008D01*
X14970Y2997D01*
X16532D01*
X16584Y3008D01*
X16638Y3004D01*
X18187Y3208D01*
X18238Y3225D01*
X18291Y3229D01*
X19800Y3633D01*
X19848Y3657D01*
X19901Y3667D01*
X21344Y4265D01*
X21388Y4295D01*
X21440Y4312D01*
X22792Y5093D01*
X22833Y5129D01*
X22881Y5153D01*
X24120Y6103D01*
X24156Y6144D01*
X24200Y6174D01*
X25305Y7278D01*
X25335Y7323D01*
X25375Y7359D01*
X26326Y8598D01*
X26350Y8646D01*
X26385Y8686D01*
X27166Y10039D01*
X27184Y10090D01*
X27213Y10135D01*
X27811Y11578D01*
X27822Y11631D01*
X27845Y11679D01*
X28250Y13188D01*
X28253Y13241D01*
X28271Y13292D01*
X28474Y14841D01*
X28471Y14895D01*
X28481Y14947D01*
Y15728D01*
Y16509D01*
X28471Y16562D01*
X28474Y16616D01*
X28271Y18164D01*
X28253Y18215D01*
X28250Y18269D01*
X27845Y19778D01*
X27822Y19826D01*
X27811Y19879D01*
X27213Y21322D01*
X27184Y21367D01*
X27166Y21418D01*
X26385Y22770D01*
X26350Y22811D01*
X26326Y22859D01*
X25375Y24098D01*
X25335Y24134D01*
X25305Y24178D01*
X24200Y25283D01*
X24156Y25313D01*
X24120Y25353D01*
X22881Y26304D01*
X22833Y26328D01*
X22792Y26363D01*
X21440Y27144D01*
X21388Y27162D01*
X21344Y27192D01*
X19901Y27789D01*
X19848Y27800D01*
X19800Y27824D01*
X18291Y28228D01*
X18237Y28231D01*
X18186Y28249D01*
X16638Y28453D01*
X16584Y28449D01*
X16531Y28460D01*
D02*
G37*
G36*
X77481Y21272D02*
X76850D01*
X76266Y21031D01*
X75820Y20584D01*
X75578Y20001D01*
Y19369D01*
X75820Y18786D01*
X76266Y18339D01*
X76850Y18098D01*
X77481D01*
X78065Y18339D01*
X78511Y18786D01*
X78753Y19369D01*
Y20001D01*
X78511Y20584D01*
X78065Y21031D01*
X77481Y21272D01*
D02*
G37*
G36*
X102847Y15564D02*
X95342D01*
Y13391D01*
X88915D01*
X88898Y13398D01*
X88267D01*
X87683Y13157D01*
X87237Y12710D01*
X86995Y12127D01*
Y11495D01*
X87237Y10912D01*
X87683Y10465D01*
X88267Y10224D01*
X88898D01*
X88915Y10231D01*
X95342D01*
Y8058D01*
X102847D01*
Y15564D01*
D02*
G37*
G36*
X130095Y15635D02*
Y12811D01*
X132919D01*
X132778Y13337D01*
X132257Y14238D01*
X131521Y14974D01*
X130620Y15494D01*
X130095Y15635D01*
D02*
G37*
G36*
X128094D02*
X127569Y15494D01*
X126667Y14974D01*
X125932Y14238D01*
X125411Y13337D01*
X125270Y12811D01*
X128094D01*
Y15635D01*
D02*
G37*
G36*
X119589Y15564D02*
X118600D01*
X117646Y15308D01*
X116790Y14814D01*
X116092Y14115D01*
X115597Y13260D01*
X115342Y12305D01*
Y11317D01*
X115597Y10362D01*
X116092Y9507D01*
X116790Y8808D01*
X117646Y8314D01*
X118600Y8058D01*
X119589D01*
X120543Y8314D01*
X121399Y8808D01*
X122097Y9507D01*
X122591Y10362D01*
X122847Y11317D01*
Y12305D01*
X122591Y13260D01*
X122097Y14115D01*
X121399Y14814D01*
X120543Y15308D01*
X119589Y15564D01*
D02*
G37*
G36*
X109589D02*
X108600D01*
X107646Y15308D01*
X106790Y14814D01*
X106091Y14115D01*
X105597Y13260D01*
X105342Y12305D01*
Y11317D01*
X105597Y10362D01*
X106091Y9507D01*
X106790Y8808D01*
X107646Y8314D01*
X108600Y8058D01*
X109589D01*
X110543Y8314D01*
X111399Y8808D01*
X112097Y9507D01*
X112592Y10362D01*
X112847Y11317D01*
Y12305D01*
X112592Y13260D01*
X112097Y14115D01*
X111399Y14814D01*
X110543Y15308D01*
X109589Y15564D01*
D02*
G37*
G36*
X132919Y10811D02*
X130095D01*
Y7987D01*
X130620Y8128D01*
X131521Y8648D01*
X132257Y9384D01*
X132778Y10285D01*
X132919Y10811D01*
D02*
G37*
G36*
X128094D02*
X125270D01*
X125411Y10285D01*
X125932Y9384D01*
X126667Y8648D01*
X127569Y8128D01*
X128094Y7987D01*
Y10811D01*
D02*
G37*
%LPD*%
D12*
X7402Y104905D02*
X14093D01*
X10747D01*
Y100445D01*
X7402D01*
X14093D01*
X9632Y97100D02*
Y94869D01*
X10747Y93754D01*
X14093D01*
Y97100D01*
X12977Y98215D01*
X11862Y97100D01*
Y93754D01*
X16323Y91524D02*
X9632D01*
Y88179D01*
X10747Y87063D01*
X12977D01*
X14093Y88179D01*
Y91524D01*
X16323Y84833D02*
X9632D01*
Y81488D01*
X10747Y80373D01*
X12977D01*
X14093Y81488D01*
Y84833D01*
X9632Y78142D02*
X12977D01*
X14093Y77027D01*
Y73682D01*
X15208D01*
X16323Y74797D01*
Y75912D01*
X14093Y73682D02*
X9632D01*
X7402Y71452D02*
X14093D01*
Y68106D01*
X12977Y66991D01*
X8517D01*
X7402Y68106D01*
Y71452D01*
X14093Y63646D02*
Y61416D01*
X12977Y60300D01*
X10747D01*
X9632Y61416D01*
Y63646D01*
X10747Y64761D01*
X12977D01*
X14093Y63646D01*
Y58070D02*
X9632D01*
Y54725D01*
X10747Y53610D01*
X14093D01*
X9632Y51380D02*
X12977D01*
X14093Y50264D01*
Y46919D01*
X9632D01*
X8517Y43574D02*
X9632D01*
Y44689D01*
Y42459D01*
Y43574D01*
X12977D01*
X14093Y42459D01*
Y39113D02*
Y35768D01*
X12977Y34653D01*
X11862Y35768D01*
Y37998D01*
X10747Y39113D01*
X9632Y37998D01*
Y34653D01*
D50*
X40551Y74410D02*
X80020D01*
X63484Y65551D02*
Y70669D01*
X49311Y51378D02*
X63484Y65551D01*
X88583Y11811D02*
X99094D01*
X99094Y11811D01*
D51*
X23622Y98425D02*
Y105118D01*
X36614Y118110D01*
X124213Y102067D02*
X134941Y91339D01*
X139075D01*
X117028Y102067D02*
X124213D01*
D52*
X151575Y15748D02*
D03*
Y125984D02*
D03*
X15748Y125984D02*
D03*
Y15748D02*
D03*
D53*
X118898Y133071D02*
D03*
X90551D02*
D03*
D54*
X95177Y122638D02*
D03*
X114272D02*
D03*
D55*
X99094Y11811D02*
D03*
D56*
X109095D02*
D03*
X119095D02*
D03*
X129095D02*
D03*
D57*
X23622Y90551D02*
D03*
D58*
Y98425D02*
D03*
D59*
X56693Y19685D02*
D03*
X79134Y119685D02*
D03*
X158465Y73819D02*
D03*
X21260Y37008D02*
D03*
X21654Y68898D02*
D03*
X40551Y74410D02*
D03*
X80020D02*
D03*
X36614Y118110D02*
D03*
X24705Y113779D02*
D03*
X79134Y112205D02*
D03*
X31004Y128150D02*
D03*
X39764Y19291D02*
D03*
X124016Y82677D02*
D03*
X114173D02*
D03*
X108661Y46063D02*
D03*
X128347Y55118D02*
D03*
X77165Y19685D02*
D03*
X72835Y93701D02*
D03*
X101181Y97244D02*
D03*
X79134D02*
D03*
X63484Y70669D02*
D03*
X128347Y63779D02*
D03*
X115354Y71260D02*
D03*
X88583Y11811D02*
D03*
X150787Y55512D02*
D03*
X141732D02*
D03*
X49311Y51378D02*
D03*
X139370Y80315D02*
D03*
X131890Y101969D02*
D03*
X139075Y91339D02*
D03*
X117028Y102067D02*
D03*
M02*
