G04*
G04 #@! TF.GenerationSoftware,Altium Limited,Altium Designer,21.9.2 (33)*
G04*
G04 Layer_Color=8388736*
%FSLAX25Y25*%
%MOIN*%
G70*
G04*
G04 #@! TF.SameCoordinates,966C8154-A70F-4D01-A40B-C349B40C5DFB*
G04*
G04*
G04 #@! TF.FilePolarity,Negative*
G04*
G01*
G75*
%ADD29R,0.06312X0.04737*%
%ADD30R,0.06312X0.07493*%
%ADD31R,0.02375X0.06312*%
%ADD32R,0.10209X0.10209*%
%ADD33R,0.06804X0.03359*%
%ADD34R,0.04737X0.06312*%
G04:AMPARAMS|DCode=35|XSize=68mil|YSize=68mil|CornerRadius=19mil|HoleSize=0mil|Usage=FLASHONLY|Rotation=90.000|XOffset=0mil|YOffset=0mil|HoleType=Round|Shape=RoundedRectangle|*
%AMROUNDEDRECTD35*
21,1,0.06800,0.03000,0,0,90.0*
21,1,0.03000,0.06800,0,0,90.0*
1,1,0.03800,0.01500,0.01500*
1,1,0.03800,0.01500,-0.01500*
1,1,0.03800,-0.01500,-0.01500*
1,1,0.03800,-0.01500,0.01500*
%
%ADD35ROUNDEDRECTD35*%
G04:AMPARAMS|DCode=36|XSize=68mil|YSize=68mil|CornerRadius=19mil|HoleSize=0mil|Usage=FLASHONLY|Rotation=0.000|XOffset=0mil|YOffset=0mil|HoleType=Round|Shape=RoundedRectangle|*
%AMROUNDEDRECTD36*
21,1,0.06800,0.03000,0,0,0.0*
21,1,0.03000,0.06800,0,0,0.0*
1,1,0.03800,0.01500,-0.01500*
1,1,0.03800,-0.01500,-0.01500*
1,1,0.03800,-0.01500,0.01500*
1,1,0.03800,0.01500,0.01500*
%
%ADD36ROUNDEDRECTD36*%
%ADD37R,0.03162X0.06607*%
%ADD38R,0.06607X0.03162*%
%ADD39R,0.05131X0.08280*%
%ADD40R,0.04343X0.06312*%
%ADD41R,0.03162X0.04343*%
%ADD42C,0.23323*%
%ADD43C,0.08083*%
%ADD44C,0.05721*%
%ADD45R,0.06706X0.06706*%
%ADD46C,0.06706*%
%ADD47C,0.05131*%
%ADD48R,0.05131X0.05131*%
%ADD49C,0.02375*%
G36*
X98425Y120866D02*
X97441D01*
Y124213D01*
X98425D01*
Y120866D01*
D02*
G37*
G36*
X100984Y119488D02*
X100787D01*
Y125787D01*
X100984D01*
Y119488D01*
D02*
G37*
G36*
X103543D02*
X103347D01*
Y125787D01*
X103543D01*
Y119488D01*
D02*
G37*
G36*
X108661D02*
X108465D01*
Y125787D01*
X108661D01*
Y119488D01*
D02*
G37*
G36*
X106102D02*
X105905D01*
Y125787D01*
X106102D01*
Y119488D01*
D02*
G37*
G36*
X112008Y120965D02*
X111024D01*
Y124311D01*
X112008D01*
Y120965D01*
D02*
G37*
D29*
X72350Y119424D02*
D03*
Y112337D02*
D03*
X31004Y122146D02*
D03*
Y115059D02*
D03*
X53937Y79527D02*
D03*
Y86614D02*
D03*
X63386Y79527D02*
D03*
Y86614D02*
D03*
X94882Y90158D02*
D03*
Y97244D02*
D03*
X85827Y90158D02*
D03*
Y97244D02*
D03*
X141732Y61417D02*
D03*
Y68504D02*
D03*
X150787Y68504D02*
D03*
Y61417D02*
D03*
X124016Y95669D02*
D03*
Y88583D02*
D03*
X72835Y86614D02*
D03*
Y79527D02*
D03*
X114173Y95669D02*
D03*
Y88583D02*
D03*
D30*
X32382Y68898D02*
D03*
X14665D02*
D03*
X32382Y37008D02*
D03*
X14665D02*
D03*
D31*
X99606Y122638D02*
D03*
X102165D02*
D03*
X104724D02*
D03*
X107283D02*
D03*
X109843D02*
D03*
D32*
X53347Y115551D02*
D03*
D33*
X42669Y108051D02*
D03*
Y113051D02*
D03*
Y118051D02*
D03*
Y123051D02*
D03*
X64024D02*
D03*
Y118051D02*
D03*
Y113051D02*
D03*
Y108051D02*
D03*
D34*
X39370Y25886D02*
D03*
X32283D02*
D03*
X131890Y108661D02*
D03*
X138976D02*
D03*
X116929D02*
D03*
X124016D02*
D03*
X115354Y63779D02*
D03*
X122441D02*
D03*
X62697Y19980D02*
D03*
X69784D02*
D03*
X115354Y55118D02*
D03*
X122441D02*
D03*
Y37008D02*
D03*
X115354D02*
D03*
X122441Y28740D02*
D03*
X115354D02*
D03*
D35*
X153543Y78740D02*
D03*
Y104331D02*
D03*
Y91535D02*
D03*
X44094Y46063D02*
D03*
D36*
Y60630D02*
D03*
D37*
X91339Y63142D02*
D03*
X88189D02*
D03*
X85039D02*
D03*
X81890D02*
D03*
X78740D02*
D03*
X75590D02*
D03*
X72441D02*
D03*
X69291D02*
D03*
Y29772D02*
D03*
X72441D02*
D03*
X75590D02*
D03*
X78740D02*
D03*
X81890D02*
D03*
X85039D02*
D03*
X88189D02*
D03*
X91339D02*
D03*
D38*
X63630Y57480D02*
D03*
Y54331D02*
D03*
Y51181D02*
D03*
Y48031D02*
D03*
Y44882D02*
D03*
Y41732D02*
D03*
Y38583D02*
D03*
Y35433D02*
D03*
X97000D02*
D03*
Y38583D02*
D03*
Y41732D02*
D03*
Y44882D02*
D03*
Y48031D02*
D03*
Y51181D02*
D03*
Y54331D02*
D03*
Y57480D02*
D03*
D39*
X85236Y80315D02*
D03*
X95079D02*
D03*
D40*
X122638Y46063D02*
D03*
X115157D02*
D03*
D41*
X135630Y96457D02*
D03*
X143110D02*
D03*
Y85433D02*
D03*
X139370D02*
D03*
X135630D02*
D03*
D42*
X151575Y15748D02*
D03*
Y125984D02*
D03*
X15748Y125984D02*
D03*
Y15748D02*
D03*
D43*
X118898Y133071D02*
D03*
X90551D02*
D03*
D44*
X95177Y122638D02*
D03*
X114272D02*
D03*
D45*
X99094Y11811D02*
D03*
D46*
X109095D02*
D03*
X119095D02*
D03*
X129095D02*
D03*
D47*
X23622Y90551D02*
D03*
D48*
Y98425D02*
D03*
D49*
X56693Y19685D02*
D03*
X79134Y119685D02*
D03*
X158465Y73819D02*
D03*
X21260Y37008D02*
D03*
X21654Y68898D02*
D03*
X40551Y74410D02*
D03*
X80020D02*
D03*
X36614Y118110D02*
D03*
X24705Y113779D02*
D03*
X79134Y112205D02*
D03*
X31004Y128150D02*
D03*
X39764Y19291D02*
D03*
X124016Y82677D02*
D03*
X114173D02*
D03*
X108661Y46063D02*
D03*
X128347Y55118D02*
D03*
X77165Y19685D02*
D03*
X72835Y93701D02*
D03*
X101181Y97244D02*
D03*
X79134D02*
D03*
X63484Y70669D02*
D03*
X128347Y63779D02*
D03*
X115354Y71260D02*
D03*
X88583Y11811D02*
D03*
X150787Y55512D02*
D03*
X141732D02*
D03*
X49311Y51378D02*
D03*
X139370Y80315D02*
D03*
X131890Y101969D02*
D03*
X139075Y91339D02*
D03*
X117028Y102067D02*
D03*
M02*
