G04*
G04 #@! TF.GenerationSoftware,Altium Limited,Altium Designer,21.9.2 (33)*
G04*
G04 Layer_Color=32768*
%FSLAX25Y25*%
%MOIN*%
G70*
G04*
G04 #@! TF.SameCoordinates,0BDF80D0-06DB-4186-A1CF-57D38C80D236*
G04*
G04*
G04 #@! TF.FilePolarity,Positive*
G04*
G01*
G75*
%ADD65C,0.00394*%
%ADD66C,0.00197*%
D65*
X126043Y115945D02*
Y145472D01*
X83406D02*
X126043D01*
X83406Y115945D02*
Y145472D01*
Y115945D02*
X126043D01*
D66*
X90551Y83858D02*
X107874D01*
X90551Y73622D02*
X107874D01*
X90551D02*
Y83858D01*
X107874Y73622D02*
Y83858D01*
X9646Y31693D02*
Y75000D01*
X37205D01*
X9646Y31693D02*
X37205D01*
Y75000D01*
X30315Y105512D02*
X37402D01*
X30315Y90551D02*
Y105512D01*
X37402Y90551D02*
Y105512D01*
X30315Y90551D02*
X37402D01*
X142913Y105118D02*
Y112205D01*
X127953D02*
X142913D01*
X127953Y105118D02*
X142913D01*
X127953D02*
Y112205D01*
X127953Y105118D02*
Y112205D01*
X112992D02*
X127953D01*
X112992Y105118D02*
X127953D01*
X112992D02*
Y112205D01*
X111417Y25197D02*
Y32283D01*
Y25197D02*
X126378D01*
X111417Y32283D02*
X126378D01*
Y25197D02*
Y32283D01*
X45276Y90551D02*
X52362D01*
X45276Y75590D02*
Y90551D01*
X52362Y75590D02*
Y90551D01*
X45276Y75590D02*
X52362D01*
X54724Y90551D02*
X61811D01*
X54724Y75590D02*
Y90551D01*
X61811Y75590D02*
Y90551D01*
X54724Y75590D02*
X61811D01*
X126378Y51575D02*
Y58661D01*
X111417D02*
X126378D01*
X111417Y51575D02*
X126378D01*
X111417D02*
Y58661D01*
X126378Y33465D02*
Y40551D01*
X111417D02*
X126378D01*
X111417Y33465D02*
X126378D01*
X111417D02*
Y40551D01*
X110236Y50787D02*
X126378D01*
X110236Y41339D02*
Y50787D01*
Y41339D02*
X126378D01*
Y50787D01*
X63779Y75591D02*
X70866D01*
Y90551D01*
X63779Y75591D02*
Y90551D01*
X70866D01*
X29331Y80315D02*
Y105512D01*
X9646Y80315D02*
X29331D01*
X9646D02*
Y105512D01*
X29331D01*
X84646Y20079D02*
X136457D01*
X84646Y6693D02*
X136457D01*
Y20079D01*
X84646Y6693D02*
Y20079D01*
X68012Y104724D02*
Y126378D01*
X38681D02*
X68012D01*
X38681Y104724D02*
Y126378D01*
Y104724D02*
X68012D01*
X132283Y82677D02*
Y99213D01*
X146457D01*
Y82677D02*
Y99213D01*
X132283Y82677D02*
X146457D01*
X100886Y25886D02*
Y67028D01*
X59744Y25886D02*
X100886D01*
X59744D02*
Y67028D01*
X100886D01*
X111417Y75197D02*
X126378D01*
X111417Y68110D02*
X126378D01*
Y75197D01*
X111417Y68110D02*
Y75197D01*
X72047Y75591D02*
Y90551D01*
X79134Y75591D02*
Y90551D01*
X72047D02*
X79134D01*
X72047Y75591D02*
X79134D01*
X80315D02*
Y90551D01*
X87402Y75591D02*
Y90551D01*
X80315D02*
X87402D01*
X80315Y75591D02*
X87402D01*
X37402Y111024D02*
Y125984D01*
X30315Y111024D02*
Y125984D01*
Y111024D02*
X37402D01*
X30315Y125984D02*
X37402D01*
X127559Y84646D02*
Y99606D01*
X120472Y84646D02*
Y99606D01*
Y84646D02*
X127559D01*
X120472Y99606D02*
X127559D01*
X117717Y84646D02*
Y99606D01*
X110630Y84646D02*
Y99606D01*
Y84646D02*
X117717D01*
X110630Y99606D02*
X117717D01*
X145276Y57480D02*
Y72441D01*
X138189Y57480D02*
Y72441D01*
Y57480D02*
X145276D01*
X138189Y72441D02*
X145276D01*
X154331Y57480D02*
Y72441D01*
X147244Y57480D02*
Y72441D01*
Y57480D02*
X154331D01*
X147244Y72441D02*
X154331D01*
X77468Y108400D02*
Y123361D01*
X70382Y108400D02*
Y123361D01*
Y108400D02*
X77468D01*
X70382Y123361D02*
X77468D01*
X90945Y84646D02*
Y99606D01*
X98032Y84646D02*
Y99606D01*
X90945D02*
X98032D01*
X90945Y84646D02*
X98032D01*
X100000D02*
Y99606D01*
X107087Y84646D02*
Y99606D01*
X100000D02*
X107087D01*
X100000Y84646D02*
X107087D01*
X28346Y22343D02*
X43307D01*
X28346Y29429D02*
X43307D01*
X28346Y22343D02*
Y29429D01*
X43307Y22343D02*
Y29429D01*
X59055Y16535D02*
X74016D01*
X59055Y23622D02*
X74016D01*
X59055Y16535D02*
Y23622D01*
X74016Y16535D02*
Y23622D01*
X111417Y66929D02*
X126378D01*
X111417Y59842D02*
X126378D01*
Y66929D01*
X111417Y59842D02*
Y66929D01*
M02*
