G04*
G04 #@! TF.GenerationSoftware,Altium Limited,Altium Designer,21.9.2 (33)*
G04*
G04 Layer_Color=65535*
%FSLAX25Y25*%
%MOIN*%
G70*
G04*
G04 #@! TF.SameCoordinates,966C8154-A70F-4D01-A40B-C349B40C5DFB*
G04*
G04*
G04 #@! TF.FilePolarity,Positive*
G04*
G01*
G75*
%ADD10C,0.00787*%
%ADD11C,0.01575*%
%ADD12C,0.01000*%
%ADD13C,0.00600*%
%ADD14C,0.00996*%
%ADD15C,0.00598*%
D10*
X29429Y52953D02*
X29344Y53951D01*
X29092Y54920D01*
X28679Y55833D01*
X28118Y56663D01*
X27425Y57386D01*
X26620Y57981D01*
X25725Y58432D01*
X24768Y58726D01*
X23774Y58853D01*
X22773Y58810D01*
X21794Y58599D01*
X20865Y58226D01*
X20012Y57701D01*
X19260Y57039D01*
X18631Y56260D01*
X18142Y55385D01*
X17809Y54441D01*
X17639Y53454D01*
Y52452D01*
X17809Y51465D01*
X18142Y50520D01*
X18631Y49646D01*
X19260Y48867D01*
X20012Y48205D01*
X20865Y47680D01*
X21794Y47306D01*
X22773Y47095D01*
X23774Y47053D01*
X24768Y47180D01*
X25725Y47473D01*
X26620Y47924D01*
X27425Y48520D01*
X28118Y49243D01*
X28679Y50073D01*
X29092Y50985D01*
X29344Y51955D01*
X29429Y52953D01*
X111024Y118012D02*
X110630D01*
X111024D01*
X70382Y115881D02*
X74319D01*
X35335Y64370D02*
X35335Y41535D01*
X11713D02*
Y64370D01*
X18406Y40354D02*
X28642D01*
X18406Y65551D02*
X28642D01*
X29035Y118602D02*
X32972D01*
X117717Y122047D02*
X120079D01*
Y128740D01*
X89370Y122047D02*
Y128740D01*
Y137402D02*
Y140551D01*
X120079Y137402D02*
Y140551D01*
X89370D02*
X120079D01*
X89370Y122047D02*
X91732D01*
X61024Y105394D02*
X67027D01*
X93583Y6299D02*
X134606D01*
Y17323D01*
X96339D02*
X134606D01*
X93583Y6299D02*
Y17323D01*
X35827Y23917D02*
Y27854D01*
X12598Y106102D02*
X30315D01*
X12598Y82874D02*
Y106102D01*
Y82874D02*
X30315D01*
Y93110D01*
Y95866D02*
Y106102D01*
X51968Y83071D02*
X55905D01*
X61417D02*
X65354D01*
X92913Y93701D02*
X96850D01*
X83858D02*
X87795D01*
X139764Y64961D02*
X143701D01*
X148819Y64961D02*
X152756D01*
X122047Y92126D02*
X125984D01*
X135433Y106693D02*
Y110630D01*
X120472Y106693D02*
Y110630D01*
X118898Y61811D02*
Y65748D01*
X66240Y18012D02*
Y21949D01*
X70866Y83071D02*
X74803D01*
X92716Y34055D02*
Y58858D01*
X67913Y34055D02*
X92716D01*
X67913D02*
Y58858D01*
X92716D01*
X115157Y41929D02*
X125787D01*
Y50197D01*
X115157D02*
X125787D01*
X118898Y53150D02*
Y57087D01*
Y35039D02*
Y38976D01*
Y26772D02*
Y30709D01*
X112205Y92126D02*
X116142D01*
X133465Y83661D02*
Y87205D01*
X133661Y88583D02*
X145079D01*
Y93307D01*
X133661D02*
X145079D01*
X133661Y88583D02*
Y93307D01*
D11*
X96850Y64468D02*
X96306Y65217D01*
X95426Y64931D01*
Y64006D01*
X96306Y63720D01*
X96850Y64468D01*
D12*
X80658Y81012D02*
X79996D01*
X80658D01*
D13*
X112336Y83202D02*
X111680Y83858D01*
X110368D01*
X109712Y83202D01*
Y80578D01*
X110368Y79922D01*
X111680D01*
X112336Y80578D01*
X113648D02*
X114304Y79922D01*
X115616D01*
X116272Y80578D01*
Y83202D01*
X115616Y83858D01*
X114304D01*
X113648Y83202D01*
Y82546D01*
X114304Y81890D01*
X116272D01*
X28675Y110662D02*
X28019Y111318D01*
X26707D01*
X26051Y110662D01*
Y108038D01*
X26707Y107383D01*
X28019D01*
X28675Y108038D01*
X29987Y107383D02*
X31299D01*
X30643D01*
Y111318D01*
X29987Y110662D01*
X33267Y107383D02*
X34579D01*
X33923D01*
Y111318D01*
X33267Y110662D01*
X102855Y116863D02*
X102199Y117519D01*
X100887D01*
X100231Y116863D01*
Y114239D01*
X100887Y113583D01*
X102199D01*
X102855Y114239D01*
X104167Y113583D02*
Y117519D01*
X106791Y113583D01*
Y117519D01*
X108103Y113583D02*
X109415D01*
X108759D01*
Y117519D01*
X108103Y116863D01*
X65486Y14698D02*
X64830Y15354D01*
X63518D01*
X62862Y14698D01*
Y12074D01*
X63518Y11418D01*
X64830D01*
X65486Y12074D01*
X69421Y11418D02*
X66798D01*
X69421Y14042D01*
Y14698D01*
X68766Y15354D01*
X67454D01*
X66798Y14698D01*
X158465Y72508D02*
Y75132D01*
Y73820D01*
X162401D01*
Y76444D02*
X158465D01*
Y78412D01*
X159121Y79068D01*
X160433D01*
X161089Y78412D01*
Y76444D01*
X158465Y83004D02*
Y80380D01*
X160433D01*
X159777Y81692D01*
Y82348D01*
X160433Y83004D01*
X161745D01*
X162401Y82348D01*
Y81036D01*
X161745Y80380D01*
X158465Y85303D02*
Y87927D01*
Y86615D01*
X162401D01*
Y89239D02*
X158465D01*
Y91207D01*
X159121Y91863D01*
X160433D01*
X161089Y91207D01*
Y89239D01*
X162401Y95143D02*
X158465D01*
X160433Y93175D01*
Y95799D01*
X158465Y99083D02*
Y101707D01*
Y100395D01*
X162401D01*
Y103019D02*
X158465D01*
Y104987D01*
X159121Y105643D01*
X160433D01*
X161089Y104987D01*
Y103019D01*
X159121Y106955D02*
X158465Y107610D01*
Y108922D01*
X159121Y109578D01*
X159777D01*
X160433Y108922D01*
Y108266D01*
Y108922D01*
X161089Y109578D01*
X161745D01*
X162401Y108922D01*
Y107610D01*
X161745Y106955D01*
X48426Y40815D02*
Y43439D01*
Y42127D01*
X52362D01*
Y44751D02*
X48426D01*
Y46719D01*
X49082Y47375D01*
X50394D01*
X51050Y46719D01*
Y44751D01*
X52362Y51311D02*
Y48687D01*
X49738Y51311D01*
X49082D01*
X48426Y50655D01*
Y49343D01*
X49082Y48687D01*
X48820Y56432D02*
Y59056D01*
Y57744D01*
X52755D01*
Y60368D02*
X48820D01*
Y62335D01*
X49475Y62991D01*
X50787D01*
X51443Y62335D01*
Y60368D01*
X52755Y64303D02*
Y65615D01*
Y64959D01*
X48820D01*
X49475Y64303D01*
X35171Y87401D02*
X33859D01*
X34515D01*
Y84121D01*
X33859Y83465D01*
X33203D01*
X32547Y84121D01*
X39107Y83465D02*
X36483D01*
X39107Y86089D01*
Y86745D01*
X38451Y87401D01*
X37139D01*
X36483Y86745D01*
X88583Y13779D02*
X87271D01*
X87927D01*
Y10499D01*
X87271Y9843D01*
X86615D01*
X85959Y10499D01*
X89895Y9843D02*
X91207D01*
X90551D01*
Y13779D01*
X89895Y13123D01*
X132219Y117454D02*
X131563Y118110D01*
X130251D01*
X129595Y117454D01*
Y116798D01*
X130251Y116142D01*
X131563D01*
X132219Y115486D01*
Y114830D01*
X131563Y114174D01*
X130251D01*
X129595Y114830D01*
X133531Y118110D02*
Y114174D01*
X135498D01*
X136154Y114830D01*
Y115486D01*
X135498Y116142D01*
X133531D01*
X135498D01*
X136154Y116798D01*
Y117454D01*
X135498Y118110D01*
X133531D01*
X140090D02*
X137466D01*
Y116142D01*
X138778Y116798D01*
X139434D01*
X140090Y116142D01*
Y114830D01*
X139434Y114174D01*
X138122D01*
X137466Y114830D01*
X61812Y94619D02*
X61156Y95275D01*
X59844D01*
X59188Y94619D01*
Y93963D01*
X59844Y93307D01*
X61156D01*
X61812Y92651D01*
Y91995D01*
X61156Y91339D01*
X59844D01*
X59188Y91995D01*
X63124Y95275D02*
Y91339D01*
X65091D01*
X65747Y91995D01*
Y92651D01*
X65091Y93307D01*
X63124D01*
X65091D01*
X65747Y93963D01*
Y94619D01*
X65091Y95275D01*
X63124D01*
X67059Y91339D02*
X68371D01*
X67715D01*
Y95275D01*
X67059Y94619D01*
X87534Y74803D02*
X90158Y70867D01*
Y74803D02*
X87534Y70867D01*
X91469D02*
X92781D01*
X92125D01*
Y74803D01*
X91469Y74147D01*
X38944Y34843D02*
X38288Y34187D01*
Y32875D01*
X38944Y32219D01*
X39600D01*
X40256Y32875D01*
Y34187D01*
X40912Y34843D01*
X41568D01*
X42224Y34187D01*
Y32875D01*
X41568Y32219D01*
X38288Y36155D02*
X42224D01*
X40912Y37467D01*
X42224Y38779D01*
X38288D01*
X42224Y40091D02*
Y41403D01*
Y40747D01*
X38288D01*
X38944Y40091D01*
X117455Y117454D02*
X116799Y118110D01*
X115487D01*
X114831Y117454D01*
Y116798D01*
X115487Y116142D01*
X116799D01*
X117455Y115486D01*
Y114830D01*
X116799Y114174D01*
X115487D01*
X114831Y114830D01*
X118767Y118110D02*
Y114174D01*
X120735D01*
X121391Y114830D01*
Y115486D01*
X120735Y116142D01*
X118767D01*
X120735D01*
X121391Y116798D01*
Y117454D01*
X120735Y118110D01*
X118767D01*
X124670Y114174D02*
Y118110D01*
X122703Y116142D01*
X125326D01*
X49345Y94619D02*
X48689Y95275D01*
X47377D01*
X46721Y94619D01*
Y93963D01*
X47377Y93307D01*
X48689D01*
X49345Y92651D01*
Y91995D01*
X48689Y91339D01*
X47377D01*
X46721Y91995D01*
X50657Y95275D02*
Y91339D01*
X52624D01*
X53280Y91995D01*
Y92651D01*
X52624Y93307D01*
X50657D01*
X52624D01*
X53280Y93963D01*
Y94619D01*
X52624Y95275D01*
X50657D01*
X57216Y91339D02*
X54592D01*
X57216Y93963D01*
Y94619D01*
X56560Y95275D01*
X55248D01*
X54592Y94619D01*
X129266Y30052D02*
X128610Y30708D01*
X127298D01*
X126642Y30052D01*
Y29396D01*
X127298Y28740D01*
X128610D01*
X129266Y28084D01*
Y27428D01*
X128610Y26772D01*
X127298D01*
X126642Y27428D01*
X130578Y30708D02*
Y26772D01*
X132546D01*
X133202Y27428D01*
Y28084D01*
X132546Y28740D01*
X130578D01*
X132546D01*
X133202Y29396D01*
Y30052D01*
X132546Y30708D01*
X130578D01*
X134514Y30052D02*
X135170Y30708D01*
X136481D01*
X137137Y30052D01*
Y29396D01*
X136481Y28740D01*
X135826D01*
X136481D01*
X137137Y28084D01*
Y27428D01*
X136481Y26772D01*
X135170D01*
X134514Y27428D01*
X127035Y53150D02*
Y57086D01*
X129003D01*
X129659Y56430D01*
Y55118D01*
X129003Y54462D01*
X127035D01*
X128347D02*
X129659Y53150D01*
X133595D02*
X130971D01*
X133595Y55774D01*
Y56430D01*
X132939Y57086D01*
X131627D01*
X130971Y56430D01*
X126510Y34646D02*
Y38582D01*
X128478D01*
X129134Y37926D01*
Y36614D01*
X128478Y35958D01*
X126510D01*
X127822D02*
X129134Y34646D01*
X130446D02*
X131758D01*
X131102D01*
Y38582D01*
X130446Y37926D01*
X126905Y48031D02*
Y44095D01*
X129529D01*
X133465Y48031D02*
X130841D01*
Y44095D01*
X133465D01*
X130841Y46063D02*
X132153D01*
X134776Y48031D02*
Y44095D01*
X136744D01*
X137400Y44751D01*
Y47375D01*
X136744Y48031D01*
X134776D01*
X138712Y44095D02*
X140024D01*
X139368D01*
Y48031D01*
X138712Y47375D01*
X71392Y95275D02*
Y91339D01*
X74016D01*
X75328D02*
X76640D01*
X75984D01*
Y95275D01*
X75328Y94619D01*
X135238Y81102D02*
X136550D01*
X135894D01*
Y77166D01*
X135238D01*
X136550D01*
X141141Y80446D02*
X140486Y81102D01*
X139174D01*
X138518Y80446D01*
Y77822D01*
X139174Y77166D01*
X140486D01*
X141141Y77822D01*
X145077Y77166D02*
X142453D01*
X145077Y79790D01*
Y80446D01*
X144421Y81102D01*
X143109D01*
X142453Y80446D01*
X40553Y104133D02*
X41865D01*
X41209D01*
Y100198D01*
X40553D01*
X41865D01*
X46456Y103477D02*
X45800Y104133D01*
X44488D01*
X43832Y103477D01*
Y100853D01*
X44488Y100198D01*
X45800D01*
X46456Y100853D01*
X47768Y103477D02*
X48424Y104133D01*
X49736D01*
X50392Y103477D01*
Y102821D01*
X49736Y102165D01*
X49080D01*
X49736D01*
X50392Y101509D01*
Y100853D01*
X49736Y100198D01*
X48424D01*
X47768Y100853D01*
X60303Y72047D02*
X61615D01*
X60959D01*
Y68111D01*
X60303D01*
X61615D01*
X66207Y71391D02*
X65551Y72047D01*
X64239D01*
X63583Y71391D01*
Y68767D01*
X64239Y68111D01*
X65551D01*
X66207Y68767D01*
X67519Y68111D02*
X68831D01*
X68175D01*
Y72047D01*
X67519Y71391D01*
X121720Y83202D02*
X121064Y83858D01*
X119752D01*
X119096Y83202D01*
Y80578D01*
X119752Y79922D01*
X121064D01*
X121720Y80578D01*
X123032Y79922D02*
X124344D01*
X123688D01*
Y83858D01*
X123032Y83202D01*
X126312D02*
X126968Y83858D01*
X128279D01*
X128935Y83202D01*
Y80578D01*
X128279Y79922D01*
X126968D01*
X126312Y80578D01*
Y83202D01*
X141076Y56430D02*
X140420Y57086D01*
X139109D01*
X138452Y56430D01*
Y53806D01*
X139109Y53150D01*
X140420D01*
X141076Y53806D01*
X142388Y56430D02*
X143044Y57086D01*
X144356D01*
X145012Y56430D01*
Y55774D01*
X144356Y55118D01*
X145012Y54462D01*
Y53806D01*
X144356Y53150D01*
X143044D01*
X142388Y53806D01*
Y54462D01*
X143044Y55118D01*
X142388Y55774D01*
Y56430D01*
X143044Y55118D02*
X144356D01*
X150131Y56430D02*
X149476Y57086D01*
X148164D01*
X147508Y56430D01*
Y53806D01*
X148164Y53150D01*
X149476D01*
X150131Y53806D01*
X151443Y57086D02*
X154067D01*
Y56430D01*
X151443Y53806D01*
Y53150D01*
X84777Y104068D02*
X84121Y104724D01*
X82809D01*
X82153Y104068D01*
Y101444D01*
X82809Y100788D01*
X84121D01*
X84777Y101444D01*
X88713Y104724D02*
X86089D01*
Y102756D01*
X87401Y103412D01*
X88057D01*
X88713Y102756D01*
Y101444D01*
X88057Y100788D01*
X86745D01*
X86089Y101444D01*
X93832Y104068D02*
X93176Y104724D01*
X91864D01*
X91208Y104068D01*
Y101444D01*
X91864Y100788D01*
X93176D01*
X93832Y101444D01*
X97112Y100788D02*
Y104724D01*
X95144Y102756D01*
X97768D01*
X34777Y20308D02*
X34121Y20964D01*
X32809D01*
X32153Y20308D01*
Y17684D01*
X32809Y17028D01*
X34121D01*
X34777Y17684D01*
X36089Y20308D02*
X36745Y20964D01*
X38057D01*
X38713Y20308D01*
Y19652D01*
X38057Y18996D01*
X37401D01*
X38057D01*
X38713Y18340D01*
Y17684D01*
X38057Y17028D01*
X36745D01*
X36089Y17684D01*
X71497Y108334D02*
X70841Y108990D01*
X69529D01*
X68874Y108334D01*
Y105710D01*
X69529Y105055D01*
X70841D01*
X71497Y105710D01*
X75433Y108990D02*
X74121Y108334D01*
X72809Y107022D01*
Y105710D01*
X73465Y105055D01*
X74777D01*
X75433Y105710D01*
Y106367D01*
X74777Y107022D01*
X72809D01*
X129528Y65485D02*
X128872Y66141D01*
X127560D01*
X126904Y65485D01*
Y62861D01*
X127560Y62205D01*
X128872D01*
X129528Y62861D01*
X130840Y62205D02*
X132151D01*
X131495D01*
Y66141D01*
X130840Y65485D01*
D14*
X36823Y136033D02*
Y130130D01*
X39775D01*
X40759Y131114D01*
Y135050D01*
X39775Y136033D01*
X36823D01*
X45678Y130130D02*
X43710D01*
X42726Y131114D01*
Y133082D01*
X43710Y134066D01*
X45678D01*
X46662Y133082D01*
Y132098D01*
X42726D01*
X52566Y134066D02*
X49614D01*
X48630Y133082D01*
Y131114D01*
X49614Y130130D01*
X52566D01*
X55518D02*
X57485D01*
X58469Y131114D01*
Y133082D01*
X57485Y134066D01*
X55518D01*
X54534Y133082D01*
Y131114D01*
X55518Y130130D01*
X60437Y136033D02*
Y130130D01*
X64373D01*
X70277Y136033D02*
X66341D01*
Y130130D01*
X70277D01*
X66341Y133082D02*
X68309D01*
X72244Y136033D02*
Y130130D01*
X75196D01*
X76180Y131114D01*
Y135050D01*
X75196Y136033D01*
X72244D01*
D15*
X32094Y6962D02*
Y4339D01*
Y5650D01*
X32750Y6306D01*
X33406Y6962D01*
X34062D01*
X37998Y4339D02*
X36686D01*
X36030Y4995D01*
Y6306D01*
X36686Y6962D01*
X37998D01*
X38654Y6306D01*
Y5650D01*
X36030D01*
X39966Y6962D02*
X41278Y4339D01*
X42590Y6962D01*
X47837Y4339D02*
X49149D01*
X48493D01*
Y8274D01*
X47837Y7618D01*
X51117Y4339D02*
Y4995D01*
X51773D01*
Y4339D01*
X51117D01*
X54397Y7618D02*
X55053Y8274D01*
X56365D01*
X57021Y7618D01*
Y4995D01*
X56365Y4339D01*
X55053D01*
X54397Y4995D01*
Y7618D01*
M02*
