G04*
G04 #@! TF.GenerationSoftware,Altium Limited,Altium Designer,21.9.2 (33)*
G04*
G04 Layer_Color=16711935*
%FSLAX25Y25*%
%MOIN*%
G70*
G04*
G04 #@! TF.SameCoordinates,966C8154-A70F-4D01-A40B-C349B40C5DFB*
G04*
G04*
G04 #@! TF.FilePolarity,Negative*
G04*
G01*
G75*
%ADD42C,0.23323*%
%ADD43C,0.08083*%
%ADD44C,0.05721*%
%ADD45R,0.06706X0.06706*%
%ADD46C,0.06706*%
%ADD47C,0.05131*%
%ADD48R,0.05131X0.05131*%
%ADD49C,0.02375*%
D42*
X151575Y15748D02*
D03*
Y125984D02*
D03*
X15748Y125984D02*
D03*
Y15748D02*
D03*
D43*
X118898Y133071D02*
D03*
X90551D02*
D03*
D44*
X95177Y122638D02*
D03*
X114272D02*
D03*
D45*
X99094Y11811D02*
D03*
D46*
X109095D02*
D03*
X119095D02*
D03*
X129095D02*
D03*
D47*
X23622Y90551D02*
D03*
D48*
Y98425D02*
D03*
D49*
X56693Y19685D02*
D03*
X79134Y119685D02*
D03*
X158465Y73819D02*
D03*
X21260Y37008D02*
D03*
X21654Y68898D02*
D03*
X40551Y74410D02*
D03*
X80020D02*
D03*
X36614Y118110D02*
D03*
X24705Y113779D02*
D03*
X79134Y112205D02*
D03*
X31004Y128150D02*
D03*
X39764Y19291D02*
D03*
X124016Y82677D02*
D03*
X114173D02*
D03*
X108661Y46063D02*
D03*
X128347Y55118D02*
D03*
X77165Y19685D02*
D03*
X72835Y93701D02*
D03*
X101181Y97244D02*
D03*
X79134D02*
D03*
X63484Y70669D02*
D03*
X128347Y63779D02*
D03*
X115354Y71260D02*
D03*
X88583Y11811D02*
D03*
X150787Y55512D02*
D03*
X141732D02*
D03*
X49311Y51378D02*
D03*
X139370Y80315D02*
D03*
X131890Y101969D02*
D03*
X139075Y91339D02*
D03*
X117028Y102067D02*
D03*
M02*
