G04*
G04 #@! TF.GenerationSoftware,Altium Limited,Altium Designer,21.9.2 (33)*
G04*
G04 Layer_Physical_Order=1*
G04 Layer_Color=255*
%FSLAX25Y25*%
%MOIN*%
G70*
G04*
G04 #@! TF.SameCoordinates,966C8154-A70F-4D01-A40B-C349B40C5DFB*
G04*
G04*
G04 #@! TF.FilePolarity,Positive*
G04*
G01*
G75*
%ADD16R,0.05512X0.03937*%
%ADD17R,0.05512X0.06693*%
%ADD18R,0.01575X0.05512*%
%ADD19R,0.09409X0.09409*%
%ADD20R,0.06004X0.02559*%
%ADD21R,0.03937X0.05512*%
G04:AMPARAMS|DCode=22|XSize=60mil|YSize=60mil|CornerRadius=15mil|HoleSize=0mil|Usage=FLASHONLY|Rotation=90.000|XOffset=0mil|YOffset=0mil|HoleType=Round|Shape=RoundedRectangle|*
%AMROUNDEDRECTD22*
21,1,0.06000,0.03000,0,0,90.0*
21,1,0.03000,0.06000,0,0,90.0*
1,1,0.03000,0.01500,0.01500*
1,1,0.03000,0.01500,-0.01500*
1,1,0.03000,-0.01500,-0.01500*
1,1,0.03000,-0.01500,0.01500*
%
%ADD22ROUNDEDRECTD22*%
G04:AMPARAMS|DCode=23|XSize=60mil|YSize=60mil|CornerRadius=15mil|HoleSize=0mil|Usage=FLASHONLY|Rotation=0.000|XOffset=0mil|YOffset=0mil|HoleType=Round|Shape=RoundedRectangle|*
%AMROUNDEDRECTD23*
21,1,0.06000,0.03000,0,0,0.0*
21,1,0.03000,0.06000,0,0,0.0*
1,1,0.03000,0.01500,-0.01500*
1,1,0.03000,-0.01500,-0.01500*
1,1,0.03000,-0.01500,0.01500*
1,1,0.03000,0.01500,0.01500*
%
%ADD23ROUNDEDRECTD23*%
%ADD24R,0.02362X0.05807*%
%ADD25R,0.05807X0.02362*%
%ADD26R,0.04331X0.07480*%
%ADD27R,0.03543X0.05512*%
%ADD28R,0.02362X0.03543*%
%ADD50C,0.01500*%
%ADD51C,0.01968*%
%ADD52C,0.06000*%
%ADD53C,0.07284*%
%ADD54C,0.04921*%
%ADD55R,0.05906X0.05906*%
%ADD56C,0.05906*%
%ADD57C,0.04331*%
%ADD58R,0.04331X0.04331*%
%ADD59C,0.01575*%
G36*
X154497Y140674D02*
X156389Y140167D01*
X158199Y139417D01*
X159896Y138437D01*
X161450Y137245D01*
X162835Y135860D01*
X164028Y134305D01*
X165007Y132609D01*
X165757Y130798D01*
X166264Y128906D01*
X166520Y126964D01*
Y125984D01*
Y15748D01*
Y14769D01*
X166264Y12826D01*
X165757Y10934D01*
X165007Y9124D01*
X164028Y7427D01*
X162835Y5873D01*
X161450Y4487D01*
X159896Y3295D01*
X158199Y2315D01*
X156389Y1565D01*
X154497Y1058D01*
X152554Y803D01*
X14769D01*
X12826Y1058D01*
X10934Y1565D01*
X9124Y2315D01*
X7427Y3295D01*
X5873Y4487D01*
X4487Y5873D01*
X3295Y7427D01*
X2315Y9124D01*
X1565Y10934D01*
X1058Y12826D01*
X803Y14769D01*
Y15748D01*
Y125984D01*
Y126964D01*
X1058Y128906D01*
X1565Y130798D01*
X2315Y132609D01*
X3295Y134305D01*
X4487Y135859D01*
X5873Y137245D01*
X7427Y138437D01*
X9124Y139417D01*
X10934Y140167D01*
X12826Y140674D01*
X14769Y140929D01*
X152554D01*
X154497Y140674D01*
D02*
G37*
%LPC*%
G36*
X152358Y138696D02*
X150796D01*
X150744Y138686D01*
X150690Y138689D01*
X149141Y138485D01*
X149090Y138468D01*
X149037Y138464D01*
X147528Y138060D01*
X147480Y138036D01*
X147427Y138026D01*
X145984Y137428D01*
X145939Y137398D01*
X145888Y137381D01*
X144535Y136600D01*
X144495Y136564D01*
X144447Y136540D01*
X143208Y135590D01*
X143172Y135549D01*
X143127Y135519D01*
X142023Y134415D01*
X141993Y134370D01*
X141953Y134335D01*
X141002Y133095D01*
X140978Y133047D01*
X140942Y133007D01*
X140161Y131654D01*
X140144Y131603D01*
X140114Y131558D01*
X139516Y130115D01*
X139506Y130062D01*
X139482Y130014D01*
X139078Y128505D01*
X139074Y128452D01*
X139057Y128401D01*
X138853Y126852D01*
X138857Y126798D01*
X138846Y126746D01*
Y125965D01*
Y125184D01*
X138857Y125131D01*
X138853Y125077D01*
X139057Y123529D01*
X139074Y123478D01*
X139078Y123424D01*
X139482Y121915D01*
X139506Y121867D01*
X139516Y121814D01*
X140104Y120396D01*
X140134Y120351D01*
X140151Y120300D01*
X140901Y119002D01*
X140936Y118961D01*
X140960Y118913D01*
X141615Y118059D01*
X124114D01*
X123619Y117961D01*
X114927D01*
X113672Y119216D01*
X113816Y119177D01*
X114727D01*
X115607Y119413D01*
X116396Y119869D01*
X117041Y120513D01*
X117496Y121302D01*
X117586Y121638D01*
X114272D01*
Y122638D01*
X113272D01*
Y125952D01*
X112936Y125863D01*
X112147Y125407D01*
X111503Y124763D01*
X111430Y124637D01*
Y126194D01*
X101394D01*
Y126394D01*
X100606D01*
Y126194D01*
X100578D01*
Y122638D01*
Y119082D01*
X100606D01*
Y118882D01*
X101394D01*
Y119082D01*
X108660D01*
X112887Y114855D01*
X112887Y114855D01*
X113477Y114461D01*
X114173Y114322D01*
X122196D01*
Y112217D01*
X121247D01*
Y105105D01*
X126784D01*
Y112217D01*
X125835D01*
Y114421D01*
X140880D01*
X149698Y105603D01*
Y102831D01*
X149877Y101933D01*
X150385Y101172D01*
X151146Y100664D01*
X152043Y100486D01*
X155043D01*
X155941Y100664D01*
X156702Y101172D01*
X157210Y101933D01*
X157388Y102831D01*
Y105831D01*
X157210Y106728D01*
X156702Y107489D01*
X155941Y107997D01*
X155043Y108176D01*
X152271D01*
X145782Y114665D01*
X145846Y114628D01*
X145897Y114610D01*
X145942Y114580D01*
X147385Y113983D01*
X147438Y113972D01*
X147486Y113948D01*
X148995Y113544D01*
X149049Y113541D01*
X149100Y113523D01*
X150648Y113319D01*
X150702Y113323D01*
X150755Y113312D01*
X152317D01*
X152370Y113323D01*
X152423Y113319D01*
X153972Y113523D01*
X154023Y113541D01*
X154077Y113544D01*
X155585Y113948D01*
X155633Y113972D01*
X155686Y113983D01*
X157129Y114580D01*
X157174Y114610D01*
X157225Y114628D01*
X158578Y115409D01*
X158618Y115444D01*
X158667Y115468D01*
X159906Y116419D01*
X159941Y116459D01*
X159986Y116489D01*
X161090Y117594D01*
X161120Y117638D01*
X161161Y117674D01*
X162112Y118913D01*
X162135Y118961D01*
X162171Y119002D01*
X162952Y120354D01*
X162969Y120405D01*
X162999Y120450D01*
X163597Y121893D01*
X163607Y121946D01*
X163631Y121994D01*
X164035Y123503D01*
X164039Y123557D01*
X164056Y123608D01*
X164260Y125156D01*
X164257Y125210D01*
X164267Y125263D01*
Y126044D01*
Y126825D01*
X164257Y126877D01*
X164260Y126931D01*
X164056Y128480D01*
X164039Y128531D01*
X164035Y128584D01*
X163631Y130093D01*
X163607Y130141D01*
X163597Y130194D01*
X163009Y131613D01*
X162979Y131658D01*
X162962Y131709D01*
X162212Y133007D01*
X162177Y133047D01*
X162153Y133095D01*
X161202Y134335D01*
X161162Y134370D01*
X161132Y134415D01*
X160028Y135519D01*
X159983Y135549D01*
X159947Y135590D01*
X158708Y136540D01*
X158660Y136564D01*
X158619Y136600D01*
X157267Y137381D01*
X157216Y137398D01*
X157171Y137428D01*
X155728Y138026D01*
X155675Y138036D01*
X155627Y138060D01*
X154118Y138464D01*
X154064Y138468D01*
X154013Y138485D01*
X152465Y138689D01*
X152411Y138686D01*
X152358Y138696D01*
D02*
G37*
G36*
X16568Y138578D02*
X15006D01*
X14953Y138568D01*
X14900Y138571D01*
X13351Y138367D01*
X13300Y138350D01*
X13246Y138346D01*
X11738Y137942D01*
X11689Y137918D01*
X11637Y137908D01*
X10193Y137310D01*
X10149Y137280D01*
X10098Y137263D01*
X8745Y136482D01*
X8705Y136446D01*
X8656Y136423D01*
X7417Y135472D01*
X7382Y135431D01*
X7337Y135401D01*
X6233Y134297D01*
X6202Y134252D01*
X6162Y134217D01*
X5211Y132977D01*
X5187Y132929D01*
X5152Y132889D01*
X4371Y131536D01*
X4354Y131485D01*
X4324Y131440D01*
X3726Y129997D01*
X3715Y129945D01*
X3692Y129896D01*
X3288Y128387D01*
X3284Y128334D01*
X3267Y128283D01*
X3063Y126734D01*
X3066Y126681D01*
X3056Y126628D01*
Y125847D01*
Y125066D01*
X3066Y125013D01*
X3063Y124959D01*
X3267Y123411D01*
X3284Y123360D01*
X3288Y123306D01*
X3669Y121882D01*
X3693Y121834D01*
X3703Y121781D01*
X4287Y120371D01*
X4317Y120326D01*
X4335Y120275D01*
X5116Y118923D01*
X5151Y118882D01*
X5175Y118834D01*
X6126Y117595D01*
X6166Y117559D01*
X6196Y117515D01*
X7300Y116410D01*
X7345Y116380D01*
X7381Y116340D01*
X8620Y115389D01*
X8668Y115365D01*
X8709Y115330D01*
X10061Y114549D01*
X10112Y114531D01*
X10157Y114502D01*
X11600Y113904D01*
X11653Y113893D01*
X11701Y113870D01*
X13210Y113465D01*
X13264Y113462D01*
X13315Y113444D01*
X14863Y113241D01*
X14917Y113244D01*
X14970Y113233D01*
X16532D01*
X16584Y113244D01*
X16638Y113241D01*
X18187Y113444D01*
X18238Y113462D01*
X18291Y113465D01*
X19800Y113870D01*
X19848Y113893D01*
X19901Y113904D01*
X21344Y114502D01*
X21389Y114531D01*
X21440Y114549D01*
X22793Y115330D01*
X22833Y115365D01*
X22881Y115389D01*
X24121Y116340D01*
X24156Y116380D01*
X24201Y116410D01*
X25305Y117515D01*
X25335Y117559D01*
X25376Y117595D01*
X26326Y118834D01*
X26350Y118882D01*
X26386Y118923D01*
X27167Y120275D01*
X27184Y120326D01*
X27214Y120371D01*
X27417Y120862D01*
X27448Y120908D01*
Y119377D01*
X34560D01*
Y121232D01*
X38867D01*
Y120972D01*
X46471D01*
Y125131D01*
X38867D01*
Y124870D01*
X34560D01*
Y124914D01*
X32823D01*
Y128150D01*
X32685Y128846D01*
X32290Y129436D01*
X31700Y129830D01*
X31004Y129969D01*
X30308Y129830D01*
X29718Y129436D01*
X29323Y128846D01*
X29185Y128150D01*
Y124914D01*
X28453D01*
X28475Y125077D01*
X28471Y125131D01*
X28482Y125184D01*
Y125965D01*
Y126746D01*
X28471Y126798D01*
X28475Y126852D01*
X28271Y128401D01*
X28254Y128452D01*
X28250Y128505D01*
X27869Y129929D01*
X27845Y129978D01*
X27834Y130030D01*
X27250Y131440D01*
X27220Y131485D01*
X27203Y131536D01*
X26422Y132889D01*
X26387Y132929D01*
X26363Y132977D01*
X25412Y134217D01*
X25372Y134252D01*
X25342Y134297D01*
X24237Y135401D01*
X24192Y135431D01*
X24157Y135472D01*
X22918Y136423D01*
X22870Y136446D01*
X22829Y136482D01*
X21476Y137263D01*
X21425Y137280D01*
X21381Y137310D01*
X19938Y137908D01*
X19885Y137918D01*
X19837Y137942D01*
X18328Y138346D01*
X18274Y138350D01*
X18223Y138367D01*
X16675Y138571D01*
X16621Y138568D01*
X16568Y138578D01*
D02*
G37*
G36*
X119898Y137608D02*
Y134071D01*
X123435D01*
X123223Y134862D01*
X122612Y135921D01*
X121748Y136785D01*
X120689Y137396D01*
X119898Y137608D01*
D02*
G37*
G36*
X91551D02*
Y134071D01*
X95089D01*
X94877Y134862D01*
X94266Y135921D01*
X93401Y136785D01*
X92343Y137396D01*
X91551Y137608D01*
D02*
G37*
G36*
X89551D02*
X88759Y137396D01*
X87701Y136785D01*
X86837Y135921D01*
X86226Y134862D01*
X86014Y134071D01*
X89551D01*
Y137608D01*
D02*
G37*
G36*
X117898D02*
X117106Y137396D01*
X116048Y136785D01*
X115183Y135921D01*
X114572Y134862D01*
X114360Y134071D01*
X117898D01*
Y137608D01*
D02*
G37*
G36*
X123435Y132071D02*
X119898D01*
Y128533D01*
X120689Y128745D01*
X121748Y129357D01*
X122612Y130221D01*
X123223Y131279D01*
X123435Y132071D01*
D02*
G37*
G36*
X95089D02*
X91551D01*
Y128533D01*
X92343Y128745D01*
X93401Y129357D01*
X94266Y130221D01*
X94877Y131279D01*
X95089Y132071D01*
D02*
G37*
G36*
X89551D02*
X86014D01*
X86226Y131279D01*
X86837Y130221D01*
X87701Y129357D01*
X88759Y128745D01*
X89551Y128533D01*
Y132071D01*
D02*
G37*
G36*
X117898D02*
X114360D01*
X114572Y131279D01*
X115183Y130221D01*
X116048Y129357D01*
X117106Y128745D01*
X117898Y128533D01*
Y132071D01*
D02*
G37*
G36*
X98606Y126394D02*
X97819D01*
Y124890D01*
X97302Y125407D01*
X96513Y125863D01*
X96177Y125953D01*
Y122638D01*
Y119323D01*
X96513Y119413D01*
X97302Y119869D01*
X97819Y120386D01*
Y118882D01*
X98606D01*
Y122638D01*
Y126394D01*
D02*
G37*
G36*
X115272Y125953D02*
Y123638D01*
X117586D01*
X117496Y123974D01*
X117041Y124763D01*
X116396Y125407D01*
X115607Y125863D01*
X115272Y125953D01*
D02*
G37*
G36*
X94177D02*
X93841Y125863D01*
X93052Y125407D01*
X92408Y124763D01*
X91952Y123974D01*
X91862Y123638D01*
X94177D01*
Y125953D01*
D02*
G37*
G36*
X46471Y120131D02*
X38867D01*
Y119870D01*
X36911D01*
X36614Y119930D01*
X35918Y119791D01*
X35328Y119397D01*
X34933Y118806D01*
X34795Y118110D01*
X34933Y117414D01*
X35328Y116824D01*
X35387Y116765D01*
X35387Y116765D01*
X35977Y116370D01*
X36673Y116232D01*
X38867D01*
Y115972D01*
X46471D01*
Y120131D01*
D02*
G37*
G36*
X94177Y121638D02*
X91862D01*
X91952Y121302D01*
X92408Y120513D01*
X93052Y119869D01*
X93841Y119413D01*
X94177Y119323D01*
Y121638D01*
D02*
G37*
G36*
X67826Y125131D02*
X60222D01*
Y120972D01*
X64143D01*
X64319Y120937D01*
X64319Y120937D01*
X67477D01*
X68794Y119620D01*
Y117486D01*
X68546D01*
X67826Y118207D01*
Y120131D01*
X60222D01*
Y115972D01*
X65591D01*
X66432Y115131D01*
X60222D01*
Y113060D01*
X58851Y111689D01*
Y121056D01*
X47842D01*
Y110047D01*
X57208D01*
X52820Y105658D01*
X52477Y105145D01*
X52357Y104540D01*
Y89383D01*
X50381D01*
Y83846D01*
X57493D01*
Y89383D01*
X55517D01*
Y103886D01*
X60022Y108390D01*
Y105772D01*
X63024D01*
Y108051D01*
X64024D01*
D01*
X63024D01*
Y110331D01*
X61962D01*
X62603Y110972D01*
X67826D01*
Y114338D01*
X67892Y114325D01*
X68594D01*
Y113337D01*
X72350D01*
X76106D01*
Y114325D01*
X80582D01*
X81490Y113417D01*
Y110497D01*
X62268Y91275D01*
X61926Y90762D01*
X61805Y90158D01*
Y89383D01*
X59830D01*
Y83846D01*
X66942D01*
Y89383D01*
X64966D01*
Y89503D01*
X84188Y108725D01*
X84531Y109238D01*
X84651Y109843D01*
Y114071D01*
X84531Y114676D01*
X84188Y115189D01*
X82354Y117023D01*
X81841Y117366D01*
X81237Y117486D01*
X75906D01*
Y117866D01*
X79134D01*
X79830Y118004D01*
X80420Y118399D01*
X80815Y118989D01*
X80953Y119685D01*
X80815Y120381D01*
X80420Y120971D01*
X79830Y121366D01*
X79134Y121504D01*
X75906D01*
Y122193D01*
X71367D01*
X69517Y124042D01*
X68927Y124437D01*
X68231Y124575D01*
X68231Y124575D01*
X67826D01*
Y125131D01*
D02*
G37*
G36*
X34760Y118027D02*
X32004D01*
Y116059D01*
X34760D01*
Y118027D01*
D02*
G37*
G36*
X30004D02*
X27248D01*
Y116059D01*
X30004D01*
Y118027D01*
D02*
G37*
G36*
X46671Y115331D02*
X43669D01*
Y114051D01*
X46671D01*
Y115331D01*
D02*
G37*
G36*
X41669D02*
X38667D01*
Y114051D01*
X41669D01*
Y115331D01*
D02*
G37*
G36*
X34760Y114059D02*
X32004D01*
Y112091D01*
X34760D01*
Y114059D01*
D02*
G37*
G36*
X30004D02*
X27248D01*
Y112091D01*
X30004D01*
Y114059D01*
D02*
G37*
G36*
X46671Y112051D02*
X43669D01*
Y110772D01*
X46671D01*
Y112051D01*
D02*
G37*
G36*
X41669D02*
X38667D01*
Y110772D01*
X41669D01*
Y112051D01*
D02*
G37*
G36*
X76106Y111337D02*
X73350D01*
Y109369D01*
X76106D01*
Y111337D01*
D02*
G37*
G36*
X71350D02*
X68594D01*
Y109369D01*
X71350D01*
Y111337D01*
D02*
G37*
G36*
X68026Y110331D02*
X65024D01*
Y109051D01*
X68026D01*
Y110331D01*
D02*
G37*
G36*
Y107051D02*
X65024D01*
Y105772D01*
X68026D01*
Y107051D01*
D02*
G37*
G36*
X119698Y112217D02*
X114161D01*
Y105105D01*
X115194D01*
Y102081D01*
X115332Y101385D01*
X115727Y100795D01*
X116317Y100400D01*
X117013Y100262D01*
X117709Y100400D01*
X118300Y100795D01*
X118694Y101385D01*
X118833Y102081D01*
Y105105D01*
X119698D01*
Y112217D01*
D02*
G37*
G36*
X134658D02*
X129121D01*
Y105105D01*
X130071D01*
Y101969D01*
X130209Y101272D01*
X130603Y100682D01*
X131194Y100288D01*
X131890Y100149D01*
X132586Y100288D01*
X133176Y100682D01*
X133571Y101272D01*
X133709Y101969D01*
Y105105D01*
X134658D01*
Y112217D01*
D02*
G37*
G36*
X93882Y100213D02*
X91126D01*
Y98244D01*
X93882D01*
Y100213D01*
D02*
G37*
G36*
X89583D02*
X86827D01*
Y98244D01*
X89583D01*
Y100213D01*
D02*
G37*
G36*
X26587Y101391D02*
X20657D01*
Y95460D01*
X26587D01*
Y101391D01*
D02*
G37*
G36*
X98638Y100213D02*
X95882D01*
Y97244D01*
Y94276D01*
X98638D01*
Y95664D01*
X101181D01*
X101786Y95784D01*
X102299Y96127D01*
X102641Y96639D01*
X102761Y97244D01*
X102641Y97849D01*
X102299Y98362D01*
X101786Y98704D01*
X101181Y98825D01*
X98638D01*
Y100213D01*
D02*
G37*
G36*
X93882Y96244D02*
X91126D01*
Y94276D01*
X93882D01*
Y96244D01*
D02*
G37*
G36*
X89583D02*
X86827D01*
Y94276D01*
X89583D01*
Y96244D01*
D02*
G37*
G36*
X84827Y100213D02*
X82071D01*
Y98825D01*
X79134D01*
X78529Y98704D01*
X78016Y98362D01*
X77674Y97849D01*
X77553Y97244D01*
X77674Y96639D01*
X78016Y96127D01*
X78529Y95784D01*
X79134Y95664D01*
X82071D01*
Y94276D01*
X84827D01*
Y97244D01*
Y100213D01*
D02*
G37*
G36*
X145091Y99028D02*
X141129D01*
Y93885D01*
X145091D01*
Y99028D01*
D02*
G37*
G36*
X46471Y110131D02*
X38867D01*
Y105972D01*
X40799D01*
Y103608D01*
X29561Y92370D01*
X25996D01*
X25995Y92372D01*
X25443Y92924D01*
X24767Y93314D01*
X24012Y93516D01*
X23232D01*
X22478Y93314D01*
X21801Y92924D01*
X21249Y92372D01*
X20859Y91696D01*
X20657Y90942D01*
Y90161D01*
X20859Y89407D01*
X21249Y88730D01*
X21801Y88178D01*
X22478Y87788D01*
X23232Y87586D01*
X24012D01*
X24767Y87788D01*
X25443Y88178D01*
X25995Y88730D01*
X25996Y88732D01*
X30315D01*
X30315Y88732D01*
X31011Y88871D01*
X31601Y89265D01*
X43905Y101568D01*
X43905Y101568D01*
X44299Y102158D01*
X44437Y102854D01*
Y105972D01*
X46471D01*
Y110131D01*
D02*
G37*
G36*
X117929Y91551D02*
X115173D01*
Y89583D01*
X117929D01*
Y91551D01*
D02*
G37*
G36*
X113173D02*
X110417D01*
Y89583D01*
X113173D01*
Y91551D01*
D02*
G37*
G36*
X127772Y91551D02*
X125016D01*
Y89583D01*
X127772D01*
Y91551D01*
D02*
G37*
G36*
X123016D02*
X120260D01*
Y89583D01*
X123016D01*
Y91551D01*
D02*
G37*
G36*
X141745Y112217D02*
X136208D01*
Y105105D01*
X137157D01*
Y101147D01*
X135038Y99028D01*
X133649D01*
Y97250D01*
X127572D01*
Y98438D01*
X120460D01*
Y97250D01*
X117729D01*
Y98438D01*
X110617D01*
Y92901D01*
X117729D01*
Y94089D01*
X120460D01*
Y92901D01*
X127572D01*
Y94089D01*
X133649D01*
Y93885D01*
X137611D01*
Y95986D01*
X137646Y96161D01*
Y96491D01*
X140263Y99107D01*
X140263Y99107D01*
X140657Y99698D01*
X140796Y100394D01*
X140796Y100394D01*
Y105105D01*
X141745D01*
Y107081D01*
X142160D01*
X146353Y102889D01*
Y97146D01*
X146473Y96541D01*
X146816Y96028D01*
X149716Y93127D01*
X149698Y93035D01*
Y90035D01*
X149877Y89138D01*
X150385Y88377D01*
X151146Y87869D01*
X152043Y87690D01*
X155043D01*
X155941Y87869D01*
X156702Y88377D01*
X157210Y89138D01*
X157388Y90035D01*
Y93035D01*
X157210Y93933D01*
X156702Y94694D01*
X155941Y95202D01*
X155043Y95381D01*
X152043D01*
X151952Y95362D01*
X149513Y97800D01*
Y103543D01*
X149393Y104148D01*
X149051Y104661D01*
X143932Y109779D01*
X143420Y110122D01*
X142815Y110242D01*
X141745D01*
Y112217D01*
D02*
G37*
G36*
X127772Y87583D02*
X125016D01*
Y85614D01*
X127772D01*
Y87583D01*
D02*
G37*
G36*
X123016D02*
X120260D01*
Y85614D01*
X123016D01*
Y87583D01*
D02*
G37*
G36*
X117929Y87583D02*
X115173D01*
Y85614D01*
X117929D01*
Y87583D01*
D02*
G37*
G36*
X113173D02*
X110417D01*
Y85614D01*
X113173D01*
Y87583D01*
D02*
G37*
G36*
X73150Y95288D02*
X72519D01*
X71935Y95047D01*
X71489Y94600D01*
X71247Y94016D01*
Y93385D01*
X71254Y93368D01*
Y89383D01*
X69279D01*
Y83846D01*
X76390D01*
Y89383D01*
X74415D01*
Y93368D01*
X74422Y93385D01*
Y94016D01*
X74180Y94600D01*
X73734Y95047D01*
X73150Y95288D01*
D02*
G37*
G36*
X155043Y82789D02*
X154543D01*
Y79740D01*
X157592D01*
Y80240D01*
X157398Y81216D01*
X156846Y82043D01*
X156019Y82595D01*
X155043Y82789D01*
D02*
G37*
G36*
X152543D02*
X152043D01*
X151068Y82595D01*
X150241Y82043D01*
X149688Y81216D01*
X149494Y80240D01*
Y79740D01*
X152543D01*
Y82789D01*
D02*
G37*
G36*
X157592Y77740D02*
X154543D01*
Y74691D01*
X155043D01*
X156019Y74885D01*
X156846Y75438D01*
X157398Y76265D01*
X157592Y77240D01*
Y77740D01*
D02*
G37*
G36*
X152543D02*
X149494D01*
Y77240D01*
X149688Y76265D01*
X150241Y75438D01*
X151068Y74885D01*
X152043Y74691D01*
X152543D01*
Y77740D01*
D02*
G37*
G36*
X40867Y75997D02*
X40235D01*
X40218Y75990D01*
X37303D01*
X36698Y75870D01*
X36186Y75527D01*
X33703Y73044D01*
X28826D01*
Y64751D01*
X30801D01*
Y41154D01*
X28826D01*
Y32861D01*
X30703D01*
Y29442D01*
X29515D01*
Y22330D01*
X35052D01*
Y29442D01*
X33864D01*
Y32861D01*
X35938D01*
Y41154D01*
X33962D01*
Y64751D01*
X35938D01*
Y70809D01*
X37958Y72829D01*
X40218D01*
X40235Y72822D01*
X40867D01*
X41450Y73064D01*
X41897Y73510D01*
X42139Y74094D01*
Y74725D01*
X41897Y75309D01*
X41450Y75755D01*
X40867Y75997D01*
D02*
G37*
G36*
X98438Y92926D02*
X91326D01*
Y87389D01*
X93498D01*
Y84855D01*
X92113D01*
Y78010D01*
X87072Y72968D01*
X86729Y72455D01*
X86718Y72401D01*
Y75775D01*
X88202D01*
Y84855D01*
X86817D01*
Y87389D01*
X89383D01*
Y92926D01*
X82271D01*
Y87389D01*
X83656D01*
Y84855D01*
X82271D01*
Y75775D01*
X83557D01*
Y66845D01*
X83470D01*
Y72519D01*
X83350Y73124D01*
X83007Y73637D01*
X81387Y75257D01*
X81365Y75309D01*
X80919Y75755D01*
X80335Y75997D01*
X79704D01*
X79120Y75755D01*
X78674Y75309D01*
X78432Y74725D01*
Y74094D01*
X78559Y73788D01*
X78560Y73784D01*
X78562Y73781D01*
X78674Y73510D01*
X78882Y73303D01*
X78902Y73272D01*
X80309Y71864D01*
Y68905D01*
X80200Y69454D01*
X79858Y69967D01*
X74415Y75410D01*
Y76759D01*
X76390D01*
Y82296D01*
X69279D01*
Y76759D01*
X71254D01*
Y74755D01*
X71272Y74663D01*
X66942Y78994D01*
Y82296D01*
X59830D01*
Y76759D01*
X61904D01*
Y71002D01*
X61897Y70985D01*
Y70354D01*
X62138Y69770D01*
X62585Y69324D01*
X63169Y69082D01*
X63800D01*
X64383Y69324D01*
X64830Y69770D01*
X65072Y70354D01*
Y70985D01*
X65065Y71002D01*
Y76401D01*
X73825Y67641D01*
Y66845D01*
X67310D01*
Y64722D01*
X58591D01*
X55517Y67796D01*
Y76759D01*
X57493D01*
Y82296D01*
X50381D01*
Y76759D01*
X52357D01*
Y67141D01*
X52477Y66536D01*
X52820Y66023D01*
X55701Y63142D01*
X54770Y62210D01*
X47924D01*
X47761Y63027D01*
X47253Y63788D01*
X46492Y64297D01*
X45594Y64475D01*
X42595D01*
X41697Y64297D01*
X40936Y63788D01*
X40428Y63027D01*
X40249Y62130D01*
Y59130D01*
X40428Y58232D01*
X40936Y57472D01*
X41697Y56963D01*
X42595Y56785D01*
X45594D01*
X46492Y56963D01*
X47253Y57472D01*
X47761Y58232D01*
X47924Y59049D01*
X55424D01*
X56029Y59170D01*
X56542Y59512D01*
X58591Y61561D01*
X67310D01*
Y59461D01*
X59926D01*
Y55499D01*
Y52350D01*
Y49200D01*
Y46050D01*
Y42901D01*
Y39751D01*
Y37614D01*
X59726D01*
Y36433D01*
X67533D01*
Y37614D01*
X67334D01*
Y39751D01*
Y42901D01*
Y46050D01*
Y49200D01*
Y52350D01*
Y55499D01*
Y59438D01*
X93097D01*
Y58480D01*
X96000D01*
Y59661D01*
X93320D01*
Y61561D01*
X112586D01*
Y60224D01*
X118123D01*
Y67335D01*
X116935D01*
Y70927D01*
X116942Y70944D01*
Y71576D01*
X116700Y72159D01*
X116253Y72606D01*
X115670Y72847D01*
X115039D01*
X114455Y72606D01*
X114009Y72159D01*
X113767Y71576D01*
Y70944D01*
X113774Y70927D01*
Y67335D01*
X112586D01*
Y64722D01*
X93320D01*
Y66845D01*
X89769D01*
Y71196D01*
X94348Y75775D01*
X98044D01*
Y84855D01*
X96659D01*
Y87389D01*
X98438D01*
Y92926D01*
D02*
G37*
G36*
X158465Y75399D02*
X158465D01*
X157860Y75279D01*
X157347Y74936D01*
X157004Y74424D01*
X156884Y73819D01*
X157004Y73214D01*
X157347Y72701D01*
X157860Y72359D01*
X158465Y72238D01*
X158465D01*
X159069Y72359D01*
X159582Y72701D01*
X159925Y73214D01*
X160045Y73819D01*
X159925Y74424D01*
X159582Y74936D01*
X159069Y75279D01*
X158465Y75399D01*
D02*
G37*
G36*
X18421Y73244D02*
X15665D01*
Y69898D01*
X18421D01*
Y73244D01*
D02*
G37*
G36*
X13665D02*
X10909D01*
Y69898D01*
X13665D01*
Y73244D01*
D02*
G37*
G36*
X139075Y93158D02*
X138379Y93019D01*
X137788Y92625D01*
X137749Y92566D01*
X137690Y92527D01*
X134540Y89377D01*
X134146Y88787D01*
X134008Y88090D01*
X134008Y88090D01*
Y88005D01*
X133649D01*
Y82861D01*
X137189D01*
Y82661D01*
X138370D01*
Y85433D01*
X140370D01*
Y82661D01*
X141530D01*
Y75295D01*
Y71272D01*
X138176D01*
Y65735D01*
X145288D01*
Y71272D01*
X144691D01*
Y73616D01*
X147278D01*
X149207Y71688D01*
Y71272D01*
X147231D01*
Y65735D01*
X154343D01*
Y71272D01*
X152368D01*
Y72342D01*
X152248Y72947D01*
X151905Y73460D01*
X149051Y76314D01*
X148538Y76657D01*
X147933Y76777D01*
X144691D01*
Y82861D01*
X145091D01*
Y88005D01*
X144632D01*
X144594Y88196D01*
X144200Y88786D01*
X144200Y88786D01*
X140361Y92625D01*
X139771Y93019D01*
X139075Y93158D01*
D02*
G37*
G36*
X125409Y67535D02*
X123441D01*
Y64780D01*
X125409D01*
Y67535D01*
D02*
G37*
G36*
X121441D02*
X119472D01*
Y64780D01*
X121441D01*
Y67535D01*
D02*
G37*
G36*
X18421Y67898D02*
X15665D01*
Y64551D01*
X18421D01*
Y67898D01*
D02*
G37*
G36*
X13665D02*
X10909D01*
Y64551D01*
X13665D01*
Y67898D01*
D02*
G37*
G36*
X145488Y64386D02*
X142732D01*
Y62417D01*
X145488D01*
Y64386D01*
D02*
G37*
G36*
X140732D02*
X137976D01*
Y62417D01*
X140732D01*
Y64386D01*
D02*
G37*
G36*
X154543Y64386D02*
X151787D01*
Y62417D01*
X154543D01*
Y64386D01*
D02*
G37*
G36*
X149787D02*
X147031D01*
Y62417D01*
X149787D01*
Y64386D01*
D02*
G37*
G36*
X125409Y62779D02*
X123441D01*
Y60024D01*
X125409D01*
Y62779D01*
D02*
G37*
G36*
X121441D02*
X119472D01*
Y60024D01*
X121441D01*
Y62779D01*
D02*
G37*
G36*
X100903Y59661D02*
X98000D01*
Y58480D01*
X100903D01*
Y59661D01*
D02*
G37*
G36*
X154543Y60417D02*
X151787D01*
Y58449D01*
X154543D01*
Y60417D01*
D02*
G37*
G36*
X149787D02*
X147031D01*
Y58449D01*
X149787D01*
Y60417D01*
D02*
G37*
G36*
X145488Y60417D02*
X142732D01*
Y58449D01*
X145488D01*
Y60417D01*
D02*
G37*
G36*
X140732D02*
X137976D01*
Y58449D01*
X140732D01*
Y60417D01*
D02*
G37*
G36*
X121441Y58874D02*
X119473D01*
Y56118D01*
X121441D01*
Y58874D01*
D02*
G37*
G36*
X118123Y58674D02*
X112586D01*
Y55911D01*
X100903D01*
Y56480D01*
X93097D01*
Y55299D01*
X93296D01*
Y52350D01*
Y49200D01*
Y46050D01*
Y42901D01*
Y39751D01*
Y36602D01*
Y33475D01*
X67533D01*
Y34433D01*
X64630D01*
Y33252D01*
X67310D01*
Y26068D01*
X67957D01*
Y23536D01*
X67015D01*
Y16424D01*
X72552D01*
Y18105D01*
X76833D01*
X76850Y18098D01*
X77481D01*
X78065Y18339D01*
X78511Y18786D01*
X78753Y19369D01*
Y20001D01*
X78511Y20584D01*
X78065Y21031D01*
X77481Y21272D01*
X76850D01*
X76833Y21265D01*
X72552D01*
Y23536D01*
X71118D01*
Y26068D01*
X86609D01*
Y22539D01*
X86729Y21935D01*
X87072Y21422D01*
X90171Y18323D01*
X90684Y17980D01*
X91288Y17860D01*
X100811D01*
X105558Y13113D01*
X105342Y12305D01*
Y11317D01*
X105597Y10362D01*
X106091Y9507D01*
X106790Y8808D01*
X107646Y8314D01*
X108600Y8058D01*
X109589D01*
X110543Y8314D01*
X111399Y8808D01*
X112097Y9507D01*
X112592Y10362D01*
X112847Y11317D01*
Y12305D01*
X112592Y13260D01*
X112097Y14115D01*
X111399Y14814D01*
X110543Y15308D01*
X109589Y15564D01*
X108600D01*
X107793Y15347D01*
X102583Y20558D01*
X102070Y20900D01*
X101465Y21020D01*
X91943D01*
X89769Y23194D01*
Y26068D01*
X93320D01*
Y28191D01*
X100479D01*
X115558Y13113D01*
X115342Y12305D01*
Y11317D01*
X115597Y10362D01*
X116092Y9507D01*
X116790Y8808D01*
X117646Y8314D01*
X118600Y8058D01*
X119589D01*
X120543Y8314D01*
X121399Y8808D01*
X122097Y9507D01*
X122591Y10362D01*
X122847Y11317D01*
Y12305D01*
X122591Y13260D01*
X122097Y14115D01*
X121399Y14814D01*
X120543Y15308D01*
X119589Y15564D01*
X118600D01*
X117793Y15347D01*
X102251Y30889D01*
X101739Y31232D01*
X101134Y31352D01*
X93320D01*
Y33452D01*
X100704D01*
Y36602D01*
Y37002D01*
X105645D01*
X112586Y30061D01*
Y25184D01*
X118123D01*
Y31217D01*
X119673Y29667D01*
Y25184D01*
X125209D01*
Y32296D01*
X121514D01*
X120358Y33452D01*
X125209D01*
Y40564D01*
X124120D01*
Y42507D01*
X125209D01*
Y49619D01*
X120066D01*
Y42507D01*
X120959D01*
Y40564D01*
X119673D01*
Y34137D01*
X118123Y35687D01*
Y40564D01*
X112586D01*
Y34531D01*
X107417Y39700D01*
X106904Y40043D01*
X106299Y40163D01*
X100704D01*
Y42901D01*
Y46050D01*
Y49200D01*
Y52350D01*
Y52750D01*
X112586D01*
Y51562D01*
X118123D01*
Y58674D01*
D02*
G37*
G36*
X125409Y58874D02*
X123441D01*
Y55118D01*
Y51362D01*
X125409D01*
Y53538D01*
X128347D01*
X128951Y53658D01*
X129464Y54001D01*
X129806Y54513D01*
X129927Y55118D01*
X129806Y55723D01*
X129464Y56236D01*
X128951Y56578D01*
X128347Y56699D01*
X125409D01*
Y58874D01*
D02*
G37*
G36*
X121441Y54118D02*
X119473D01*
Y51362D01*
X121441D01*
Y54118D01*
D02*
G37*
G36*
X49627Y52965D02*
X48995D01*
X48412Y52724D01*
X47965Y52277D01*
X47889Y52092D01*
X45686Y49890D01*
X45594Y49908D01*
X42595D01*
X41697Y49730D01*
X40936Y49221D01*
X40428Y48460D01*
X40249Y47563D01*
Y44563D01*
X40428Y43666D01*
X40936Y42905D01*
X41697Y42396D01*
X42595Y42218D01*
X45594D01*
X46492Y42396D01*
X47253Y42905D01*
X47761Y43666D01*
X47940Y44563D01*
Y47563D01*
X47921Y47655D01*
X50330Y50064D01*
X50508Y50330D01*
X50657Y50479D01*
X50898Y51062D01*
Y51694D01*
X50657Y52277D01*
X50210Y52724D01*
X49627Y52965D01*
D02*
G37*
G36*
X117929Y49819D02*
X116157D01*
Y47063D01*
X117929D01*
Y49819D01*
D02*
G37*
G36*
X114157D02*
X112386D01*
Y47063D01*
X114157D01*
Y49819D01*
D02*
G37*
G36*
X117929Y45063D02*
X116157D01*
Y42307D01*
X117929D01*
Y45063D01*
D02*
G37*
G36*
X114157D02*
X112386D01*
Y42307D01*
X114157D01*
Y45063D01*
D02*
G37*
G36*
X18421Y41354D02*
X15665D01*
Y38008D01*
X18421D01*
Y41354D01*
D02*
G37*
G36*
X13665D02*
X10909D01*
Y38008D01*
X13665D01*
Y41354D01*
D02*
G37*
G36*
X62630Y34433D02*
X59726D01*
Y33252D01*
X62630D01*
Y34433D01*
D02*
G37*
G36*
X18421Y36008D02*
X15665D01*
Y32661D01*
X18421D01*
Y36008D01*
D02*
G37*
G36*
X13665D02*
X10909D01*
Y32661D01*
X13665D01*
Y36008D01*
D02*
G37*
G36*
X16532Y28460D02*
X14970D01*
X14917Y28449D01*
X14863Y28453D01*
X13315Y28249D01*
X13264Y28232D01*
X13210Y28228D01*
X11701Y27824D01*
X11653Y27800D01*
X11600Y27790D01*
X10157Y27192D01*
X10112Y27162D01*
X10061Y27145D01*
X8709Y26364D01*
X8668Y26328D01*
X8620Y26304D01*
X7381Y25353D01*
X7345Y25313D01*
X7300Y25283D01*
X6196Y24179D01*
X6166Y24134D01*
X6126Y24098D01*
X5175Y22859D01*
X5151Y22811D01*
X5116Y22771D01*
X4335Y21418D01*
X4317Y21367D01*
X4287Y21322D01*
X3690Y19879D01*
X3679Y19826D01*
X3655Y19778D01*
X3251Y18269D01*
X3247Y18215D01*
X3230Y18165D01*
X3026Y16616D01*
X3030Y16562D01*
X3019Y16510D01*
Y15729D01*
Y14947D01*
X3030Y14895D01*
X3026Y14841D01*
X3230Y13293D01*
X3247Y13241D01*
X3251Y13188D01*
X3655Y11679D01*
X3679Y11631D01*
X3690Y11578D01*
X4287Y10135D01*
X4317Y10090D01*
X4335Y10039D01*
X5105Y8704D01*
X5141Y8664D01*
X5165Y8615D01*
X6084Y7417D01*
X6125Y7382D01*
X6154Y7337D01*
X7259Y6233D01*
X7304Y6202D01*
X7339Y6162D01*
X8578Y5211D01*
X8627Y5187D01*
X8667Y5152D01*
X10020Y4371D01*
X10071Y4354D01*
X10115Y4324D01*
X11558Y3726D01*
X11611Y3715D01*
X11660Y3692D01*
X13168Y3288D01*
X13222Y3284D01*
X13273Y3267D01*
X14822Y3063D01*
X14875Y3066D01*
X14928Y3056D01*
X16490D01*
X16543Y3066D01*
X16597Y3063D01*
X18145Y3267D01*
X18196Y3284D01*
X18250Y3288D01*
X19759Y3692D01*
X19807Y3716D01*
X19860Y3726D01*
X21303Y4324D01*
X21347Y4354D01*
X21398Y4371D01*
X22751Y5152D01*
X22791Y5187D01*
X22840Y5211D01*
X24079Y6162D01*
X24114Y6202D01*
X24159Y6233D01*
X25264Y7337D01*
X25293Y7382D01*
X25334Y7417D01*
X26285Y8656D01*
X26309Y8705D01*
X26344Y8745D01*
X27125Y10098D01*
X27142Y10149D01*
X27172Y10193D01*
X27770Y11637D01*
X27781Y11689D01*
X27804Y11738D01*
X28209Y13246D01*
X28212Y13300D01*
X28229Y13351D01*
X28433Y14900D01*
X28430Y14953D01*
X28440Y15006D01*
Y15787D01*
Y16568D01*
X28430Y16621D01*
X28433Y16675D01*
X28229Y18223D01*
X28212Y18274D01*
X28209Y18328D01*
X27804Y19837D01*
X27781Y19885D01*
X27770Y19938D01*
X27172Y21381D01*
X27142Y21425D01*
X27125Y21476D01*
X26354Y22812D01*
X26319Y22852D01*
X26295Y22900D01*
X25376Y24098D01*
X25335Y24134D01*
X25305Y24179D01*
X24201Y25283D01*
X24156Y25313D01*
X24121Y25353D01*
X22881Y26304D01*
X22833Y26328D01*
X22793Y26364D01*
X21440Y27145D01*
X21389Y27162D01*
X21344Y27192D01*
X19901Y27790D01*
X19848Y27800D01*
X19800Y27824D01*
X18291Y28228D01*
X18238Y28232D01*
X18187Y28249D01*
X16638Y28453D01*
X16584Y28449D01*
X16532Y28460D01*
D02*
G37*
G36*
X152317Y28440D02*
X150755D01*
X150702Y28430D01*
X150648Y28433D01*
X149100Y28229D01*
X149049Y28212D01*
X148995Y28209D01*
X147486Y27804D01*
X147438Y27781D01*
X147385Y27770D01*
X145970Y27184D01*
X145925Y27154D01*
X145874Y27136D01*
X144535Y26364D01*
X144495Y26328D01*
X144447Y26304D01*
X143208Y25353D01*
X143172Y25313D01*
X143127Y25283D01*
X142023Y24179D01*
X141993Y24134D01*
X141953Y24098D01*
X141002Y22859D01*
X140978Y22811D01*
X140942Y22771D01*
X140161Y21418D01*
X140144Y21367D01*
X140114Y21322D01*
X139516Y19879D01*
X139506Y19826D01*
X139482Y19778D01*
X139078Y18269D01*
X139074Y18215D01*
X139057Y18165D01*
X138853Y16616D01*
X138857Y16562D01*
X138846Y16510D01*
Y15729D01*
Y14947D01*
X138857Y14895D01*
X138853Y14841D01*
X139057Y13293D01*
X139074Y13241D01*
X139078Y13188D01*
X139482Y11679D01*
X139506Y11631D01*
X139516Y11578D01*
X140114Y10135D01*
X140144Y10090D01*
X140161Y10039D01*
X140942Y8687D01*
X140978Y8646D01*
X141002Y8598D01*
X141953Y7359D01*
X141993Y7323D01*
X142023Y7278D01*
X143127Y6174D01*
X143172Y6144D01*
X143208Y6104D01*
X144447Y5153D01*
X144495Y5129D01*
X144535Y5094D01*
X145888Y4312D01*
X145939Y4295D01*
X145984Y4265D01*
X147427Y3667D01*
X147480Y3657D01*
X147528Y3633D01*
X149037Y3229D01*
X149090Y3226D01*
X149141Y3208D01*
X150690Y3004D01*
X150744Y3008D01*
X150796Y2997D01*
X152358D01*
X152411Y3008D01*
X152465Y3004D01*
X154013Y3208D01*
X154064Y3226D01*
X154118Y3229D01*
X155627Y3633D01*
X155675Y3657D01*
X155728Y3667D01*
X157143Y4254D01*
X157188Y4284D01*
X157239Y4301D01*
X158578Y5074D01*
X158618Y5109D01*
X158667Y5133D01*
X159906Y6084D01*
X159941Y6125D01*
X159986Y6154D01*
X161090Y7259D01*
X161120Y7304D01*
X161161Y7339D01*
X162112Y8578D01*
X162135Y8627D01*
X162171Y8667D01*
X162952Y10020D01*
X162969Y10071D01*
X162999Y10115D01*
X163597Y11558D01*
X163607Y11611D01*
X163631Y11660D01*
X164035Y13168D01*
X164039Y13222D01*
X164056Y13273D01*
X164260Y14822D01*
X164257Y14875D01*
X164267Y14928D01*
Y15709D01*
Y16490D01*
X164257Y16543D01*
X164260Y16597D01*
X164056Y18145D01*
X164039Y18196D01*
X164035Y18250D01*
X163631Y19759D01*
X163607Y19807D01*
X163597Y19860D01*
X162999Y21303D01*
X162969Y21347D01*
X162952Y21398D01*
X162171Y22751D01*
X162135Y22791D01*
X162112Y22840D01*
X161161Y24079D01*
X161120Y24114D01*
X161090Y24159D01*
X159986Y25264D01*
X159941Y25293D01*
X159906Y25334D01*
X158667Y26285D01*
X158618Y26309D01*
X158578Y26344D01*
X157225Y27125D01*
X157174Y27142D01*
X157129Y27172D01*
X155686Y27770D01*
X155633Y27781D01*
X155585Y27804D01*
X154077Y28209D01*
X154023Y28212D01*
X153972Y28229D01*
X152423Y28433D01*
X152370Y28430D01*
X152317Y28440D01*
D02*
G37*
G36*
X42339Y29642D02*
X40370D01*
Y26886D01*
X42339D01*
Y29642D01*
D02*
G37*
G36*
X38370D02*
X36402D01*
Y26886D01*
X38370D01*
Y29642D01*
D02*
G37*
G36*
X42339Y24886D02*
X40370D01*
Y22130D01*
X42339D01*
Y24886D01*
D02*
G37*
G36*
X38370D02*
X36402D01*
Y22130D01*
X38370D01*
Y24886D01*
D02*
G37*
G36*
X65665Y23736D02*
X63697D01*
Y20980D01*
X65665D01*
Y23736D01*
D02*
G37*
G36*
X61697D02*
X59728D01*
Y20980D01*
X61697D01*
Y23736D01*
D02*
G37*
G36*
X65665Y18980D02*
X63697D01*
Y16224D01*
X65665D01*
Y18980D01*
D02*
G37*
G36*
X61697D02*
X59728D01*
Y16224D01*
X61697D01*
Y18980D01*
D02*
G37*
G36*
X130095Y15635D02*
Y12811D01*
X132919D01*
X132778Y13337D01*
X132257Y14238D01*
X131521Y14974D01*
X130620Y15494D01*
X130095Y15635D01*
D02*
G37*
G36*
X128094D02*
X127569Y15494D01*
X126667Y14974D01*
X125932Y14238D01*
X125411Y13337D01*
X125270Y12811D01*
X128094D01*
Y15635D01*
D02*
G37*
G36*
X88898Y13398D02*
X88267D01*
X87683Y13157D01*
X87237Y12710D01*
X86995Y12127D01*
Y11495D01*
X87237Y10912D01*
X87683Y10465D01*
X88267Y10224D01*
X88898D01*
X89482Y10465D01*
X89928Y10912D01*
X90170Y11495D01*
Y12127D01*
X89928Y12710D01*
X89482Y13157D01*
X88898Y13398D01*
D02*
G37*
G36*
X102847Y15564D02*
X95342D01*
Y8058D01*
X102847D01*
Y15564D01*
D02*
G37*
G36*
X132919Y10811D02*
X130095D01*
Y7987D01*
X130620Y8128D01*
X131521Y8648D01*
X132257Y9384D01*
X132778Y10285D01*
X132919Y10811D01*
D02*
G37*
G36*
X128094D02*
X125270D01*
X125411Y10285D01*
X125932Y9384D01*
X126667Y8648D01*
X127569Y8128D01*
X128094Y7987D01*
Y10811D01*
D02*
G37*
%LPD*%
D16*
X72350Y119424D02*
D03*
Y112337D02*
D03*
X31004Y122146D02*
D03*
Y115059D02*
D03*
X53937Y79527D02*
D03*
Y86614D02*
D03*
X63386Y79527D02*
D03*
Y86614D02*
D03*
X94882Y90158D02*
D03*
Y97244D02*
D03*
X85827Y90158D02*
D03*
Y97244D02*
D03*
X141732Y61417D02*
D03*
Y68504D02*
D03*
X150787Y68504D02*
D03*
Y61417D02*
D03*
X124016Y95669D02*
D03*
Y88583D02*
D03*
X72835Y86614D02*
D03*
Y79527D02*
D03*
X114173Y95669D02*
D03*
Y88583D02*
D03*
D17*
X32382Y68898D02*
D03*
X14665D02*
D03*
X32382Y37008D02*
D03*
X14665D02*
D03*
D18*
X99606Y122638D02*
D03*
X102165D02*
D03*
X104724D02*
D03*
X107283D02*
D03*
X109843D02*
D03*
D19*
X53347Y115551D02*
D03*
D20*
X42669Y108051D02*
D03*
Y113051D02*
D03*
Y118051D02*
D03*
Y123051D02*
D03*
X64024D02*
D03*
Y118051D02*
D03*
Y113051D02*
D03*
Y108051D02*
D03*
D21*
X39370Y25886D02*
D03*
X32283D02*
D03*
X131890Y108661D02*
D03*
X138976D02*
D03*
X116929D02*
D03*
X124016D02*
D03*
X115354Y63779D02*
D03*
X122441D02*
D03*
X62697Y19980D02*
D03*
X69784D02*
D03*
X115354Y55118D02*
D03*
X122441D02*
D03*
Y37008D02*
D03*
X115354D02*
D03*
X122441Y28740D02*
D03*
X115354D02*
D03*
D22*
X153543Y78740D02*
D03*
Y104331D02*
D03*
Y91535D02*
D03*
X44094Y46063D02*
D03*
D23*
Y60630D02*
D03*
D24*
X91339Y63142D02*
D03*
X88189D02*
D03*
X85039D02*
D03*
X81890D02*
D03*
X78740D02*
D03*
X75590D02*
D03*
X72441D02*
D03*
X69291D02*
D03*
Y29772D02*
D03*
X72441D02*
D03*
X75590D02*
D03*
X78740D02*
D03*
X81890D02*
D03*
X85039D02*
D03*
X88189D02*
D03*
X91339D02*
D03*
D25*
X63630Y57480D02*
D03*
Y54331D02*
D03*
Y51181D02*
D03*
Y48031D02*
D03*
Y44882D02*
D03*
Y41732D02*
D03*
Y38583D02*
D03*
Y35433D02*
D03*
X97000D02*
D03*
Y38583D02*
D03*
Y41732D02*
D03*
Y44882D02*
D03*
Y48031D02*
D03*
Y51181D02*
D03*
Y54331D02*
D03*
Y57480D02*
D03*
D26*
X85236Y80315D02*
D03*
X95079D02*
D03*
D27*
X122638Y46063D02*
D03*
X115157D02*
D03*
D28*
X135630Y96457D02*
D03*
X143110D02*
D03*
Y85433D02*
D03*
X139370D02*
D03*
X135630D02*
D03*
D50*
X32382Y68898D02*
Y69488D01*
Y37008D02*
Y68898D01*
X81237Y115905D02*
X83071Y114071D01*
X67892Y115905D02*
X81237D01*
X65746Y118051D02*
X67892Y115905D01*
X63386Y90158D02*
X83071Y109843D01*
Y114071D01*
X63386Y86614D02*
Y90158D01*
X158465Y73819D02*
X158465D01*
X37303Y74410D02*
X40551D01*
X32382Y69488D02*
X37303Y74410D01*
X53937Y67141D02*
Y79527D01*
Y67141D02*
X57936Y63142D01*
X64173Y79527D02*
X75406Y68295D01*
X88189Y71850D02*
X95079Y78740D01*
Y80315D02*
Y89961D01*
Y78740D02*
Y80315D01*
X88189Y63142D02*
Y71850D01*
X75406Y63327D02*
X75590Y63142D01*
X75406Y63327D02*
Y68295D01*
X78740Y63142D02*
Y68849D01*
X81890Y63142D02*
Y72519D01*
X80020Y74389D02*
X81890Y72519D01*
X72835Y74755D02*
X78740Y68849D01*
X72835Y74755D02*
Y79527D01*
X80020Y74389D02*
Y74410D01*
X32283Y25886D02*
Y36909D01*
X32382Y37008D01*
X53937Y104540D02*
X62375Y112978D01*
X53937Y86614D02*
Y104540D01*
X64024Y118051D02*
X65746D01*
X135630Y96100D02*
Y96457D01*
X97000Y38583D02*
X106299D01*
X115354Y29528D01*
X122441Y55118D02*
X128347D01*
X88189Y22539D02*
Y29772D01*
Y22539D02*
X91288Y19440D01*
X69784Y19980D02*
X70079Y19685D01*
X77165D01*
X69537Y20226D02*
X69784Y19980D01*
X72835Y86614D02*
Y93701D01*
X72835Y86614D02*
X72835Y86614D01*
X94882Y97244D02*
X101181D01*
X79134D02*
X85827D01*
X63386Y79527D02*
X64173D01*
X57936Y63142D02*
X69291D01*
X55424Y60630D02*
X57936Y63142D01*
X63484Y70669D02*
Y79429D01*
X44094Y60630D02*
X55424D01*
X97000Y54331D02*
X114567D01*
X115354Y55118D01*
X115354Y63779D02*
Y71260D01*
X115354Y71260D01*
X129095Y11811D02*
X129120Y11836D01*
X122539Y37106D02*
Y45965D01*
X122638Y46063D01*
X122441Y37008D02*
X122539Y37106D01*
X49213Y51181D02*
Y51279D01*
X49311Y51378D01*
X44094Y46063D02*
X49213Y51181D01*
X44094Y46063D02*
X44094D01*
X44094D02*
Y46112D01*
X62301Y113051D02*
X64024D01*
X143110Y75295D02*
Y85433D01*
Y69722D02*
Y75295D01*
X143209Y75197D02*
X147933D01*
X143110Y75295D02*
X143209Y75197D01*
X150787Y68504D02*
Y72342D01*
X147933Y75197D02*
X150787Y72342D01*
X141892Y68504D02*
X143110Y69722D01*
X141732Y68504D02*
X141892D01*
X69291Y29772D02*
X69537Y29526D01*
Y20226D02*
Y29526D01*
X62697Y35002D02*
X63128Y35433D01*
X63630D01*
X91288Y19440D02*
X101465D01*
X109095Y11811D01*
X101134Y29772D02*
X119095Y11811D01*
X91339Y29772D02*
X101134D01*
X115354Y28740D02*
Y29528D01*
X120829Y30746D02*
X121222D01*
X122441Y28740D02*
Y29528D01*
X115354Y36220D02*
Y37008D01*
Y36220D02*
X120829Y30746D01*
X121222D02*
X122441Y29528D01*
X122441Y62992D02*
Y63779D01*
X114716Y63142D02*
X115354Y63779D01*
X91339Y63142D02*
X114716D01*
X85138Y63240D02*
Y80216D01*
X85039Y63142D02*
X85138Y63240D01*
Y80216D02*
X85236Y80315D01*
Y89567D02*
X85827Y90158D01*
X85236Y80315D02*
Y89567D01*
X94882Y90158D02*
X95079Y89961D01*
X114173Y88583D02*
X114173Y88583D01*
X147933Y97146D02*
Y103543D01*
Y97146D02*
X153543Y91535D01*
X124016Y95669D02*
X135199D01*
X135630Y96100D01*
X116929Y108661D02*
X117013Y108577D01*
Y102081D02*
X117028Y102067D01*
X124016Y95669D02*
X124016Y95669D01*
X114173Y95669D02*
X124016D01*
X142815Y108661D02*
X147933Y103543D01*
X138976Y108661D02*
X142815D01*
X124016Y116142D02*
X124114Y116240D01*
D51*
X72611Y119685D02*
X79134D01*
X72350Y119424D02*
X72611Y119685D01*
X64319Y122756D02*
X68231D01*
X64024Y123051D02*
X64319Y122756D01*
X68231D02*
X71563Y119424D01*
X72350D01*
X14665Y37008D02*
X14665Y37008D01*
X42618Y102854D02*
Y108071D01*
X36614Y118110D02*
X36673Y118051D01*
X42669D01*
X31004Y123051D02*
X42669D01*
X31004Y122146D02*
Y128150D01*
X31102Y114370D02*
X32480D01*
X64319Y108346D02*
X66194D01*
X64024Y108051D02*
X64319Y108346D01*
X109941Y120374D02*
X114173Y116142D01*
X124016D01*
X138976Y100394D02*
Y108661D01*
X135827Y97244D02*
X138976Y100394D01*
X135827Y96161D02*
Y97244D01*
X139075Y91339D02*
X142913Y87500D01*
Y85630D02*
Y87500D01*
Y85630D02*
X143110Y85433D01*
X135827Y88090D02*
X138976Y91240D01*
X135630Y85433D02*
X135827Y85630D01*
Y88090D01*
X23622Y90551D02*
X30315D01*
X42618Y102854D01*
X131890Y101969D02*
Y108661D01*
X117013Y102081D02*
Y108577D01*
X124114Y116240D02*
X141634D01*
X124016Y108661D02*
Y116142D01*
X141634Y116240D02*
X153543Y104331D01*
D52*
X151575Y15748D02*
D03*
Y125984D02*
D03*
X15748Y125984D02*
D03*
Y15748D02*
D03*
D53*
X118898Y133071D02*
D03*
X90551D02*
D03*
D54*
X95177Y122638D02*
D03*
X114272D02*
D03*
D55*
X99094Y11811D02*
D03*
D56*
X109095D02*
D03*
X119095D02*
D03*
X129095D02*
D03*
D57*
X23622Y90551D02*
D03*
D58*
Y98425D02*
D03*
D59*
X56693Y19685D02*
D03*
X79134Y119685D02*
D03*
X158465Y73819D02*
D03*
X21260Y37008D02*
D03*
X21654Y68898D02*
D03*
X40551Y74410D02*
D03*
X80020D02*
D03*
X36614Y118110D02*
D03*
X24705Y113779D02*
D03*
X79134Y112205D02*
D03*
X31004Y128150D02*
D03*
X39764Y19291D02*
D03*
X124016Y82677D02*
D03*
X114173D02*
D03*
X108661Y46063D02*
D03*
X128347Y55118D02*
D03*
X77165Y19685D02*
D03*
X72835Y93701D02*
D03*
X101181Y97244D02*
D03*
X79134D02*
D03*
X63484Y70669D02*
D03*
X128347Y63779D02*
D03*
X115354Y71260D02*
D03*
X88583Y11811D02*
D03*
X150787Y55512D02*
D03*
X141732D02*
D03*
X49311Y51378D02*
D03*
X139370Y80315D02*
D03*
X131890Y101969D02*
D03*
X139075Y91339D02*
D03*
X117028Y102067D02*
D03*
M02*
