G04*
G04 #@! TF.GenerationSoftware,Altium Limited,Altium Designer,22.3.1 (43)*
G04*
G04 Layer_Color=255*
%FSLAX25Y25*%
%MOIN*%
G70*
G04*
G04 #@! TF.SameCoordinates,8B7F2328-CF97-48C8-8425-EDDF2E2766CF*
G04*
G04*
G04 #@! TF.FilePolarity,Positive*
G04*
G01*
G75*
%ADD34R,0.05118X0.07480*%
G04:AMPARAMS|DCode=35|XSize=60mil|YSize=60mil|CornerRadius=15mil|HoleSize=0mil|Usage=FLASHONLY|Rotation=90.000|XOffset=0mil|YOffset=0mil|HoleType=Round|Shape=RoundedRectangle|*
%AMROUNDEDRECTD35*
21,1,0.06000,0.03000,0,0,90.0*
21,1,0.03000,0.06000,0,0,90.0*
1,1,0.03000,0.01500,0.01500*
1,1,0.03000,0.01500,-0.01500*
1,1,0.03000,-0.01500,-0.01500*
1,1,0.03000,-0.01500,0.01500*
%
%ADD35ROUNDEDRECTD35*%
G04:AMPARAMS|DCode=36|XSize=60mil|YSize=60mil|CornerRadius=15mil|HoleSize=0mil|Usage=FLASHONLY|Rotation=0.000|XOffset=0mil|YOffset=0mil|HoleType=Round|Shape=RoundedRectangle|*
%AMROUNDEDRECTD36*
21,1,0.06000,0.03000,0,0,0.0*
21,1,0.03000,0.06000,0,0,0.0*
1,1,0.03000,0.01500,-0.01500*
1,1,0.03000,-0.01500,-0.01500*
1,1,0.03000,-0.01500,0.01500*
1,1,0.03000,0.01500,0.01500*
%
%ADD36ROUNDEDRECTD36*%
%ADD37R,0.05512X0.06693*%
%ADD38R,0.05512X0.04724*%
%ADD39R,0.04724X0.05512*%
%ADD40R,0.09409X0.09409*%
%ADD41R,0.06791X0.02559*%
%ADD42R,0.02362X0.04331*%
%ADD43R,0.02362X0.06594*%
%ADD44R,0.06594X0.02362*%
%ADD45R,0.01575X0.07087*%
%ADD48C,0.06000*%
%ADD49R,0.04331X0.04331*%
%ADD50C,0.04331*%
%ADD51C,0.05906*%
%ADD52R,0.05906X0.05906*%
%ADD53C,0.07284*%
%ADD54C,0.04921*%
D34*
X104528Y78740D02*
D03*
X93898D02*
D03*
D35*
X153543D02*
D03*
Y91535D02*
D03*
Y104331D02*
D03*
X44094Y46063D02*
D03*
D36*
Y60630D02*
D03*
D37*
X14567Y37402D02*
D03*
X32283D02*
D03*
X14567Y69291D02*
D03*
X32283D02*
D03*
D38*
X33858Y102362D02*
D03*
Y93701D02*
D03*
X48819Y87402D02*
D03*
Y78740D02*
D03*
X58268Y87402D02*
D03*
Y78740D02*
D03*
X67323Y78740D02*
D03*
Y87402D02*
D03*
X75590Y78740D02*
D03*
Y87402D02*
D03*
X83858Y78740D02*
D03*
Y87402D02*
D03*
X33858Y122835D02*
D03*
Y114173D02*
D03*
X124016Y96457D02*
D03*
Y87795D02*
D03*
X114173Y96457D02*
D03*
Y87795D02*
D03*
X141732Y69291D02*
D03*
Y60630D02*
D03*
X150787Y69291D02*
D03*
Y60630D02*
D03*
X73925Y120211D02*
D03*
Y111550D02*
D03*
X94488Y87795D02*
D03*
Y96457D02*
D03*
X103543Y87795D02*
D03*
Y96457D02*
D03*
D39*
X139764Y108661D02*
D03*
X131102D02*
D03*
X124803D02*
D03*
X116142D02*
D03*
X114567Y28740D02*
D03*
X123228D02*
D03*
Y55118D02*
D03*
X114567D02*
D03*
X123228Y37008D02*
D03*
X114567D02*
D03*
X123228Y46063D02*
D03*
X114567D02*
D03*
Y71653D02*
D03*
X123228D02*
D03*
X40157Y25886D02*
D03*
X31496D02*
D03*
X70866Y20079D02*
D03*
X62205D02*
D03*
X114567Y63386D02*
D03*
X123228D02*
D03*
D40*
X53347Y115551D02*
D03*
D41*
X42276Y108051D02*
D03*
Y113051D02*
D03*
Y118051D02*
D03*
Y123051D02*
D03*
X64417D02*
D03*
Y118051D02*
D03*
Y113051D02*
D03*
Y108051D02*
D03*
D42*
X135630Y85039D02*
D03*
X139370D02*
D03*
X143110D02*
D03*
Y96850D02*
D03*
X135630D02*
D03*
D43*
X88189Y63535D02*
D03*
X85039D02*
D03*
X81890D02*
D03*
X78740D02*
D03*
X75590D02*
D03*
X72441D02*
D03*
X69291D02*
D03*
Y29378D02*
D03*
X72441D02*
D03*
X75590D02*
D03*
X78740D02*
D03*
X81890D02*
D03*
X85039D02*
D03*
X88189D02*
D03*
X91339D02*
D03*
Y63535D02*
D03*
D44*
X63236Y57480D02*
D03*
Y54331D02*
D03*
Y51181D02*
D03*
Y48031D02*
D03*
Y44882D02*
D03*
Y41732D02*
D03*
Y38583D02*
D03*
Y35433D02*
D03*
X97394D02*
D03*
Y38583D02*
D03*
Y41732D02*
D03*
Y44882D02*
D03*
Y48031D02*
D03*
Y51181D02*
D03*
Y54331D02*
D03*
Y57480D02*
D03*
D45*
X99606Y121850D02*
D03*
X102165D02*
D03*
X109843D02*
D03*
X107283D02*
D03*
X104724D02*
D03*
D48*
X15748Y125984D02*
D03*
Y15748D02*
D03*
X151575Y15748D02*
D03*
Y125984D02*
D03*
D49*
X21654Y96850D02*
D03*
D50*
Y88976D02*
D03*
D51*
X110551Y13386D02*
D03*
X130551D02*
D03*
X120551D02*
D03*
X100551D02*
D03*
D52*
X90551D02*
D03*
D53*
X118898Y133071D02*
D03*
X90551D02*
D03*
D54*
X95177Y122638D02*
D03*
X114272D02*
D03*
M02*
