G04*
G04 #@! TF.GenerationSoftware,Altium Limited,Altium Designer,22.3.1 (43)*
G04*
G04 Layer_Color=8388736*
%FSLAX25Y25*%
%MOIN*%
G70*
G04*
G04 #@! TF.SameCoordinates,8B7F2328-CF97-48C8-8425-EDDF2E2766CF*
G04*
G04*
G04 #@! TF.FilePolarity,Negative*
G04*
G01*
G75*
%ADD15R,0.05918X0.08280*%
G04:AMPARAMS|DCode=16|XSize=68mil|YSize=68mil|CornerRadius=19mil|HoleSize=0mil|Usage=FLASHONLY|Rotation=90.000|XOffset=0mil|YOffset=0mil|HoleType=Round|Shape=RoundedRectangle|*
%AMROUNDEDRECTD16*
21,1,0.06800,0.03000,0,0,90.0*
21,1,0.03000,0.06800,0,0,90.0*
1,1,0.03800,0.01500,0.01500*
1,1,0.03800,0.01500,-0.01500*
1,1,0.03800,-0.01500,-0.01500*
1,1,0.03800,-0.01500,0.01500*
%
%ADD16ROUNDEDRECTD16*%
G04:AMPARAMS|DCode=17|XSize=68mil|YSize=68mil|CornerRadius=19mil|HoleSize=0mil|Usage=FLASHONLY|Rotation=0.000|XOffset=0mil|YOffset=0mil|HoleType=Round|Shape=RoundedRectangle|*
%AMROUNDEDRECTD17*
21,1,0.06800,0.03000,0,0,0.0*
21,1,0.03000,0.06800,0,0,0.0*
1,1,0.03800,0.01500,-0.01500*
1,1,0.03800,-0.01500,-0.01500*
1,1,0.03800,-0.01500,0.01500*
1,1,0.03800,0.01500,0.01500*
%
%ADD17ROUNDEDRECTD17*%
%ADD18R,0.06312X0.07493*%
%ADD19R,0.06312X0.05524*%
%ADD20R,0.05524X0.06312*%
%ADD21R,0.10209X0.10209*%
%ADD22R,0.07591X0.03359*%
%ADD23R,0.03162X0.05131*%
%ADD24R,0.03162X0.07395*%
%ADD25R,0.07395X0.03162*%
%ADD26R,0.02375X0.07887*%
%ADD27C,0.23323*%
%ADD28R,0.05131X0.05131*%
%ADD29C,0.05131*%
%ADD30C,0.06706*%
%ADD31R,0.06706X0.06706*%
%ADD32C,0.08083*%
%ADD33C,0.05721*%
G36*
X98425Y120866D02*
X97441D01*
Y124213D01*
X98425D01*
Y120866D01*
D02*
G37*
G36*
X100984Y119488D02*
X100787D01*
Y125787D01*
X100984D01*
Y119488D01*
D02*
G37*
G36*
X103543D02*
X103347D01*
Y125787D01*
X103543D01*
Y119488D01*
D02*
G37*
G36*
X108661D02*
X108465D01*
Y125787D01*
X108661D01*
Y119488D01*
D02*
G37*
G36*
X106102D02*
X105905D01*
Y125787D01*
X106102D01*
Y119488D01*
D02*
G37*
G36*
X112008Y120965D02*
X111024D01*
Y124311D01*
X112008D01*
Y120965D01*
D02*
G37*
D15*
X104528Y78740D02*
D03*
X93898D02*
D03*
D16*
X153543D02*
D03*
Y91535D02*
D03*
Y104331D02*
D03*
X44094Y46063D02*
D03*
D17*
Y60630D02*
D03*
D18*
X14567Y37402D02*
D03*
X32283D02*
D03*
X14567Y69291D02*
D03*
X32283D02*
D03*
D19*
X33858Y102362D02*
D03*
Y93701D02*
D03*
X48819Y87402D02*
D03*
Y78740D02*
D03*
X58268Y87402D02*
D03*
Y78740D02*
D03*
X67323Y78740D02*
D03*
Y87402D02*
D03*
X75590Y78740D02*
D03*
Y87402D02*
D03*
X83858Y78740D02*
D03*
Y87402D02*
D03*
X33858Y122835D02*
D03*
Y114173D02*
D03*
X124016Y96457D02*
D03*
Y87795D02*
D03*
X114173Y96457D02*
D03*
Y87795D02*
D03*
X141732Y69291D02*
D03*
Y60630D02*
D03*
X150787Y69291D02*
D03*
Y60630D02*
D03*
X73925Y120211D02*
D03*
Y111550D02*
D03*
X94488Y87795D02*
D03*
Y96457D02*
D03*
X103543Y87795D02*
D03*
Y96457D02*
D03*
D20*
X139764Y108661D02*
D03*
X131102D02*
D03*
X124803D02*
D03*
X116142D02*
D03*
X114567Y28740D02*
D03*
X123228D02*
D03*
Y55118D02*
D03*
X114567D02*
D03*
X123228Y37008D02*
D03*
X114567D02*
D03*
X123228Y46063D02*
D03*
X114567D02*
D03*
Y71653D02*
D03*
X123228D02*
D03*
X40157Y25886D02*
D03*
X31496D02*
D03*
X70866Y20079D02*
D03*
X62205D02*
D03*
X114567Y63386D02*
D03*
X123228D02*
D03*
D21*
X53347Y115551D02*
D03*
D22*
X42276Y108051D02*
D03*
Y113051D02*
D03*
Y118051D02*
D03*
Y123051D02*
D03*
X64417D02*
D03*
Y118051D02*
D03*
Y113051D02*
D03*
Y108051D02*
D03*
D23*
X135630Y85039D02*
D03*
X139370D02*
D03*
X143110D02*
D03*
Y96850D02*
D03*
X135630D02*
D03*
D24*
X88189Y63535D02*
D03*
X85039D02*
D03*
X81890D02*
D03*
X78740D02*
D03*
X75590D02*
D03*
X72441D02*
D03*
X69291D02*
D03*
Y29378D02*
D03*
X72441D02*
D03*
X75590D02*
D03*
X78740D02*
D03*
X81890D02*
D03*
X85039D02*
D03*
X88189D02*
D03*
X91339D02*
D03*
Y63535D02*
D03*
D25*
X63236Y57480D02*
D03*
Y54331D02*
D03*
Y51181D02*
D03*
Y48031D02*
D03*
Y44882D02*
D03*
Y41732D02*
D03*
Y38583D02*
D03*
Y35433D02*
D03*
X97394D02*
D03*
Y38583D02*
D03*
Y41732D02*
D03*
Y44882D02*
D03*
Y48031D02*
D03*
Y51181D02*
D03*
Y54331D02*
D03*
Y57480D02*
D03*
D26*
X99606Y121850D02*
D03*
X102165D02*
D03*
X109843D02*
D03*
X107283D02*
D03*
X104724D02*
D03*
D27*
X15748Y125984D02*
D03*
Y15748D02*
D03*
X151575Y15748D02*
D03*
Y125984D02*
D03*
D28*
X21654Y96850D02*
D03*
D29*
Y88976D02*
D03*
D30*
X110551Y13386D02*
D03*
X130551D02*
D03*
X120551D02*
D03*
X100551D02*
D03*
D31*
X90551D02*
D03*
D32*
X118898Y133071D02*
D03*
X90551D02*
D03*
D33*
X95177Y122638D02*
D03*
X114272D02*
D03*
M02*
