M48
;Layer_Color=9474304
;FILE_FORMAT=2:4
INCH,TZ
;TYPE=PLATED
T1F00S00C0.0079
T2F00S00C0.0276
T3F00S00C0.0354
T4F00S00C0.0523
;TYPE=NON_PLATED
T5F00S00C0.1083
%
T01
X4250Y1600
X8400Y3100
X9200
X10200Y2950
X10850
X11200Y4300
X10300Y5100
Y5950
X10100Y5750
X10300Y6700
X9600Y7100
X9900Y8150
X9100
X8300Y8100
X8500Y6600
Y5450
X8400Y4700
X9200
X13350Y5300
X12750Y7250
X13350Y7900
X12500Y8600
X12100Y8800
X11400Y9150
X10700Y8800
X10400Y9500
X9100Y9800
X11800Y10500
X13800Y9300
X6750Y9000
X6900Y8000
X7600Y7650
X5950Y7250
X4950Y7300
X5000Y5700
X4500Y4750
X6250Y4700
X6650Y5700
X6450Y6250
X7250Y3950
X5400Y3400
X3050Y6100
X2300Y7850
X3050Y9600
X4750Y9700
X4700Y8900
X4750Y10600
X4100
X6200
X700Y5050
T02
X8145Y10657
X10055
X3000Y8187
Y7400
T03
X7200Y1900
X8200
X9200
X10200
X11200
T04
X10517Y11700
X7683
T05
X1500Y1500
X13300Y1400
Y10900
X1600
M30
