G04*
G04 #@! TF.GenerationSoftware,Altium Limited,Altium Designer,22.5.1 (42)*
G04*
G04 Layer_Color=32768*
%FSLAX25Y25*%
%MOIN*%
G70*
G04*
G04 #@! TF.SameCoordinates,96F4DE00-7DBF-44AA-9512-03554E38B811*
G04*
G04*
G04 #@! TF.FilePolarity,Positive*
G04*
G01*
G75*
%ADD69C,0.00394*%
%ADD70C,0.00197*%
D69*
X112319Y99874D02*
Y129402D01*
X69681D02*
X112319D01*
X69681Y99874D02*
Y129402D01*
Y99874D02*
X112319D01*
D70*
X65500Y12500D02*
X118000D01*
X65500Y25500D02*
X118000D01*
X65500Y12500D02*
Y25500D01*
X118000Y12500D02*
Y25500D01*
X122488Y75413D02*
Y89587D01*
X133512D01*
X122488Y75413D02*
X133512D01*
Y89587D01*
X108882Y89874D02*
X119118D01*
X108882Y74126D02*
Y89874D01*
Y74126D02*
X119118D01*
Y89874D01*
X96583Y29276D02*
X113118D01*
X96583D02*
Y47386D01*
X113118Y29276D02*
Y47386D01*
X96583D02*
X113118D01*
X7346Y56779D02*
X50653D01*
Y29221D02*
Y56779D01*
X7346Y29221D02*
Y56779D01*
Y29221D02*
X50653D01*
X69500Y49000D02*
X100500D01*
X69500Y71000D02*
X100500D01*
Y49000D02*
Y71000D01*
X69500Y49000D02*
Y71000D01*
X87543Y31520D02*
Y46480D01*
X80457Y31520D02*
Y46480D01*
Y31520D02*
X87543D01*
X80457Y46480D02*
X87543D01*
X95543Y31520D02*
Y46480D01*
X88457Y31520D02*
Y46480D01*
Y31520D02*
X95543D01*
X88457Y46480D02*
X95543D01*
X50520Y46543D02*
X65480D01*
X50520Y39457D02*
X65480D01*
Y46543D01*
X50520Y39457D02*
Y46543D01*
X118480Y63457D02*
Y70543D01*
X103520Y63457D02*
Y70543D01*
X118480D01*
X103520Y63457D02*
X118480D01*
X38457Y64520D02*
X45543D01*
Y79480D01*
X38457Y64520D02*
Y79480D01*
X45543D01*
X50520Y60543D02*
X65480D01*
X50520Y53457D02*
X65480D01*
Y60543D01*
X50520Y53457D02*
Y60543D01*
X37677Y65339D02*
Y90535D01*
X17992Y65339D02*
X37677D01*
X17992D02*
Y90535D01*
X37677D01*
X118480Y47457D02*
Y54543D01*
X103520D02*
X118480D01*
X103520Y47457D02*
X118480D01*
X103520D02*
Y54543D01*
X79457Y97480D02*
X86543D01*
X79457Y82520D02*
Y97480D01*
X86543Y82520D02*
Y97480D01*
X79457Y82520D02*
X86543D01*
X105520Y96457D02*
Y103543D01*
Y96457D02*
X120480D01*
X105520Y103543D02*
X120480D01*
Y96457D02*
Y103543D01*
X71457Y97480D02*
X78543D01*
X71457Y82520D02*
Y97480D01*
X78543Y82520D02*
Y97480D01*
X71457Y82520D02*
X78543D01*
X46173Y93665D02*
X67827D01*
X46173Y64335D02*
Y93665D01*
Y64335D02*
X67827D01*
Y93665D01*
X118480Y55457D02*
Y62543D01*
X103520Y55457D02*
Y62543D01*
X118480D01*
X103520Y55457D02*
X118480D01*
X87457Y97480D02*
X94543D01*
X87457Y82520D02*
X94543D01*
X87457D02*
Y97480D01*
X94543Y82520D02*
Y97480D01*
X95457D02*
X102543D01*
X95457Y82520D02*
X102543D01*
X95457D02*
Y97480D01*
X102543Y82520D02*
Y97480D01*
X31520Y92457D02*
X46480D01*
X31520Y99543D02*
X46480D01*
X31520Y92457D02*
Y99543D01*
X46480Y92457D02*
Y99543D01*
M02*
