G04*
G04 #@! TF.GenerationSoftware,Altium Limited,Altium Designer,22.5.1 (42)*
G04*
G04 Layer_Color=8388736*
%FSLAX25Y25*%
%MOIN*%
G70*
G04*
G04 #@! TF.SameCoordinates,96F4DE00-7DBF-44AA-9512-03554E38B811*
G04*
G04*
G04 #@! TF.FilePolarity,Negative*
G04*
G01*
G75*
%ADD13R,0.03950X0.05131*%
%ADD14R,0.02572X0.06115*%
%ADD15R,0.02375X0.06115*%
%ADD16R,0.02559X0.08071*%
%ADD17R,0.05524X0.06312*%
G04:AMPARAMS|DCode=18|XSize=68mil|YSize=68mil|CornerRadius=19mil|HoleSize=0mil|Usage=FLASHONLY|Rotation=0.000|XOffset=0mil|YOffset=0mil|HoleType=Round|Shape=RoundedRectangle|*
%AMROUNDEDRECTD18*
21,1,0.06800,0.03000,0,0,0.0*
21,1,0.03000,0.06800,0,0,0.0*
1,1,0.03800,0.01500,-0.01500*
1,1,0.03800,-0.01500,-0.01500*
1,1,0.03800,-0.01500,0.01500*
1,1,0.03800,0.01500,0.01500*
%
%ADD18ROUNDEDRECTD18*%
G04:AMPARAMS|DCode=19|XSize=68mil|YSize=68mil|CornerRadius=19mil|HoleSize=0mil|Usage=FLASHONLY|Rotation=90.000|XOffset=0mil|YOffset=0mil|HoleType=Round|Shape=RoundedRectangle|*
%AMROUNDEDRECTD19*
21,1,0.06800,0.03000,0,0,90.0*
21,1,0.03000,0.06800,0,0,90.0*
1,1,0.03800,0.01500,0.01500*
1,1,0.03800,0.01500,-0.01500*
1,1,0.03800,-0.01500,-0.01500*
1,1,0.03800,-0.01500,0.01500*
%
%ADD19ROUNDEDRECTD19*%
%ADD20R,0.07493X0.06312*%
%ADD21R,0.07591X0.03359*%
%ADD22R,0.06312X0.05524*%
%ADD23R,0.03359X0.07591*%
%ADD24R,0.10209X0.10209*%
%ADD25C,0.06706*%
%ADD26R,0.06706X0.06706*%
%ADD27C,0.08083*%
%ADD28C,0.05724*%
%ADD29C,0.05721*%
%ADD30C,0.23323*%
%ADD31R,0.05131X0.05131*%
%ADD32C,0.05131*%
G36*
X84701Y104402D02*
X83126D01*
Y108732D01*
X84701D01*
Y104402D01*
D02*
G37*
G36*
X98874D02*
X97299D01*
Y108732D01*
X98874D01*
Y104402D01*
D02*
G37*
D13*
X128000Y86043D02*
D03*
X125441Y78957D02*
D03*
X130559D02*
D03*
D14*
X114000Y86134D02*
D03*
X116559D02*
D03*
X111441D02*
D03*
D15*
X116559Y77866D02*
D03*
X111441D02*
D03*
D16*
X85882Y105780D02*
D03*
X88441D02*
D03*
X96118D02*
D03*
X93559D02*
D03*
X91000D02*
D03*
D17*
X101701Y42661D02*
D03*
X108000Y34000D02*
D03*
X101701D02*
D03*
X108000Y42661D02*
D03*
X53669Y43000D02*
D03*
X62331D02*
D03*
X106669Y67000D02*
D03*
X115331D02*
D03*
X106669Y51000D02*
D03*
X53669Y57000D02*
D03*
X117331Y100000D02*
D03*
X43331Y96000D02*
D03*
X62331Y57000D02*
D03*
X115331Y51000D02*
D03*
X108669Y100000D02*
D03*
X106669Y59000D02*
D03*
X115331D02*
D03*
X34669Y96000D02*
D03*
D18*
X138000Y53000D02*
D03*
Y68000D02*
D03*
Y83000D02*
D03*
X35000Y106000D02*
D03*
D19*
X56000D02*
D03*
D20*
X13055Y51858D02*
D03*
Y34142D02*
D03*
X44945Y51858D02*
D03*
Y34142D02*
D03*
D21*
X96071Y57500D02*
D03*
Y62500D02*
D03*
Y67500D02*
D03*
X73929D02*
D03*
Y62500D02*
D03*
Y57500D02*
D03*
Y52500D02*
D03*
X96071D02*
D03*
D22*
X84000Y43331D02*
D03*
Y34669D02*
D03*
X92000Y43331D02*
D03*
Y34669D02*
D03*
X75000Y85669D02*
D03*
X91000Y94331D02*
D03*
X99000D02*
D03*
X83000Y85669D02*
D03*
X42000Y67669D02*
D03*
Y76331D02*
D03*
X83000Y94331D02*
D03*
X75000D02*
D03*
X91000Y85669D02*
D03*
X99000D02*
D03*
D23*
X49500Y90071D02*
D03*
Y67929D02*
D03*
X64500D02*
D03*
X59500D02*
D03*
X54500D02*
D03*
Y90071D02*
D03*
X59500D02*
D03*
X64500D02*
D03*
D24*
X57000Y79000D02*
D03*
D25*
X72000Y19000D02*
D03*
X82000D02*
D03*
X92000D02*
D03*
X102000D02*
D03*
D26*
X112000D02*
D03*
D27*
X105173Y117000D02*
D03*
X76827D02*
D03*
D28*
X81453Y106567D02*
D03*
D29*
X100547D02*
D03*
D30*
X16000Y109000D02*
D03*
X15000Y15000D02*
D03*
X133000Y14000D02*
D03*
Y109000D02*
D03*
D31*
X30000Y81874D02*
D03*
D32*
Y74000D02*
D03*
M02*
