G04*
G04 #@! TF.GenerationSoftware,Altium Limited,Altium Designer,22.3.1 (43)*
G04*
G04 Layer_Color=16711935*
%FSLAX25Y25*%
%MOIN*%
G70*
G04*
G04 #@! TF.SameCoordinates,8B7F2328-CF97-48C8-8425-EDDF2E2766CF*
G04*
G04*
G04 #@! TF.FilePolarity,Positive*
G04*
G01*
G75*
%ADD65C,0.00394*%
D65*
X92913Y81693D02*
X105512D01*
Y75787D02*
Y81693D01*
X92913Y75787D02*
X105512D01*
X92913D02*
Y81693D01*
X11614Y40748D02*
X35236D01*
Y65945D01*
X11614Y40748D02*
Y65945D01*
X11614Y65945D02*
X35236D01*
X36319Y94095D02*
Y101969D01*
X31398Y94095D02*
X36319D01*
X31398D02*
Y101969D01*
X36319D01*
X131496Y106201D02*
X139370D01*
X131496D02*
Y111122D01*
X139370D01*
Y106201D02*
Y111122D01*
X116535Y106201D02*
X124409D01*
X116535D02*
Y111122D01*
X124409D01*
Y106201D02*
Y111122D01*
X114961Y31201D02*
X122835D01*
Y26280D02*
Y31201D01*
X114961Y26280D02*
X122835D01*
X114961D02*
Y31201D01*
X51279Y79134D02*
Y87008D01*
X46358Y79134D02*
X51279D01*
X46358D02*
Y87008D01*
X51279D01*
X60728Y79134D02*
Y87008D01*
X55807Y79134D02*
X60728D01*
X55807D02*
Y87008D01*
X60728D01*
X114961Y52658D02*
X122835D01*
X114961D02*
Y57579D01*
X122835D01*
Y52658D02*
Y57579D01*
X114961Y34547D02*
X122835D01*
X114961D02*
Y39469D01*
X122835D01*
Y34547D02*
Y39469D01*
X114961Y46882D02*
X116602Y48524D01*
X114961Y43602D02*
Y48524D01*
Y43602D02*
X122835D01*
Y48524D01*
X114961D02*
X122835D01*
X64862Y79134D02*
Y87008D01*
X69784D01*
Y79134D02*
Y87008D01*
X64862Y79134D02*
X69784D01*
X28346Y81299D02*
Y104528D01*
X10630Y81299D02*
X28346D01*
X10630D02*
Y104528D01*
X28346D01*
X135669Y7874D02*
Y18898D01*
X85433Y7874D02*
Y18898D01*
Y7874D02*
X135669D01*
X85433Y18898D02*
X135669D01*
X56024Y105905D02*
X61024Y110906D01*
Y105905D02*
Y125197D01*
X45669D02*
X61024D01*
X45669Y105905D02*
Y125197D01*
Y105905D02*
X61024D01*
X133661Y87697D02*
Y94193D01*
X145079D01*
Y87697D02*
Y94193D01*
X133661Y87697D02*
X145079D01*
X133661Y91437D02*
X137402Y87697D01*
X94095Y32677D02*
Y60236D01*
X66535Y32677D02*
X94095D01*
X66535D02*
Y60236D01*
X94095D01*
X90945D02*
X94095Y57087D01*
X120079Y122047D02*
Y140551D01*
X89370Y122047D02*
Y140551D01*
Y122047D02*
X120079D01*
X89370Y140551D02*
X120079D01*
X122835Y69193D02*
Y74114D01*
X114961D02*
X122835D01*
X114961Y69193D02*
Y74114D01*
Y69193D02*
X122835D01*
X73130Y87008D02*
X78051D01*
X73130Y79134D02*
Y87008D01*
Y79134D02*
X78051D01*
Y87008D01*
X81398Y87008D02*
X86319D01*
X81398Y79134D02*
Y87008D01*
Y79134D02*
X86319D01*
Y87008D01*
X31398Y114567D02*
X36319D01*
Y122441D01*
X31398D02*
X36319D01*
X31398Y114567D02*
Y122441D01*
X121555Y88189D02*
X126476D01*
Y96063D01*
X121555D02*
X126476D01*
X121555Y88189D02*
Y96063D01*
X111713Y88189D02*
X116634D01*
Y96063D01*
X111713D02*
X116634D01*
X111713Y88189D02*
Y96063D01*
X139272Y61024D02*
X144193D01*
Y68898D01*
X139272D02*
X144193D01*
X139272Y61024D02*
Y68898D01*
X148327Y61024D02*
X153248D01*
Y68898D01*
X148327D02*
X153248D01*
X148327Y61024D02*
Y68898D01*
X71464Y111944D02*
X76385D01*
Y119818D01*
X71464D02*
X76385D01*
X71464Y111944D02*
Y119818D01*
X92027Y96063D02*
X96949D01*
X92027Y88189D02*
Y96063D01*
Y88189D02*
X96949D01*
Y96063D01*
X101083D02*
X106004D01*
X101083Y88189D02*
Y96063D01*
Y88189D02*
X106004D01*
Y96063D01*
X31890Y23425D02*
Y28346D01*
Y23425D02*
X39764D01*
Y28346D01*
X31890D02*
X39764D01*
X62598Y17618D02*
Y22539D01*
Y17618D02*
X70472D01*
Y22539D01*
X62598D02*
X70472D01*
X122835Y60925D02*
Y65847D01*
X114961D02*
X122835D01*
X114961Y60925D02*
Y65847D01*
Y60925D02*
X122835D01*
M02*
