G04*
G04 #@! TF.GenerationSoftware,Altium Limited,Altium Designer,22.5.1 (42)*
G04*
G04 Layer_Color=65535*
%FSLAX25Y25*%
%MOIN*%
G70*
G04*
G04 #@! TF.SameCoordinates,96F4DE00-7DBF-44AA-9512-03554E38B811*
G04*
G04*
G04 #@! TF.FilePolarity,Positive*
G04*
G01*
G75*
%ADD10C,0.00787*%
%ADD11C,0.00598*%
%ADD12C,0.00996*%
D10*
X111486Y31244D02*
Y31634D01*
Y31642D02*
Y31244D01*
Y31244D02*
Y31634D01*
X34905Y43000D02*
X34821Y43998D01*
X34568Y44967D01*
X34156Y45880D01*
X33595Y46710D01*
X32902Y47433D01*
X32096Y48029D01*
X31202Y48480D01*
X30244Y48773D01*
X29251Y48900D01*
X28250Y48858D01*
X27271Y48647D01*
X26341Y48273D01*
X25488Y47748D01*
X24736Y47086D01*
X24107Y46307D01*
X23619Y45432D01*
X23285Y44488D01*
X23116Y43501D01*
Y42499D01*
X23285Y41512D01*
X23619Y40567D01*
X24107Y39693D01*
X24736Y38914D01*
X25488Y38252D01*
X26341Y37727D01*
X27271Y37353D01*
X28250Y37142D01*
X29251Y37100D01*
X30244Y37227D01*
X31202Y37520D01*
X32096Y37971D01*
X32902Y38567D01*
X33595Y39290D01*
X34156Y40120D01*
X34568Y41033D01*
X34821Y42002D01*
X34905Y43000D01*
X124063Y82106D02*
Y84862D01*
Y84961D01*
X125441D01*
X130559D02*
X131937D01*
Y82106D02*
Y84961D01*
X118331Y83476D02*
Y88004D01*
X103992Y105976D02*
X106354D01*
Y112669D01*
X75646Y105976D02*
Y112669D01*
Y105976D02*
X78008D01*
X17583Y54811D02*
X40417Y54811D01*
X17583Y31189D02*
X40417D01*
X41598Y37882D02*
Y48118D01*
X16402Y37882D02*
Y48118D01*
X78701Y50354D02*
X91299D01*
X78701D02*
Y69646D01*
X91299D01*
Y50354D02*
Y69646D01*
X92677Y49843D02*
X98681D01*
X82032Y39000D02*
X85969D01*
X90031Y39000D02*
X93968D01*
X58000Y41032D02*
Y44969D01*
X111000Y65031D02*
Y68968D01*
X40031Y72000D02*
X43968D01*
X58000Y55032D02*
Y58969D01*
X36693Y79315D02*
Y89551D01*
Y66323D02*
Y76559D01*
X18976Y66323D02*
X36693D01*
X18976D02*
Y89551D01*
X36693D01*
X111000Y49031D02*
Y52969D01*
X81032Y90000D02*
X84969D01*
X113000Y98032D02*
Y101969D01*
X73032Y90000D02*
X76968D01*
X67158Y86677D02*
Y92681D01*
X111000Y57032D02*
Y60969D01*
X89031Y90000D02*
X92968D01*
X97031Y90000D02*
X100969D01*
X39000Y94032D02*
Y97969D01*
D11*
X122344Y68312D02*
X121688Y68968D01*
X120376D01*
X119720Y68312D01*
Y65688D01*
X120376Y65032D01*
X121688D01*
X122344Y65688D01*
X123656D02*
X124312Y65032D01*
X125624D01*
X126280Y65688D01*
Y68312D01*
X125624Y68968D01*
X124312D01*
X123656Y68312D01*
Y67656D01*
X124312Y67000D01*
X126280D01*
X112098Y14034D02*
Y11410D01*
X113410Y10098D01*
X114722Y11410D01*
Y14034D01*
X100222Y13378D02*
X99566Y14034D01*
X98254D01*
X97598Y13378D01*
Y10754D01*
X98254Y10098D01*
X99566D01*
X100222Y10754D01*
X101534Y14034D02*
Y10098D01*
X104158D01*
X105470Y14034D02*
Y10098D01*
Y11410D01*
X108094Y14034D01*
X106126Y12066D01*
X108094Y10098D01*
X93722Y13378D02*
X93066Y14034D01*
X91754D01*
X91098Y13378D01*
Y10754D01*
X91754Y10098D01*
X93066D01*
X93722Y10754D01*
Y12066D01*
X92410D01*
X77098Y14034D02*
Y10098D01*
X79066D01*
X79722Y10754D01*
Y13378D01*
X79066Y14034D01*
X77098D01*
X81034D02*
X82346D01*
X81690D01*
Y10098D01*
X81034D01*
X82346D01*
X86282Y14034D02*
X84970D01*
X84314Y13378D01*
Y10754D01*
X84970Y10098D01*
X86282D01*
X86938Y10754D01*
Y13378D01*
X86282Y14034D01*
X70098Y10098D02*
Y14034D01*
X72066D01*
X72722Y13378D01*
Y12066D01*
X72066Y11410D01*
X70098D01*
X71410D02*
X72722Y10098D01*
X30598Y12222D02*
Y9598D01*
Y10910D01*
X31254Y11566D01*
X31910Y12222D01*
X32566D01*
X36502Y9598D02*
X35190D01*
X34534Y10254D01*
Y11566D01*
X35190Y12222D01*
X36502D01*
X37158Y11566D01*
Y10910D01*
X34534D01*
X38470Y12222D02*
X39782Y9598D01*
X41094Y12222D01*
X46341Y9598D02*
X47653D01*
X46997D01*
Y13534D01*
X46341Y12878D01*
X49621Y9598D02*
Y10254D01*
X50277D01*
Y9598D01*
X49621D01*
X55525D02*
X52901D01*
X55525Y12222D01*
Y12878D01*
X54869Y13534D01*
X53557D01*
X52901Y12878D01*
X125876Y75968D02*
Y72032D01*
X127844D01*
X128500Y72688D01*
Y75312D01*
X127844Y75968D01*
X125876D01*
X129812Y72032D02*
X131124D01*
X130468D01*
Y75968D01*
X129812Y75312D01*
X113032Y118312D02*
X112376Y118968D01*
X111064D01*
X110408Y118312D01*
Y115688D01*
X111064Y115032D01*
X112376D01*
X113032Y115688D01*
X114344Y115032D02*
Y118968D01*
X116968Y115032D01*
Y118968D01*
X118280Y115032D02*
X119592D01*
X118936D01*
Y118968D01*
X118280Y118312D01*
X113227Y35299D02*
Y34643D01*
X114539Y33331D01*
X115850Y34643D01*
Y35299D01*
X114539Y33331D02*
Y31363D01*
X117162D02*
X118474D01*
X117818D01*
Y35299D01*
X117162Y34643D01*
X31000Y29312D02*
X30344Y29968D01*
X29032D01*
X28376Y29312D01*
Y28656D01*
X29032Y28000D01*
X30344D01*
X31000Y27344D01*
Y26688D01*
X30344Y26032D01*
X29032D01*
X28376Y26688D01*
X32312Y26032D02*
X33624D01*
X32968D01*
Y29968D01*
X32312Y29312D01*
X40688Y83376D02*
X40032Y82720D01*
Y81408D01*
X40688Y80752D01*
X41344D01*
X42000Y81408D01*
Y82720D01*
X42656Y83376D01*
X43312D01*
X43968Y82720D01*
Y81408D01*
X43312Y80752D01*
X40032Y84688D02*
X43968D01*
Y86656D01*
X43312Y87312D01*
X42656D01*
X42000Y86656D01*
Y84688D01*
Y86656D01*
X41344Y87312D01*
X40688D01*
X40032Y86656D01*
Y84688D01*
Y91248D02*
X40688Y89936D01*
X42000Y88624D01*
X43312D01*
X43968Y89280D01*
Y90592D01*
X43312Y91248D01*
X42656D01*
X42000Y90592D01*
Y88624D01*
X55360Y52312D02*
X54704Y52968D01*
X53392D01*
X52736Y52312D01*
Y49688D01*
X53392Y49032D01*
X54704D01*
X55360Y49688D01*
X56672Y49032D02*
X57984D01*
X57328D01*
Y52968D01*
X56672Y52312D01*
X59952Y49032D02*
X61264D01*
X60608D01*
Y52968D01*
X59952Y52312D01*
X91344Y30312D02*
X90688Y30968D01*
X89376D01*
X88720Y30312D01*
Y27688D01*
X89376Y27032D01*
X90688D01*
X91344Y27688D01*
X95280Y27032D02*
X92656D01*
X95280Y29656D01*
Y30312D01*
X94624Y30968D01*
X93312D01*
X92656Y30312D01*
X134752Y47968D02*
X137376D01*
X136064D01*
Y44032D01*
X138688D02*
Y47968D01*
X140656D01*
X141312Y47312D01*
Y46000D01*
X140656Y45344D01*
X138688D01*
X145248Y47968D02*
X142624D01*
Y46000D01*
X143936Y46656D01*
X144592D01*
X145248Y46000D01*
Y44688D01*
X144592Y44032D01*
X143280D01*
X142624Y44688D01*
X134752Y62968D02*
X137376D01*
X136064D01*
Y59032D01*
X138688D02*
Y62968D01*
X140656D01*
X141312Y62312D01*
Y61000D01*
X140656Y60344D01*
X138688D01*
X144592Y59032D02*
Y62968D01*
X142624Y61000D01*
X145248D01*
X134752Y77968D02*
X137376D01*
X136064D01*
Y74032D01*
X138688D02*
Y77968D01*
X140656D01*
X141312Y77312D01*
Y76000D01*
X140656Y75344D01*
X138688D01*
X142624Y77312D02*
X143280Y77968D01*
X144592D01*
X145248Y77312D01*
Y76656D01*
X144592Y76000D01*
X143936D01*
X144592D01*
X145248Y75344D01*
Y74688D01*
X144592Y74032D01*
X143280D01*
X142624Y74688D01*
X59752Y107968D02*
X62376D01*
X61064D01*
Y104032D01*
X63688D02*
Y107968D01*
X65656D01*
X66312Y107312D01*
Y106000D01*
X65656Y105344D01*
X63688D01*
X70248Y104032D02*
X67624D01*
X70248Y106656D01*
Y107312D01*
X69592Y107968D01*
X68280D01*
X67624Y107312D01*
X39408Y107968D02*
X42032D01*
X40720D01*
Y104032D01*
X43344D02*
Y107968D01*
X45312D01*
X45968Y107312D01*
Y106000D01*
X45312Y105344D01*
X43344D01*
X47280Y104032D02*
X48592D01*
X47936D01*
Y107968D01*
X47280Y107312D01*
X22344Y64968D02*
X21032D01*
X21688D01*
Y61688D01*
X21032Y61032D01*
X20376D01*
X19720Y61688D01*
X26280Y61032D02*
X23656D01*
X26280Y63656D01*
Y64312D01*
X25624Y64968D01*
X24312D01*
X23656Y64312D01*
X122376Y52312D02*
X121720Y52968D01*
X120408D01*
X119752Y52312D01*
Y51656D01*
X120408Y51000D01*
X121720D01*
X122376Y50344D01*
Y49688D01*
X121720Y49032D01*
X120408D01*
X119752Y49688D01*
X123688Y52968D02*
Y49032D01*
X125656D01*
X126312Y49688D01*
Y50344D01*
X125656Y51000D01*
X123688D01*
X125656D01*
X126312Y51656D01*
Y52312D01*
X125656Y52968D01*
X123688D01*
X130248D02*
X127624D01*
Y51000D01*
X128936Y51656D01*
X129592D01*
X130248Y51000D01*
Y49688D01*
X129592Y49032D01*
X128280D01*
X127624Y49688D01*
X81688Y76032D02*
X81032Y75376D01*
Y74064D01*
X81688Y73408D01*
X82344D01*
X83000Y74064D01*
Y75376D01*
X83656Y76032D01*
X84312D01*
X84968Y75376D01*
Y74064D01*
X84312Y73408D01*
X81032Y77344D02*
X84968D01*
Y79312D01*
X84312Y79968D01*
X83656D01*
X83000Y79312D01*
Y77344D01*
Y79312D01*
X82344Y79968D01*
X81688D01*
X81032Y79312D01*
Y77344D01*
X84968Y81280D02*
Y82592D01*
Y81936D01*
X81032D01*
X81688Y81280D01*
X111376Y108312D02*
X110720Y108968D01*
X109408D01*
X108752Y108312D01*
Y107656D01*
X109408Y107000D01*
X110720D01*
X111376Y106344D01*
Y105688D01*
X110720Y105032D01*
X109408D01*
X108752Y105688D01*
X112688Y108968D02*
Y105032D01*
X114656D01*
X115312Y105688D01*
Y106344D01*
X114656Y107000D01*
X112688D01*
X114656D01*
X115312Y107656D01*
Y108312D01*
X114656Y108968D01*
X112688D01*
X118592Y105032D02*
Y108968D01*
X116624Y107000D01*
X119248D01*
X73688Y74376D02*
X73032Y73720D01*
Y72408D01*
X73688Y71752D01*
X74344D01*
X75000Y72408D01*
Y73720D01*
X75656Y74376D01*
X76312D01*
X76968Y73720D01*
Y72408D01*
X76312Y71752D01*
X73032Y75688D02*
X76968D01*
Y77656D01*
X76312Y78312D01*
X75656D01*
X75000Y77656D01*
Y75688D01*
Y77656D01*
X74344Y78312D01*
X73688D01*
X73032Y77656D01*
Y75688D01*
X76968Y82248D02*
Y79624D01*
X74344Y82248D01*
X73688D01*
X73032Y81592D01*
Y80280D01*
X73688Y79624D01*
X105032Y77580D02*
Y78892D01*
Y78236D01*
X108968D01*
Y77580D01*
Y78892D01*
X105688Y83484D02*
X105032Y82828D01*
Y81516D01*
X105688Y80860D01*
X108312D01*
X108968Y81516D01*
Y82828D01*
X108312Y83484D01*
X108968Y87420D02*
Y84796D01*
X106344Y87420D01*
X105688D01*
X105032Y86764D01*
Y85452D01*
X105688Y84796D01*
X57080Y98968D02*
X58392D01*
X57736D01*
Y95032D01*
X57080D01*
X58392D01*
X62984Y98312D02*
X62328Y98968D01*
X61016D01*
X60360Y98312D01*
Y95688D01*
X61016Y95032D01*
X62328D01*
X62984Y95688D01*
X64296Y98312D02*
X64952Y98968D01*
X66264D01*
X66920Y98312D01*
Y97656D01*
X66264Y97000D01*
X65608D01*
X66264D01*
X66920Y96344D01*
Y95688D01*
X66264Y95032D01*
X64952D01*
X64296Y95688D01*
X72032Y40736D02*
Y42048D01*
Y41392D01*
X75968D01*
Y40736D01*
Y42048D01*
X72688Y46640D02*
X72032Y45984D01*
Y44672D01*
X72688Y44016D01*
X75312D01*
X75968Y44672D01*
Y45984D01*
X75312Y46640D01*
X75968Y47952D02*
Y49264D01*
Y48608D01*
X72032D01*
X72688Y47952D01*
X122704Y60312D02*
X122048Y60968D01*
X120736D01*
X120080Y60312D01*
Y57688D01*
X120736Y57032D01*
X122048D01*
X122704Y57688D01*
X124016Y57032D02*
X125328D01*
X124672D01*
Y60968D01*
X124016Y60312D01*
X127296D02*
X127952Y60968D01*
X129264D01*
X129920Y60312D01*
Y57688D01*
X129264Y57032D01*
X127952D01*
X127296Y57688D01*
Y60312D01*
X89688Y77344D02*
X89032Y76688D01*
Y75376D01*
X89688Y74720D01*
X92312D01*
X92968Y75376D01*
Y76688D01*
X92312Y77344D01*
X89688Y78656D02*
X89032Y79312D01*
Y80624D01*
X89688Y81280D01*
X90344D01*
X91000Y80624D01*
X91656Y81280D01*
X92312D01*
X92968Y80624D01*
Y79312D01*
X92312Y78656D01*
X91656D01*
X91000Y79312D01*
X90344Y78656D01*
X89688D01*
X91000Y79312D02*
Y80624D01*
X97688Y77344D02*
X97032Y76688D01*
Y75376D01*
X97688Y74720D01*
X100312D01*
X100968Y75376D01*
Y76688D01*
X100312Y77344D01*
X97032Y78656D02*
Y81280D01*
X97688D01*
X100312Y78656D01*
X100968D01*
X83344Y30312D02*
X82688Y30968D01*
X81376D01*
X80720Y30312D01*
Y27688D01*
X81376Y27032D01*
X82688D01*
X83344Y27688D01*
X84656Y30312D02*
X85312Y30968D01*
X86624D01*
X87280Y30312D01*
Y29656D01*
X86624Y29000D01*
X85968D01*
X86624D01*
X87280Y28344D01*
Y27688D01*
X86624Y27032D01*
X85312D01*
X84656Y27688D01*
X26344Y97312D02*
X25688Y97968D01*
X24376D01*
X23720Y97312D01*
Y94688D01*
X24376Y94032D01*
X25688D01*
X26344Y94688D01*
X30280Y97968D02*
X28968Y97312D01*
X27656Y96000D01*
Y94688D01*
X28312Y94032D01*
X29624D01*
X30280Y94688D01*
Y95344D01*
X29624Y96000D01*
X27656D01*
X55000Y38312D02*
X54344Y38968D01*
X53032D01*
X52376Y38312D01*
Y35688D01*
X53032Y35032D01*
X54344D01*
X55000Y35688D01*
X56312Y35032D02*
X57624D01*
X56968D01*
Y38968D01*
X56312Y38312D01*
D12*
X29996Y117900D02*
Y111996D01*
X32948D01*
X33932Y112980D01*
Y116916D01*
X32948Y117900D01*
X29996D01*
X38851Y111996D02*
X36884D01*
X35900Y112980D01*
Y114948D01*
X36884Y115932D01*
X38851D01*
X39835Y114948D01*
Y113964D01*
X35900D01*
X45739Y115932D02*
X42787D01*
X41803Y114948D01*
Y112980D01*
X42787Y111996D01*
X45739D01*
X48691D02*
X50659D01*
X51643Y112980D01*
Y114948D01*
X50659Y115932D01*
X48691D01*
X47707Y114948D01*
Y112980D01*
X48691Y111996D01*
X53610Y117900D02*
Y111996D01*
X57546D01*
X63450Y117900D02*
X59514D01*
Y111996D01*
X63450D01*
X59514Y114948D02*
X61482D01*
X65418Y117900D02*
Y111996D01*
X68370D01*
X69353Y112980D01*
Y116916D01*
X68370Y117900D01*
X65418D01*
M02*
