G04*
G04 #@! TF.GenerationSoftware,Altium Limited,Altium Designer,22.3.1 (43)*
G04*
G04 Layer_Physical_Order=4*
G04 Layer_Color=16711680*
%FSLAX25Y25*%
%MOIN*%
G70*
G04*
G04 #@! TF.SameCoordinates,8B7F2328-CF97-48C8-8425-EDDF2E2766CF*
G04*
G04*
G04 #@! TF.FilePolarity,Positive*
G04*
G01*
G75*
%ADD46C,0.01968*%
%ADD47C,0.01500*%
%ADD48C,0.06000*%
%ADD49R,0.04331X0.04331*%
%ADD50C,0.04331*%
%ADD51C,0.05906*%
%ADD52R,0.05906X0.05906*%
%ADD53C,0.07284*%
%ADD54C,0.04921*%
%ADD55C,0.01575*%
%ADD63C,0.01000*%
G36*
X154497Y140674D02*
X156389Y140167D01*
X158199Y139417D01*
X159896Y138437D01*
X161450Y137245D01*
X162835Y135860D01*
X164028Y134305D01*
X165007Y132609D01*
X165757Y130798D01*
X166264Y128906D01*
X166520Y126964D01*
Y125984D01*
Y15748D01*
Y14769D01*
X166264Y12826D01*
X165757Y10934D01*
X165007Y9124D01*
X164028Y7427D01*
X162835Y5873D01*
X161450Y4487D01*
X159896Y3295D01*
X158199Y2315D01*
X156389Y1565D01*
X154497Y1058D01*
X152554Y803D01*
X14769D01*
X12826Y1058D01*
X10934Y1565D01*
X9124Y2315D01*
X7427Y3295D01*
X5873Y4487D01*
X4487Y5873D01*
X3295Y7427D01*
X2315Y9124D01*
X1565Y10934D01*
X1058Y12826D01*
X803Y14769D01*
Y15748D01*
Y125984D01*
Y126964D01*
X1058Y128906D01*
X1565Y130798D01*
X2315Y132609D01*
X3295Y134305D01*
X4487Y135859D01*
X5873Y137245D01*
X7427Y138437D01*
X9124Y139417D01*
X10934Y140167D01*
X12826Y140674D01*
X14769Y140929D01*
X152554D01*
X154497Y140674D01*
D02*
G37*
%LPC*%
G36*
X119898Y137608D02*
Y134071D01*
X123435D01*
X123223Y134862D01*
X122612Y135921D01*
X121748Y136785D01*
X120689Y137396D01*
X119898Y137608D01*
D02*
G37*
G36*
X91551D02*
Y134071D01*
X95089D01*
X94877Y134862D01*
X94266Y135921D01*
X93401Y136785D01*
X92343Y137396D01*
X91551Y137608D01*
D02*
G37*
G36*
X89551D02*
X88759Y137396D01*
X87701Y136785D01*
X86837Y135921D01*
X86226Y134862D01*
X86014Y134071D01*
X89551D01*
Y137608D01*
D02*
G37*
G36*
X117898D02*
X117106Y137396D01*
X116048Y136785D01*
X115183Y135921D01*
X114572Y134862D01*
X114360Y134071D01*
X117898D01*
Y137608D01*
D02*
G37*
G36*
X123435Y132071D02*
X119898D01*
Y128533D01*
X120689Y128745D01*
X121748Y129357D01*
X122612Y130221D01*
X123223Y131279D01*
X123435Y132071D01*
D02*
G37*
G36*
X95089D02*
X91551D01*
Y128533D01*
X92343Y128745D01*
X93401Y129357D01*
X94266Y130221D01*
X94877Y131279D01*
X95089Y132071D01*
D02*
G37*
G36*
X89551D02*
X86014D01*
X86226Y131279D01*
X86837Y130221D01*
X87701Y129357D01*
X88759Y128745D01*
X89551Y128533D01*
Y132071D01*
D02*
G37*
G36*
X117898D02*
X114360D01*
X114572Y131279D01*
X115183Y130221D01*
X116048Y129357D01*
X117106Y128745D01*
X117898Y128533D01*
Y132071D01*
D02*
G37*
G36*
X34174Y130721D02*
X33542D01*
X32959Y130480D01*
X32513Y130033D01*
X32271Y129450D01*
Y128818D01*
X32513Y128235D01*
X32959Y127788D01*
X33542Y127547D01*
X34174D01*
X34758Y127788D01*
X35204Y128235D01*
X35446Y128818D01*
Y129450D01*
X35204Y130033D01*
X34758Y130480D01*
X34174Y130721D01*
D02*
G37*
G36*
X96177Y125953D02*
Y123638D01*
X98492D01*
X98402Y123974D01*
X97946Y124763D01*
X97302Y125407D01*
X96513Y125863D01*
X96177Y125953D01*
D02*
G37*
G36*
X115272D02*
Y123638D01*
X117586D01*
X117496Y123974D01*
X117041Y124763D01*
X116396Y125407D01*
X115607Y125863D01*
X115272Y125953D01*
D02*
G37*
G36*
X113272Y125952D02*
X112936Y125863D01*
X112147Y125407D01*
X111503Y124763D01*
X111047Y123974D01*
X110957Y123638D01*
X113272D01*
Y125952D01*
D02*
G37*
G36*
X94177Y125953D02*
X93841Y125863D01*
X93052Y125407D01*
X92408Y124763D01*
X91952Y123974D01*
X91862Y123638D01*
X94177D01*
Y125953D01*
D02*
G37*
G36*
X113272Y121638D02*
X110957D01*
X111047Y121302D01*
X111503Y120513D01*
X112147Y119869D01*
X112936Y119413D01*
X113272Y119323D01*
Y121638D01*
D02*
G37*
G36*
X98492D02*
X96177D01*
Y119323D01*
X96513Y119413D01*
X97302Y119869D01*
X97946Y120513D01*
X98402Y121302D01*
X98492Y121638D01*
D02*
G37*
G36*
X94177D02*
X91862D01*
X91952Y121302D01*
X92408Y120513D01*
X93052Y119869D01*
X93841Y119413D01*
X94177Y119323D01*
Y121638D01*
D02*
G37*
G36*
X117586D02*
X115272D01*
Y119323D01*
X115607Y119413D01*
X116396Y119869D01*
X117041Y120513D01*
X117496Y121302D01*
X117586Y121638D01*
D02*
G37*
G36*
X81024Y121272D02*
X80393D01*
X79809Y121031D01*
X79363Y120584D01*
X79121Y120001D01*
Y119369D01*
X79363Y118786D01*
X79809Y118339D01*
X80393Y118098D01*
X81024D01*
X81608Y118339D01*
X82054Y118786D01*
X82296Y119369D01*
Y120001D01*
X82054Y120584D01*
X81608Y121031D01*
X81024Y121272D01*
D02*
G37*
G36*
X16732Y138484D02*
X14764D01*
X12821Y138177D01*
X10950Y137568D01*
X9197Y136675D01*
X7605Y135519D01*
X6214Y134127D01*
X5057Y132536D01*
X4164Y130783D01*
X3556Y128911D01*
X3248Y126968D01*
Y125001D01*
X3556Y123057D01*
X4164Y121186D01*
X5057Y119433D01*
X6214Y117841D01*
X7605Y116450D01*
X9197Y115293D01*
X10950Y114400D01*
X12821Y113792D01*
X14764Y113484D01*
X16732D01*
X18675Y113792D01*
X20546Y114400D01*
X22299Y115293D01*
X23891Y116450D01*
X25282Y117841D01*
X26439Y119433D01*
X27332Y121186D01*
X27940Y123057D01*
X28248Y125001D01*
Y126968D01*
X27940Y128911D01*
X27332Y130783D01*
X26439Y132536D01*
X25282Y134127D01*
X23891Y135519D01*
X22299Y136675D01*
X20546Y137568D01*
X18675Y138177D01*
X16732Y138484D01*
D02*
G37*
G36*
X152559Y138484D02*
X150591D01*
X148648Y138176D01*
X146776Y137568D01*
X145023Y136675D01*
X143432Y135519D01*
X142040Y134127D01*
X140884Y132536D01*
X139991Y130783D01*
X139383Y128911D01*
X139075Y126968D01*
Y125001D01*
X139383Y123057D01*
X139991Y121186D01*
X140884Y119433D01*
X142040Y117841D01*
X143432Y116450D01*
X145023Y115293D01*
X146776Y114400D01*
X148648Y113792D01*
X150591Y113484D01*
X152559D01*
X154502Y113792D01*
X156373Y114400D01*
X158126Y115293D01*
X159718Y116450D01*
X161109Y117841D01*
X162266Y119433D01*
X163159Y121186D01*
X163767Y123057D01*
X164075Y125001D01*
Y126968D01*
X163767Y128911D01*
X163159Y130783D01*
X162266Y132536D01*
X161109Y134127D01*
X159718Y135519D01*
X158126Y136675D01*
X156373Y137568D01*
X154502Y138176D01*
X152559Y138484D01*
D02*
G37*
G36*
X132205Y103950D02*
X131574D01*
X130991Y103708D01*
X130544Y103261D01*
X130302Y102678D01*
Y102047D01*
X130544Y101463D01*
X130991Y101016D01*
X131574Y100775D01*
X132205D01*
X132789Y101016D01*
X133236Y101463D01*
X133477Y102047D01*
Y102678D01*
X133236Y103261D01*
X132789Y103708D01*
X132205Y103950D01*
D02*
G37*
G36*
X24619Y99816D02*
X18688D01*
Y93885D01*
X24619D01*
Y99816D01*
D02*
G37*
G36*
X67639Y95288D02*
X67007D01*
X66424Y95047D01*
X65977Y94600D01*
X65735Y94016D01*
Y93385D01*
X65977Y92802D01*
X66424Y92355D01*
X67007Y92113D01*
X67639D01*
X68222Y92355D01*
X68669Y92802D01*
X68910Y93385D01*
Y94016D01*
X68669Y94600D01*
X68222Y95047D01*
X67639Y95288D01*
D02*
G37*
G36*
X123917Y104181D02*
X123917Y104181D01*
X117323D01*
X116627Y104043D01*
X116036Y103649D01*
X115642Y103058D01*
X115504Y102362D01*
X115642Y101666D01*
X116036Y101076D01*
X116627Y100681D01*
X117323Y100543D01*
X123164D01*
X133655Y90052D01*
X133655Y90052D01*
X134245Y89658D01*
X134941Y89519D01*
X139075D01*
X139771Y89658D01*
X140361Y90052D01*
X140755Y90642D01*
X140894Y91339D01*
X140755Y92035D01*
X140361Y92625D01*
X139771Y93019D01*
X139075Y93158D01*
X135695D01*
X125204Y103649D01*
X124613Y104043D01*
X123917Y104181D01*
D02*
G37*
G36*
X22044Y91942D02*
X21263D01*
X20509Y91740D01*
X19833Y91349D01*
X19281Y90797D01*
X18890Y90121D01*
X18688Y89367D01*
Y88586D01*
X18890Y87832D01*
X19281Y87156D01*
X19833Y86603D01*
X20509Y86213D01*
X21263Y86011D01*
X22044D01*
X22798Y86213D01*
X23474Y86603D01*
X24026Y87156D01*
X24417Y87832D01*
X24619Y88586D01*
Y89367D01*
X24417Y90121D01*
X24026Y90797D01*
X23474Y91349D01*
X22798Y91740D01*
X22044Y91942D01*
D02*
G37*
G36*
X108977Y73241D02*
X108346D01*
X107762Y72999D01*
X107316Y72553D01*
X107074Y71969D01*
Y71338D01*
X107316Y70754D01*
X107762Y70308D01*
X108346Y70066D01*
X108977D01*
X109561Y70308D01*
X110007Y70754D01*
X110249Y71338D01*
Y71969D01*
X110007Y72553D01*
X109561Y72999D01*
X108977Y73241D01*
D02*
G37*
G36*
X58583Y70879D02*
X57952D01*
X57368Y70637D01*
X56922Y70191D01*
X56680Y69607D01*
Y68976D01*
X56687Y68959D01*
Y60989D01*
X48429Y52731D01*
X48412Y52724D01*
X47965Y52277D01*
X47724Y51694D01*
Y51062D01*
X47965Y50479D01*
X48412Y50032D01*
X48995Y49791D01*
X49627D01*
X50210Y50032D01*
X50657Y50479D01*
X50664Y50496D01*
X59385Y59217D01*
X59728Y59730D01*
X59848Y60335D01*
Y68959D01*
X59855Y68976D01*
Y69607D01*
X59614Y70191D01*
X59167Y70637D01*
X58583Y70879D01*
D02*
G37*
G36*
X18323Y106905D02*
X5402D01*
Y32653D01*
X18323D01*
Y106905D01*
D02*
G37*
G36*
X77481Y21666D02*
X76850D01*
X76266Y21425D01*
X75820Y20978D01*
X75578Y20394D01*
Y19763D01*
X75820Y19180D01*
X76266Y18733D01*
X76850Y18491D01*
X77481D01*
X78065Y18733D01*
X78511Y19180D01*
X78753Y19763D01*
Y20394D01*
X78511Y20978D01*
X78065Y21425D01*
X77481Y21666D01*
D02*
G37*
G36*
X131551Y17210D02*
Y14386D01*
X134375D01*
X134235Y14911D01*
X133714Y15813D01*
X132978Y16549D01*
X132077Y17069D01*
X131551Y17210D01*
D02*
G37*
G36*
X129551D02*
X129025Y17069D01*
X128124Y16549D01*
X127388Y15813D01*
X126868Y14911D01*
X126727Y14386D01*
X129551D01*
Y17210D01*
D02*
G37*
G36*
X81812Y14973D02*
X81180D01*
X80597Y14732D01*
X80150Y14285D01*
X79909Y13702D01*
Y13070D01*
X80150Y12487D01*
X80597Y12040D01*
X81180Y11798D01*
X81812D01*
X82395Y12040D01*
X82842Y12487D01*
X83083Y13070D01*
Y13702D01*
X82842Y14285D01*
X82395Y14732D01*
X81812Y14973D01*
D02*
G37*
G36*
X75984Y80321D02*
X47244D01*
X46639Y80200D01*
X46127Y79858D01*
X40456Y74187D01*
X40439Y74180D01*
X39993Y73734D01*
X39751Y73150D01*
Y72519D01*
X39993Y71935D01*
X40439Y71489D01*
X41023Y71247D01*
X41654D01*
X42238Y71489D01*
X42684Y71935D01*
X42691Y71952D01*
X47899Y77160D01*
X75330D01*
X80309Y72180D01*
Y61024D01*
X80430Y60419D01*
X80772Y59906D01*
X118971Y21708D01*
Y16807D01*
X118247Y16389D01*
X117548Y15690D01*
X117054Y14834D01*
X116798Y13880D01*
Y12892D01*
X117054Y11937D01*
X117548Y11082D01*
X118247Y10383D01*
X119103Y9889D01*
X120057Y9633D01*
X121045D01*
X122000Y9889D01*
X122855Y10383D01*
X123554Y11082D01*
X124048Y11937D01*
X124304Y12892D01*
Y13880D01*
X124048Y14834D01*
X123554Y15690D01*
X122855Y16389D01*
X122132Y16807D01*
Y22362D01*
X122011Y22967D01*
X121669Y23480D01*
X83470Y61678D01*
Y72502D01*
X83477Y72519D01*
Y73150D01*
X83236Y73734D01*
X82789Y74180D01*
X82772Y74187D01*
X77102Y79858D01*
X76589Y80200D01*
X75984Y80321D01*
D02*
G37*
G36*
X111045Y17139D02*
X110057D01*
X109103Y16883D01*
X108247Y16389D01*
X107548Y15690D01*
X107054Y14834D01*
X106798Y13880D01*
Y12892D01*
X107054Y11937D01*
X107548Y11082D01*
X108247Y10383D01*
X109103Y9889D01*
X110057Y9633D01*
X111045D01*
X112000Y9889D01*
X112855Y10383D01*
X113554Y11082D01*
X114048Y11937D01*
X114304Y12892D01*
Y13880D01*
X114048Y14834D01*
X113554Y15690D01*
X112855Y16389D01*
X112000Y16883D01*
X111045Y17139D01*
D02*
G37*
G36*
X101045D02*
X100057D01*
X99103Y16883D01*
X98247Y16389D01*
X97548Y15690D01*
X97054Y14834D01*
X96798Y13880D01*
Y12892D01*
X97054Y11937D01*
X97548Y11082D01*
X98247Y10383D01*
X99103Y9889D01*
X100057Y9633D01*
X101045D01*
X102000Y9889D01*
X102855Y10383D01*
X103554Y11082D01*
X104048Y11937D01*
X104304Y12892D01*
Y13880D01*
X104048Y14834D01*
X103554Y15690D01*
X102855Y16389D01*
X102000Y16883D01*
X101045Y17139D01*
D02*
G37*
G36*
X94304D02*
X86798D01*
Y9633D01*
X94304D01*
Y17139D01*
D02*
G37*
G36*
X134375Y12386D02*
X131551D01*
Y9562D01*
X132077Y9702D01*
X132978Y10223D01*
X133714Y10959D01*
X134235Y11860D01*
X134375Y12386D01*
D02*
G37*
G36*
X129551D02*
X126727D01*
X126868Y11860D01*
X127388Y10959D01*
X128124Y10223D01*
X129025Y9702D01*
X129551Y9562D01*
Y12386D01*
D02*
G37*
G36*
X16732Y28248D02*
X14764D01*
X12821Y27940D01*
X10950Y27332D01*
X9197Y26439D01*
X7605Y25282D01*
X6214Y23891D01*
X5057Y22299D01*
X4164Y20546D01*
X3556Y18675D01*
X3248Y16732D01*
Y14764D01*
X3556Y12821D01*
X4164Y10950D01*
X5057Y9197D01*
X6214Y7605D01*
X7605Y6214D01*
X9197Y5057D01*
X10950Y4164D01*
X12821Y3556D01*
X14764Y3248D01*
X16732D01*
X18675Y3556D01*
X20546Y4164D01*
X22299Y5057D01*
X23891Y6214D01*
X25282Y7605D01*
X26439Y9197D01*
X27332Y10950D01*
X27940Y12821D01*
X28248Y14764D01*
Y16732D01*
X27940Y18675D01*
X27332Y20546D01*
X26439Y22299D01*
X25282Y23891D01*
X23891Y25282D01*
X22299Y26439D01*
X20546Y27332D01*
X18675Y27940D01*
X16732Y28248D01*
D02*
G37*
G36*
X152559Y28248D02*
X150591D01*
X148648Y27940D01*
X146776Y27332D01*
X145023Y26439D01*
X143432Y25282D01*
X142040Y23891D01*
X140884Y22299D01*
X139991Y20546D01*
X139383Y18675D01*
X139075Y16732D01*
Y14764D01*
X139383Y12821D01*
X139991Y10950D01*
X140884Y9197D01*
X142040Y7605D01*
X143432Y6214D01*
X145023Y5057D01*
X146776Y4164D01*
X148648Y3556D01*
X150591Y3248D01*
X152559D01*
X154502Y3556D01*
X156373Y4164D01*
X158126Y5057D01*
X159718Y6214D01*
X161109Y7605D01*
X162266Y9197D01*
X163159Y10950D01*
X163767Y12821D01*
X164075Y14764D01*
Y16732D01*
X163767Y18675D01*
X163159Y20546D01*
X162266Y22299D01*
X161109Y23891D01*
X159718Y25282D01*
X158126Y26439D01*
X156373Y27332D01*
X154502Y27940D01*
X152559Y28248D01*
D02*
G37*
%LPD*%
D46*
X117323Y102362D02*
X123917D01*
X134941Y91339D01*
X139075D01*
D47*
X120551Y13386D02*
Y22362D01*
X81890Y61024D02*
X120551Y22362D01*
X81890Y61024D02*
Y72835D01*
X75984Y78740D02*
X81890Y72835D01*
X41339D02*
X47244Y78740D01*
X75984D01*
X58268Y60335D02*
Y69291D01*
X49311Y51378D02*
X58268Y60335D01*
D48*
X15748Y125984D02*
D03*
Y15748D02*
D03*
X151575Y15748D02*
D03*
Y125984D02*
D03*
D49*
X21654Y96850D02*
D03*
D50*
Y88976D02*
D03*
D51*
X110551Y13386D02*
D03*
X130551D02*
D03*
X120551D02*
D03*
X100551D02*
D03*
D52*
X90551D02*
D03*
D53*
X118898Y133071D02*
D03*
X90551D02*
D03*
D54*
X95177Y122638D02*
D03*
X114272D02*
D03*
D55*
X106693Y43701D02*
D03*
X63092Y73052D02*
D03*
X70178D02*
D03*
X52362Y61811D02*
D03*
X54724Y46457D02*
D03*
Y40157D02*
D03*
X106693Y28346D02*
D03*
X54724Y33858D02*
D03*
X42913Y35827D02*
D03*
X40157Y19685D02*
D03*
X55905Y20079D02*
D03*
X96457Y21654D02*
D03*
X97244Y67323D02*
D03*
X106693Y66929D02*
D03*
Y49606D02*
D03*
Y58661D02*
D03*
X108661Y71653D02*
D03*
X99213Y79528D02*
D03*
X58268Y69291D02*
D03*
X49311Y51378D02*
D03*
X103543Y111417D02*
D03*
X94488D02*
D03*
X33858Y107874D02*
D03*
X53543Y94488D02*
D03*
X37402Y53150D02*
D03*
X148031Y85039D02*
D03*
X56299Y124409D02*
D03*
X49606D02*
D03*
X50000Y106299D02*
D03*
X32677Y81496D02*
D03*
X33858Y129134D02*
D03*
X80709Y119685D02*
D03*
X129528Y71653D02*
D03*
X83858Y93701D02*
D03*
X75590D02*
D03*
X41339Y72835D02*
D03*
X81890D02*
D03*
X94488Y102362D02*
D03*
X103543D02*
D03*
X27559Y114173D02*
D03*
X67323Y93701D02*
D03*
X77165Y20079D02*
D03*
X131890Y102362D02*
D03*
X117323D02*
D03*
X80709Y112205D02*
D03*
X129528Y55118D02*
D03*
Y46063D02*
D03*
X141732Y53937D02*
D03*
X158465Y73819D02*
D03*
X21260Y37008D02*
D03*
Y68898D02*
D03*
X124016Y81496D02*
D03*
X114173D02*
D03*
X129528Y63386D02*
D03*
X81496Y13386D02*
D03*
X150787Y53937D02*
D03*
X139370Y79528D02*
D03*
X139075Y91339D02*
D03*
D63*
X7402Y104905D02*
X14093D01*
X10747D01*
Y100445D01*
X7402D01*
X14093D01*
X9632Y97100D02*
Y94869D01*
X10747Y93754D01*
X14093D01*
Y97100D01*
X12978Y98215D01*
X11862Y97100D01*
Y93754D01*
X16323Y91524D02*
X9632D01*
Y88179D01*
X10747Y87063D01*
X12978D01*
X14093Y88179D01*
Y91524D01*
X16323Y84833D02*
X9632D01*
Y81488D01*
X10747Y80373D01*
X12978D01*
X14093Y81488D01*
Y84833D01*
X9632Y78142D02*
X12978D01*
X14093Y77027D01*
Y73682D01*
X15208D01*
X16323Y74797D01*
Y75912D01*
X14093Y73682D02*
X9632D01*
X7402Y71452D02*
X14093D01*
Y68106D01*
X12978Y66991D01*
X8517D01*
X7402Y68106D01*
Y71452D01*
X14093Y63646D02*
Y61416D01*
X12978Y60300D01*
X10747D01*
X9632Y61416D01*
Y63646D01*
X10747Y64761D01*
X12978D01*
X14093Y63646D01*
Y58070D02*
X9632D01*
Y54725D01*
X10747Y53610D01*
X14093D01*
X9632Y51380D02*
X12978D01*
X14093Y50264D01*
Y46919D01*
X9632D01*
X8517Y43574D02*
X9632D01*
Y44689D01*
Y42459D01*
Y43574D01*
X12978D01*
X14093Y42459D01*
Y39113D02*
Y35768D01*
X12978Y34653D01*
X11862Y35768D01*
Y37998D01*
X10747Y39113D01*
X9632Y37998D01*
Y34653D01*
M02*
