G04*
G04 #@! TF.GenerationSoftware,Altium Limited,Altium Designer,22.5.1 (42)*
G04*
G04 Layer_Physical_Order=4*
G04 Layer_Color=16711680*
%FSLAX25Y25*%
%MOIN*%
G70*
G04*
G04 #@! TF.SameCoordinates,96F4DE00-7DBF-44AA-9512-03554E38B811*
G04*
G04*
G04 #@! TF.FilePolarity,Positive*
G04*
G01*
G75*
%ADD45C,0.02000*%
%ADD47C,0.01000*%
%ADD49C,0.05906*%
%ADD50R,0.05906X0.05906*%
%ADD51C,0.07284*%
%ADD52C,0.04921*%
%ADD53C,0.06000*%
%ADD54R,0.04331X0.04331*%
%ADD55C,0.04331*%
%ADD56C,0.01772*%
G36*
X135776Y122954D02*
X137573Y122473D01*
X139293Y121760D01*
X140904Y120830D01*
X142381Y119697D01*
X143697Y118381D01*
X144830Y116904D01*
X145760Y115293D01*
X146473Y113573D01*
X146954Y111776D01*
X147197Y109931D01*
Y109000D01*
Y15000D01*
Y14070D01*
X146954Y12224D01*
X146473Y10427D01*
X145760Y8707D01*
X144830Y7096D01*
X143697Y5619D01*
X142381Y4303D01*
X140904Y3170D01*
X139293Y2240D01*
X137573Y1527D01*
X135776Y1046D01*
X133931Y803D01*
X14070D01*
X12224Y1046D01*
X10427Y1527D01*
X8707Y2240D01*
X7096Y3170D01*
X5619Y4303D01*
X4303Y5619D01*
X3170Y7096D01*
X2240Y8707D01*
X1527Y10427D01*
X1046Y12224D01*
X803Y14070D01*
Y15000D01*
Y109000D01*
Y109931D01*
X1046Y111776D01*
X1527Y113573D01*
X2240Y115293D01*
X3170Y116904D01*
X4303Y118381D01*
X5619Y119697D01*
X7096Y120830D01*
X8707Y121760D01*
X10427Y122473D01*
X12224Y122954D01*
X14070Y123197D01*
X133931D01*
X135776Y122954D01*
D02*
G37*
%LPC*%
G36*
X106173Y121550D02*
Y118000D01*
X109723D01*
X109695Y118212D01*
X109228Y119341D01*
X108484Y120310D01*
X107514Y121054D01*
X106385Y121522D01*
X106173Y121550D01*
D02*
G37*
G36*
X77827Y121550D02*
Y118000D01*
X81377D01*
X81349Y118212D01*
X80881Y119341D01*
X80137Y120310D01*
X79168Y121054D01*
X78039Y121522D01*
X77827Y121550D01*
D02*
G37*
G36*
X75827D02*
X75615Y121522D01*
X74486Y121054D01*
X73516Y120310D01*
X72772Y119341D01*
X72304Y118212D01*
X72277Y118000D01*
X75827D01*
Y121550D01*
D02*
G37*
G36*
X104173D02*
X103962Y121522D01*
X102832Y121054D01*
X101863Y120310D01*
X101119Y119341D01*
X100651Y118212D01*
X100623Y118000D01*
X104173D01*
Y121550D01*
D02*
G37*
G36*
X109723Y116000D02*
X106173D01*
Y112450D01*
X106385Y112478D01*
X107514Y112945D01*
X108484Y113689D01*
X109228Y114659D01*
X109695Y115788D01*
X109723Y116000D01*
D02*
G37*
G36*
X81377D02*
X77827D01*
Y112450D01*
X78039Y112478D01*
X79168Y112945D01*
X80137Y113689D01*
X80881Y114659D01*
X81349Y115788D01*
X81377Y116000D01*
D02*
G37*
G36*
X75827D02*
X72277D01*
X72304Y115788D01*
X72772Y114659D01*
X73516Y113689D01*
X74486Y112945D01*
X75615Y112478D01*
X75827Y112450D01*
Y116000D01*
D02*
G37*
G36*
X104173D02*
X100623D01*
X100651Y115788D01*
X101119Y114659D01*
X101863Y113689D01*
X102832Y112945D01*
X103962Y112478D01*
X104173Y112450D01*
Y116000D01*
D02*
G37*
G36*
X101547Y109898D02*
Y107567D01*
X103879D01*
X103570Y108312D01*
X103015Y109035D01*
X102293Y109590D01*
X101547Y109898D01*
D02*
G37*
G36*
X82453D02*
Y107567D01*
X84784D01*
X84476Y108312D01*
X83921Y109035D01*
X83198Y109590D01*
X82453Y109898D01*
D02*
G37*
G36*
X99547D02*
X98802Y109590D01*
X98079Y109035D01*
X97524Y108312D01*
X97216Y107567D01*
X99547D01*
Y109898D01*
D02*
G37*
G36*
X80453D02*
X79707Y109590D01*
X78985Y109035D01*
X78430Y108312D01*
X78121Y107567D01*
X80453D01*
Y109898D01*
D02*
G37*
G36*
X118000Y106706D02*
X117347Y106576D01*
X116794Y106206D01*
X116424Y105653D01*
X116294Y105000D01*
X116424Y104347D01*
X116794Y103794D01*
X117347Y103424D01*
X118000Y103294D01*
X118653Y103424D01*
X119206Y103794D01*
X119576Y104347D01*
X119706Y105000D01*
X119576Y105653D01*
X119206Y106206D01*
X118653Y106576D01*
X118000Y106706D01*
D02*
G37*
G36*
X84784Y105567D02*
X82453D01*
Y103235D01*
X83198Y103544D01*
X83921Y104099D01*
X84476Y104822D01*
X84784Y105567D01*
D02*
G37*
G36*
X103879D02*
X101547D01*
Y103235D01*
X102293Y103544D01*
X103015Y104099D01*
X103570Y104822D01*
X103879Y105567D01*
D02*
G37*
G36*
X99547D02*
X97216D01*
X97524Y104822D01*
X98079Y104099D01*
X98802Y103544D01*
X99547Y103235D01*
Y105567D01*
D02*
G37*
G36*
X80453D02*
X78121D01*
X78430Y104822D01*
X78985Y104099D01*
X79707Y103544D01*
X80453Y103235D01*
Y105567D01*
D02*
G37*
G36*
X133000Y121539D02*
X131038Y121384D01*
X129125Y120925D01*
X127308Y120172D01*
X125630Y119144D01*
X124134Y117866D01*
X122856Y116370D01*
X121828Y114692D01*
X121075Y112875D01*
X120616Y110961D01*
X120461Y109000D01*
X120616Y107038D01*
X121075Y105125D01*
X121828Y103308D01*
X122856Y101630D01*
X124134Y100134D01*
X125630Y98856D01*
X127308Y97828D01*
X129125Y97075D01*
X131038Y96616D01*
X133000Y96461D01*
X134961Y96616D01*
X136875Y97075D01*
X138692Y97828D01*
X140370Y98856D01*
X141866Y100134D01*
X143144Y101630D01*
X144172Y103308D01*
X144925Y105125D01*
X145384Y107038D01*
X145539Y109000D01*
X145384Y110961D01*
X144925Y112875D01*
X144172Y114692D01*
X143144Y116370D01*
X141866Y117866D01*
X140370Y119144D01*
X138692Y120172D01*
X136875Y120925D01*
X134961Y121384D01*
X133000Y121539D01*
D02*
G37*
G36*
X16000D02*
X14039Y121384D01*
X12125Y120925D01*
X10308Y120172D01*
X8630Y119144D01*
X7134Y117866D01*
X5856Y116370D01*
X4828Y114692D01*
X4075Y112875D01*
X3616Y110961D01*
X3461Y109000D01*
X3616Y107038D01*
X4075Y105125D01*
X4828Y103308D01*
X5856Y101630D01*
X7134Y100134D01*
X8630Y98856D01*
X10308Y97828D01*
X12125Y97075D01*
X14039Y96616D01*
X16000Y96461D01*
X17962Y96616D01*
X19875Y97075D01*
X21692Y97828D01*
X23370Y98856D01*
X24866Y100134D01*
X26144Y101630D01*
X27172Y103308D01*
X27925Y105125D01*
X28384Y107038D01*
X28539Y109000D01*
X28384Y110961D01*
X27925Y112875D01*
X27172Y114692D01*
X26144Y116370D01*
X24866Y117866D01*
X23370Y119144D01*
X21692Y120172D01*
X19875Y120925D01*
X17962Y121384D01*
X16000Y121539D01*
D02*
G37*
G36*
X91000Y99706D02*
X90347Y99576D01*
X89794Y99206D01*
X89424Y98653D01*
X89294Y98000D01*
X89424Y97347D01*
X89794Y96794D01*
X90347Y96424D01*
X91000Y96294D01*
X91653Y96424D01*
X92206Y96794D01*
X92576Y97347D01*
X92706Y98000D01*
X92576Y98653D01*
X92206Y99206D01*
X91653Y99576D01*
X91000Y99706D01*
D02*
G37*
G36*
X47500Y98706D02*
X46847Y98576D01*
X46294Y98206D01*
X45924Y97653D01*
X45794Y97000D01*
X45924Y96347D01*
X46294Y95794D01*
X46847Y95424D01*
X47500Y95294D01*
X48153Y95424D01*
X48706Y95794D01*
X49076Y96347D01*
X49206Y97000D01*
X49076Y97653D01*
X48706Y98206D01*
X48153Y98576D01*
X47500Y98706D01*
D02*
G37*
G36*
X104000Y96706D02*
X103347Y96576D01*
X102794Y96206D01*
X102424Y95653D01*
X102294Y95000D01*
X102424Y94347D01*
X102794Y93794D01*
X103347Y93424D01*
X104000Y93294D01*
X104653Y93424D01*
X105206Y93794D01*
X105576Y94347D01*
X105706Y95000D01*
X105576Y95653D01*
X105206Y96206D01*
X104653Y96576D01*
X104000Y96706D01*
D02*
G37*
G36*
X121000Y89706D02*
X120347Y89576D01*
X119794Y89206D01*
X119424Y88653D01*
X119294Y88000D01*
X119424Y87347D01*
X119794Y86794D01*
X120347Y86424D01*
X121000Y86294D01*
X121653Y86424D01*
X122206Y86794D01*
X122576Y87347D01*
X122706Y88000D01*
X122576Y88653D01*
X122206Y89206D01*
X121653Y89576D01*
X121000Y89706D01*
D02*
G37*
G36*
X107000D02*
X106347Y89576D01*
X105794Y89206D01*
X105424Y88653D01*
X105294Y88000D01*
X105424Y87347D01*
X105794Y86794D01*
X106347Y86424D01*
X107000Y86294D01*
X107653Y86424D01*
X108206Y86794D01*
X108576Y87347D01*
X108706Y88000D01*
X108576Y88653D01*
X108206Y89206D01*
X107653Y89576D01*
X107000Y89706D01*
D02*
G37*
G36*
X125000Y87706D02*
X124347Y87576D01*
X123794Y87206D01*
X123424Y86653D01*
X123294Y86000D01*
X123424Y85347D01*
X123794Y84794D01*
X124347Y84424D01*
X125000Y84294D01*
X125653Y84424D01*
X126206Y84794D01*
X126576Y85347D01*
X126706Y86000D01*
X126576Y86653D01*
X126206Y87206D01*
X125653Y87576D01*
X125000Y87706D01*
D02*
G37*
G36*
X62000Y107706D02*
X61347Y107576D01*
X60794Y107206D01*
X60424Y106653D01*
X60294Y106000D01*
X60424Y105347D01*
X60794Y104794D01*
X61347Y104424D01*
X62000Y104294D01*
X62653Y104424D01*
X63047Y104687D01*
X69456D01*
X81687Y92456D01*
Y82047D01*
X81424Y81653D01*
X81294Y81000D01*
X81424Y80347D01*
X81794Y79794D01*
X82347Y79424D01*
X83000Y79294D01*
X83653Y79424D01*
X84206Y79794D01*
X84576Y80347D01*
X84706Y81000D01*
X84576Y81653D01*
X84313Y82047D01*
Y93000D01*
X84213Y93502D01*
X83928Y93928D01*
X70928Y106928D01*
X70502Y107213D01*
X70000Y107313D01*
X63047D01*
X62653Y107576D01*
X62000Y107706D01*
D02*
G37*
G36*
X32953Y84827D02*
X27047D01*
Y78921D01*
X32953D01*
Y84827D01*
D02*
G37*
G36*
X41000Y107706D02*
X40347Y107576D01*
X39794Y107206D01*
X39424Y106653D01*
X39294Y106000D01*
X39424Y105347D01*
X39687Y104953D01*
Y98000D01*
X39787Y97498D01*
X40072Y97072D01*
X46138Y91006D01*
X46055Y90381D01*
X45794Y90206D01*
X45424Y89653D01*
X45294Y89000D01*
X45424Y88347D01*
X45794Y87794D01*
X46347Y87424D01*
X47000Y87294D01*
X47653Y87424D01*
X48206Y87794D01*
X48381Y88055D01*
X49006Y88138D01*
X58072Y79072D01*
X58498Y78787D01*
X59000Y78687D01*
X67953D01*
X68347Y78424D01*
X69000Y78294D01*
X69653Y78424D01*
X70206Y78794D01*
X70576Y79347D01*
X70706Y80000D01*
X70576Y80653D01*
X70206Y81206D01*
X69653Y81576D01*
X69000Y81706D01*
X68347Y81576D01*
X67953Y81313D01*
X59544D01*
X42313Y98544D01*
Y104953D01*
X42576Y105347D01*
X42706Y106000D01*
X42576Y106653D01*
X42206Y107206D01*
X41653Y107576D01*
X41000Y107706D01*
D02*
G37*
G36*
X133500Y80706D02*
X132847Y80576D01*
X132294Y80206D01*
X131924Y79653D01*
X131794Y79000D01*
X131924Y78347D01*
X132294Y77794D01*
X132847Y77424D01*
X133500Y77294D01*
X134153Y77424D01*
X134706Y77794D01*
X135076Y78347D01*
X135206Y79000D01*
X135076Y79653D01*
X134706Y80206D01*
X134153Y80576D01*
X133500Y80706D01*
D02*
G37*
G36*
X49500Y74706D02*
X48847Y74576D01*
X48294Y74206D01*
X47924Y73653D01*
X47794Y73000D01*
X47924Y72347D01*
X48294Y71794D01*
X48847Y71424D01*
X49500Y71294D01*
X50153Y71424D01*
X50706Y71794D01*
X51076Y72347D01*
X51206Y73000D01*
X51076Y73653D01*
X50706Y74206D01*
X50153Y74576D01*
X49500Y74706D01*
D02*
G37*
G36*
X30000Y76978D02*
X29229Y76877D01*
X28511Y76579D01*
X27894Y76106D01*
X27421Y75489D01*
X27123Y74771D01*
X27022Y74000D01*
X27123Y73229D01*
X27421Y72511D01*
X27894Y71894D01*
X28511Y71421D01*
X29229Y71123D01*
X30000Y71022D01*
X30354Y71068D01*
X40211Y61211D01*
X40211Y61211D01*
X40803Y60816D01*
X41500Y60678D01*
X41500Y60678D01*
X64500D01*
X65197Y60816D01*
X65789Y61211D01*
X66184Y61803D01*
X66322Y62500D01*
X66184Y63197D01*
X65789Y63789D01*
X65197Y64184D01*
X64500Y64322D01*
X42255D01*
X32932Y73646D01*
X32978Y74000D01*
X32877Y74771D01*
X32579Y75489D01*
X32106Y76106D01*
X31489Y76579D01*
X30771Y76877D01*
X30000Y76978D01*
D02*
G37*
G36*
X101000Y59206D02*
X100347Y59076D01*
X99794Y58706D01*
X99424Y58153D01*
X99294Y57500D01*
X99424Y56847D01*
X99794Y56294D01*
X100347Y55924D01*
X101000Y55794D01*
X101653Y55924D01*
X102206Y56294D01*
X102576Y56847D01*
X102706Y57500D01*
X102576Y58153D01*
X102206Y58706D01*
X101653Y59076D01*
X101000Y59206D01*
D02*
G37*
G36*
X50000Y58706D02*
X49347Y58576D01*
X48794Y58206D01*
X48424Y57653D01*
X48294Y57000D01*
X48424Y56347D01*
X48794Y55794D01*
X49347Y55424D01*
X50000Y55294D01*
X50653Y55424D01*
X51206Y55794D01*
X51576Y56347D01*
X51706Y57000D01*
X51576Y57653D01*
X51206Y58206D01*
X50653Y58576D01*
X50000Y58706D01*
D02*
G37*
G36*
X103000Y52706D02*
X102347Y52576D01*
X101794Y52206D01*
X101424Y51653D01*
X101294Y51000D01*
X101424Y50347D01*
X101794Y49794D01*
X102347Y49424D01*
X103000Y49294D01*
X103653Y49424D01*
X104206Y49794D01*
X104576Y50347D01*
X104706Y51000D01*
X104576Y51653D01*
X104206Y52206D01*
X103653Y52576D01*
X103000Y52706D01*
D02*
G37*
G36*
X92000Y48706D02*
X91347Y48576D01*
X90794Y48206D01*
X90424Y47653D01*
X90294Y47000D01*
X90424Y46347D01*
X90794Y45794D01*
X91347Y45424D01*
X92000Y45294D01*
X92653Y45424D01*
X93206Y45794D01*
X93576Y46347D01*
X93706Y47000D01*
X93576Y47653D01*
X93206Y48206D01*
X92653Y48576D01*
X92000Y48706D01*
D02*
G37*
G36*
X84000D02*
X83347Y48576D01*
X82794Y48206D01*
X82424Y47653D01*
X82294Y47000D01*
X82424Y46347D01*
X82794Y45794D01*
X83347Y45424D01*
X84000Y45294D01*
X84653Y45424D01*
X85206Y45794D01*
X85576Y46347D01*
X85706Y47000D01*
X85576Y47653D01*
X85206Y48206D01*
X84653Y48576D01*
X84000Y48706D01*
D02*
G37*
G36*
X96000Y72706D02*
X95347Y72576D01*
X94794Y72206D01*
X94424Y71653D01*
X94331Y71188D01*
X58456Y35313D01*
X55047D01*
X54653Y35576D01*
X54000Y35706D01*
X53347Y35576D01*
X52794Y35206D01*
X52424Y34653D01*
X52294Y34000D01*
X52424Y33347D01*
X52794Y32794D01*
X53347Y32424D01*
X54000Y32294D01*
X54653Y32424D01*
X55047Y32687D01*
X59000D01*
X59502Y32787D01*
X59928Y33072D01*
X96188Y69331D01*
X96653Y69424D01*
X97206Y69794D01*
X97576Y70347D01*
X97706Y71000D01*
X97576Y71653D01*
X97206Y72206D01*
X96653Y72576D01*
X96000Y72706D01*
D02*
G37*
G36*
X21000Y94994D02*
X8079D01*
Y29006D01*
X21000D01*
Y94994D01*
D02*
G37*
G36*
X108500Y31206D02*
X107847Y31076D01*
X107294Y30706D01*
X106924Y30153D01*
X106794Y29500D01*
X106924Y28847D01*
X107294Y28294D01*
X107847Y27924D01*
X108500Y27794D01*
X109153Y27924D01*
X109706Y28294D01*
X110076Y28847D01*
X110206Y29500D01*
X110076Y30153D01*
X109706Y30706D01*
X109153Y31076D01*
X108500Y31206D01*
D02*
G37*
G36*
X102000D02*
X101347Y31076D01*
X100794Y30706D01*
X100424Y30153D01*
X100294Y29500D01*
X100424Y28847D01*
X100794Y28294D01*
X101347Y27924D01*
X102000Y27794D01*
X102653Y27924D01*
X103206Y28294D01*
X103576Y28847D01*
X103706Y29500D01*
X103576Y30153D01*
X103206Y30706D01*
X102653Y31076D01*
X102000Y31206D01*
D02*
G37*
G36*
X93000Y22855D02*
Y20000D01*
X95855D01*
X95851Y20032D01*
X95453Y20993D01*
X94819Y21819D01*
X93993Y22453D01*
X93032Y22851D01*
X93000Y22855D01*
D02*
G37*
G36*
X91000D02*
X90968Y22851D01*
X90007Y22453D01*
X89181Y21819D01*
X88547Y20993D01*
X88149Y20032D01*
X88145Y20000D01*
X91000D01*
Y22855D01*
D02*
G37*
G36*
X115740Y22740D02*
X108260D01*
Y15260D01*
X115740D01*
Y22740D01*
D02*
G37*
G36*
X102000Y22772D02*
X101024Y22644D01*
X100114Y22267D01*
X99332Y21667D01*
X98733Y20886D01*
X98356Y19976D01*
X98228Y19000D01*
X98356Y18024D01*
X98733Y17114D01*
X99332Y16332D01*
X100114Y15733D01*
X101024Y15356D01*
X102000Y15228D01*
X102976Y15356D01*
X103886Y15733D01*
X104667Y16332D01*
X105267Y17114D01*
X105644Y18024D01*
X105772Y19000D01*
X105644Y19976D01*
X105267Y20886D01*
X104667Y21667D01*
X103886Y22267D01*
X102976Y22644D01*
X102000Y22772D01*
D02*
G37*
G36*
X82000D02*
X81024Y22644D01*
X80114Y22267D01*
X79333Y21667D01*
X78733Y20886D01*
X78356Y19976D01*
X78228Y19000D01*
X78356Y18024D01*
X78733Y17114D01*
X79333Y16332D01*
X80114Y15733D01*
X81024Y15356D01*
X82000Y15228D01*
X82976Y15356D01*
X83886Y15733D01*
X84667Y16332D01*
X85267Y17114D01*
X85644Y18024D01*
X85772Y19000D01*
X85644Y19976D01*
X85267Y20886D01*
X84667Y21667D01*
X83886Y22267D01*
X82976Y22644D01*
X82000Y22772D01*
D02*
G37*
G36*
X72000D02*
X71024Y22644D01*
X70114Y22267D01*
X69332Y21667D01*
X68733Y20886D01*
X68356Y19976D01*
X68228Y19000D01*
X68356Y18024D01*
X68733Y17114D01*
X69332Y16332D01*
X70114Y15733D01*
X71024Y15356D01*
X72000Y15228D01*
X72976Y15356D01*
X73886Y15733D01*
X74668Y16332D01*
X75267Y17114D01*
X75644Y18024D01*
X75772Y19000D01*
X75644Y19976D01*
X75267Y20886D01*
X74668Y21667D01*
X73886Y22267D01*
X72976Y22644D01*
X72000Y22772D01*
D02*
G37*
G36*
X95855Y18000D02*
X93000D01*
Y15145D01*
X93032Y15149D01*
X93993Y15547D01*
X94819Y16181D01*
X95453Y17007D01*
X95851Y17968D01*
X95855Y18000D01*
D02*
G37*
G36*
X91000D02*
X88145D01*
X88149Y17968D01*
X88547Y17007D01*
X89181Y16181D01*
X90007Y15547D01*
X90968Y15149D01*
X91000Y15145D01*
Y18000D01*
D02*
G37*
G36*
X15000Y27539D02*
X13038Y27384D01*
X11125Y26925D01*
X9308Y26172D01*
X7630Y25144D01*
X6134Y23866D01*
X4856Y22370D01*
X3828Y20692D01*
X3075Y18875D01*
X2616Y16962D01*
X2461Y15000D01*
X2616Y13038D01*
X3075Y11125D01*
X3828Y9308D01*
X4856Y7630D01*
X6134Y6134D01*
X7630Y4856D01*
X9308Y3828D01*
X11125Y3075D01*
X13038Y2616D01*
X15000Y2461D01*
X16962Y2616D01*
X18875Y3075D01*
X20692Y3828D01*
X22370Y4856D01*
X23866Y6134D01*
X25144Y7630D01*
X26172Y9308D01*
X26925Y11125D01*
X27384Y13038D01*
X27539Y15000D01*
X27384Y16962D01*
X26925Y18875D01*
X26172Y20692D01*
X25144Y22370D01*
X23866Y23866D01*
X22370Y25144D01*
X20692Y26172D01*
X18875Y26925D01*
X16962Y27384D01*
X15000Y27539D01*
D02*
G37*
G36*
X133000Y26539D02*
X131038Y26384D01*
X129125Y25925D01*
X127308Y25172D01*
X125630Y24144D01*
X124134Y22866D01*
X122856Y21370D01*
X121828Y19692D01*
X121075Y17875D01*
X120616Y15961D01*
X120461Y14000D01*
X120616Y12038D01*
X121075Y10125D01*
X121828Y8308D01*
X122856Y6630D01*
X124134Y5134D01*
X125630Y3856D01*
X127308Y2828D01*
X129125Y2075D01*
X131038Y1616D01*
X133000Y1461D01*
X134961Y1616D01*
X136875Y2075D01*
X138692Y2828D01*
X140370Y3856D01*
X141866Y5134D01*
X143144Y6630D01*
X144172Y8308D01*
X144925Y10125D01*
X145384Y12038D01*
X145539Y14000D01*
X145384Y15961D01*
X144925Y17875D01*
X144172Y19692D01*
X143144Y21370D01*
X141866Y22866D01*
X140370Y24144D01*
X138692Y25172D01*
X136875Y25925D01*
X134961Y26384D01*
X133000Y26539D01*
D02*
G37*
%LPD*%
D45*
X30000Y74000D02*
X41500Y62500D01*
X64500D01*
D47*
X41000Y98000D02*
Y106000D01*
X59000Y80000D02*
X69000D01*
X41000Y98000D02*
X59000Y80000D01*
X62000Y106000D02*
X70000D01*
X83000Y81000D02*
Y93000D01*
X70000Y106000D02*
X83000Y93000D01*
X59000Y34000D02*
X96000Y71000D01*
X54000Y34000D02*
X59000D01*
X11129Y92994D02*
X17032D01*
X14080D01*
Y89058D01*
X11129D01*
X17032D01*
X13096Y86106D02*
Y84139D01*
X14080Y83154D01*
X17032D01*
Y86106D01*
X16048Y87090D01*
X15064Y86106D01*
Y83154D01*
X19000Y81187D02*
X13096D01*
Y78235D01*
X14080Y77251D01*
X16048D01*
X17032Y78235D01*
Y81187D01*
X19000Y75283D02*
X13096D01*
Y72331D01*
X14080Y71347D01*
X16048D01*
X17032Y72331D01*
Y75283D01*
X13096Y69380D02*
X16048D01*
X17032Y68396D01*
Y65444D01*
X18016D01*
X19000Y66428D01*
Y67412D01*
X17032Y65444D02*
X13096D01*
X11129Y63476D02*
X17032D01*
Y60524D01*
X16048Y59540D01*
X12112D01*
X11129Y60524D01*
Y63476D01*
X17032Y56588D02*
Y54620D01*
X16048Y53636D01*
X14080D01*
X13096Y54620D01*
Y56588D01*
X14080Y57572D01*
X16048D01*
X17032Y56588D01*
Y51669D02*
X13096D01*
Y48717D01*
X14080Y47733D01*
X17032D01*
X13096Y45765D02*
X16048D01*
X17032Y44781D01*
Y41829D01*
X13096D01*
X12112Y38878D02*
X13096D01*
Y39862D01*
Y37894D01*
Y38878D01*
X16048D01*
X17032Y37894D01*
Y34942D02*
Y31990D01*
X16048Y31006D01*
X15064Y31990D01*
Y33958D01*
X14080Y34942D01*
X13096Y33958D01*
Y31006D01*
D49*
X72000Y19000D02*
D03*
X82000D02*
D03*
X92000D02*
D03*
X102000D02*
D03*
D50*
X112000D02*
D03*
D51*
X105173Y117000D02*
D03*
X76827D02*
D03*
D52*
X81453Y106567D02*
D03*
X100547D02*
D03*
D53*
X16000Y109000D02*
D03*
X15000Y15000D02*
D03*
X133000Y14000D02*
D03*
Y109000D02*
D03*
D54*
X30000Y81874D02*
D03*
D55*
Y74000D02*
D03*
D56*
X133500Y79000D02*
D03*
X125000Y86000D02*
D03*
X108500Y29500D02*
D03*
X102000D02*
D03*
X42500Y16000D02*
D03*
X23000Y78500D02*
D03*
X47500Y106000D02*
D03*
X138000Y93000D02*
D03*
X133500Y53000D02*
D03*
X127500Y72500D02*
D03*
X76000Y76500D02*
D03*
X30500Y61000D02*
D03*
X85000Y54500D02*
D03*
Y66000D02*
D03*
X72500Y39500D02*
D03*
X30500Y96000D02*
D03*
X67500Y90000D02*
D03*
X59500Y72500D02*
D03*
X7000Y50500D02*
D03*
X45000Y47500D02*
D03*
X66500Y57000D02*
D03*
X62500Y47000D02*
D03*
X84000Y31000D02*
D03*
X92000D02*
D03*
X112000Y43000D02*
D03*
X103000Y59500D02*
D03*
Y67000D02*
D03*
X99000Y81500D02*
D03*
X91000D02*
D03*
X114000Y91500D02*
D03*
X84000Y47000D02*
D03*
X92000D02*
D03*
X103000Y51000D02*
D03*
X101000Y57500D02*
D03*
X50000Y57000D02*
D03*
X47500Y97000D02*
D03*
X49500Y73000D02*
D03*
X47000Y89000D02*
D03*
X91000Y98000D02*
D03*
X104000Y95000D02*
D03*
X107000Y88000D02*
D03*
X121000D02*
D03*
X118000Y105000D02*
D03*
X69000Y80000D02*
D03*
X83000Y81000D02*
D03*
X62000Y106000D02*
D03*
X41000D02*
D03*
X64500Y62500D02*
D03*
X54000Y34000D02*
D03*
X96000Y71000D02*
D03*
M02*
