G04*
G04 #@! TF.GenerationSoftware,Altium Limited,Altium Designer,22.5.1 (42)*
G04*
G04 Layer_Physical_Order=2*
G04 Layer_Color=32768*
%FSLAX25Y25*%
%MOIN*%
G70*
G04*
G04 #@! TF.SameCoordinates,96F4DE00-7DBF-44AA-9512-03554E38B811*
G04*
G04*
G04 #@! TF.FilePolarity,Negative*
G04*
G01*
G75*
%ADD57C,0.04000*%
%ADD58C,0.07543*%
G04:AMPARAMS|DCode=59|XSize=95.433mil|YSize=95.433mil|CornerRadius=0mil|HoleSize=0mil|Usage=FLASHONLY|Rotation=0.000|XOffset=0mil|YOffset=0mil|HoleType=Round|Shape=Relief|Width=10mil|Gap=10mil|Entries=4|*
%AMTHD59*
7,0,0,0.09543,0.07543,0.01000,45*
%
%ADD59THD59*%
G04:AMPARAMS|DCode=60|XSize=112.303mil|YSize=112.303mil|CornerRadius=0mil|HoleSize=0mil|Usage=FLASHONLY|Rotation=0.000|XOffset=0mil|YOffset=0mil|HoleType=Round|Shape=Relief|Width=10mil|Gap=10mil|Entries=4|*
%AMTHD60*
7,0,0,0.11230,0.09230,0.01000,45*
%
%ADD60THD60*%
G04:AMPARAMS|DCode=61|XSize=87.559mil|YSize=87.559mil|CornerRadius=0mil|HoleSize=0mil|Usage=FLASHONLY|Rotation=0.000|XOffset=0mil|YOffset=0mil|HoleType=Round|Shape=Relief|Width=10mil|Gap=10mil|Entries=4|*
%AMTHD61*
7,0,0,0.08756,0.06756,0.01000,45*
%
%ADD61THD61*%
G04:AMPARAMS|DCode=62|XSize=112.284mil|YSize=112.284mil|CornerRadius=0mil|HoleSize=0mil|Usage=FLASHONLY|Rotation=0.000|XOffset=0mil|YOffset=0mil|HoleType=Round|Shape=Relief|Width=10mil|Gap=10mil|Entries=4|*
%AMTHD62*
7,0,0,0.11228,0.09228,0.01000,45*
%
%ADD62THD62*%
%ADD63C,0.14827*%
%ADD64C,0.06756*%
%ADD65C,0.04787*%
D57*
X133000Y0D02*
X133981Y32D01*
X134958Y128D01*
X135926Y288D01*
X136882Y511D01*
X137822Y796D01*
X138740Y1142D01*
X139634Y1547D01*
X140500Y2010D01*
X141333Y2528D01*
X142131Y3100D01*
X142890Y3722D01*
X143607Y4393D01*
X144278Y5110D01*
X144900Y5869D01*
X145472Y6667D01*
X145990Y7500D01*
X146453Y8366D01*
X146858Y9260D01*
X147204Y10178D01*
X147489Y11118D01*
X147712Y12074D01*
X147872Y13042D01*
X147968Y14019D01*
X148000Y15000D01*
Y109000D02*
X147968Y109981D01*
X147872Y110958D01*
X147712Y111926D01*
X147489Y112882D01*
X147204Y113822D01*
X146858Y114740D01*
X146453Y115634D01*
X145990Y116500D01*
X145472Y117333D01*
X144900Y118131D01*
X144278Y118890D01*
X143607Y119607D01*
X142890Y120278D01*
X142131Y120900D01*
X141333Y121472D01*
X140500Y121990D01*
X139634Y122453D01*
X138740Y122858D01*
X137822Y123204D01*
X136882Y123489D01*
X135926Y123712D01*
X134958Y123872D01*
X133981Y123968D01*
X133000Y124000D01*
X15000D02*
X14019Y123968D01*
X13042Y123872D01*
X12074Y123712D01*
X11118Y123489D01*
X10178Y123204D01*
X9260Y122858D01*
X8366Y122453D01*
X7500Y121990D01*
X6667Y121472D01*
X5869Y120900D01*
X5110Y120278D01*
X4393Y119607D01*
X3722Y118890D01*
X3100Y118131D01*
X2528Y117333D01*
X2010Y116500D01*
X1547Y115634D01*
X1142Y114740D01*
X796Y113822D01*
X511Y112882D01*
X288Y111926D01*
X128Y110958D01*
X32Y109981D01*
X0Y109000D01*
Y15000D02*
X32Y14019D01*
X128Y13042D01*
X288Y12074D01*
X511Y11118D01*
X796Y10178D01*
X1142Y9260D01*
X1547Y8366D01*
X2010Y7500D01*
X2528Y6667D01*
X3100Y5869D01*
X3722Y5110D01*
X4393Y4393D01*
X5110Y3722D01*
X5869Y3100D01*
X6667Y2528D01*
X7500Y2010D01*
X8366Y1547D01*
X9260Y1142D01*
X10178Y796D01*
X11118Y511D01*
X12074Y288D01*
X13042Y128D01*
X14019Y32D01*
X15000Y0D01*
X133000D01*
X148000Y15000D02*
Y109000D01*
X15000Y124000D02*
X133000D01*
X0Y15000D02*
Y109000D01*
D58*
X72000Y19000D02*
D03*
X82000D02*
D03*
X112000D02*
D03*
X102000D02*
D03*
D59*
X92000D02*
D03*
D60*
X105173Y117000D02*
D03*
D61*
X81453Y106567D02*
D03*
X100547D02*
D03*
D62*
X76827Y117000D02*
D03*
D63*
X16000Y109000D02*
D03*
X15000Y15000D02*
D03*
X133000Y14000D02*
D03*
Y109000D02*
D03*
D64*
X30000Y81874D02*
D03*
Y74000D02*
D03*
D65*
X133500Y79000D02*
D03*
X125000Y86000D02*
D03*
X108500Y29500D02*
D03*
X102000D02*
D03*
X84000Y47000D02*
D03*
X92000D02*
D03*
X103000Y51000D02*
D03*
X101000Y57500D02*
D03*
X50000Y57000D02*
D03*
X47500Y97000D02*
D03*
X49500Y73000D02*
D03*
X47000Y89000D02*
D03*
X91000Y98000D02*
D03*
X104000Y95000D02*
D03*
X107000Y88000D02*
D03*
X121000D02*
D03*
X118000Y105000D02*
D03*
X69000Y80000D02*
D03*
X83000Y81000D02*
D03*
X62000Y106000D02*
D03*
X41000D02*
D03*
X64500Y62500D02*
D03*
X54000Y34000D02*
D03*
X96000Y71000D02*
D03*
M02*
