G04*
G04 #@! TF.GenerationSoftware,Altium Limited,Altium Designer,22.5.1 (42)*
G04*
G04 Layer_Color=16711935*
%FSLAX25Y25*%
%MOIN*%
G70*
G04*
G04 #@! TF.SameCoordinates,96F4DE00-7DBF-44AA-9512-03554E38B811*
G04*
G04*
G04 #@! TF.FilePolarity,Positive*
G04*
G01*
G75*
%ADD69C,0.00394*%
D69*
X67000Y13500D02*
Y24500D01*
X117000Y13500D02*
Y24500D01*
X67000D02*
X117000D01*
X67000Y13500D02*
X117000D01*
X124063Y84961D02*
X131937D01*
Y80039D02*
Y84961D01*
X124063Y80039D02*
X131937D01*
X124063D02*
Y84961D01*
X115425Y84461D02*
X117984Y81902D01*
X110016Y84461D02*
X117984D01*
X110016Y79539D02*
Y84461D01*
Y79539D02*
X117984D01*
Y84461D01*
X106354Y105976D02*
Y124480D01*
X75646Y105976D02*
Y124480D01*
Y105976D02*
X106354D01*
X75646Y124480D02*
X106354D01*
X99929Y32032D02*
X109772D01*
X99929D02*
Y44630D01*
X109772D01*
Y32032D02*
Y44630D01*
X16402Y31189D02*
Y54811D01*
X16402Y31189D02*
X41598D01*
X16402Y54811D02*
X41598D01*
Y31189D02*
Y54811D01*
X77323Y50354D02*
X92677D01*
X77323D02*
Y69646D01*
X92677D01*
Y50354D02*
Y69646D01*
X87677Y50354D02*
X92677Y55354D01*
X81539Y35063D02*
X86461D01*
Y42937D01*
X81539D02*
X86461D01*
X81539Y35063D02*
Y42937D01*
X89539Y35063D02*
X94461D01*
Y42937D01*
X89539D02*
X94461D01*
X89539Y35063D02*
Y42937D01*
X61937Y40539D02*
Y45461D01*
X54063D02*
X61937D01*
X54063Y40539D02*
Y45461D01*
Y40539D02*
X61937D01*
X107063Y69461D02*
X114937D01*
Y64539D02*
Y69461D01*
X107063Y64539D02*
X114937D01*
X107063D02*
Y69461D01*
X39539Y68063D02*
Y75937D01*
X44461D01*
Y68063D02*
Y75937D01*
X39539Y68063D02*
X44461D01*
X61937Y54539D02*
Y59461D01*
X54063D02*
X61937D01*
X54063Y54539D02*
Y59461D01*
Y54539D02*
X61937D01*
X36693Y66323D02*
Y89551D01*
X18976Y66323D02*
X36693D01*
X18976D02*
Y89551D01*
X36693D01*
X107063Y48539D02*
X114937D01*
X107063D02*
Y53461D01*
X114937D01*
Y48539D02*
Y53461D01*
X85461Y86063D02*
Y93937D01*
X80539Y86063D02*
X85461D01*
X80539D02*
Y93937D01*
X85461D01*
X109063Y102461D02*
X116937D01*
Y97539D02*
Y102461D01*
X109063Y97539D02*
X116937D01*
X109063D02*
Y102461D01*
X77461Y86063D02*
Y93937D01*
X72539Y86063D02*
X77461D01*
X72539D02*
Y93937D01*
X77461D01*
X61646Y86677D02*
X66646Y81677D01*
X47354Y86677D02*
X66646D01*
X47354Y71323D02*
Y86677D01*
Y71323D02*
X66646D01*
Y86677D01*
X107063Y61461D02*
X114937D01*
Y56539D02*
Y61461D01*
X107063Y56539D02*
X114937D01*
X107063D02*
Y61461D01*
X88539Y86063D02*
Y93937D01*
X93461D01*
Y86063D02*
Y93937D01*
X88539Y86063D02*
X93461D01*
X96539Y86063D02*
Y93937D01*
X101461D01*
Y86063D02*
Y93937D01*
X96539Y86063D02*
X101461D01*
X35063Y93539D02*
Y98461D01*
Y93539D02*
X42937D01*
Y98461D01*
X35063D02*
X42937D01*
M02*
