M48
;Layer_Color=9474304
;FILE_FORMAT=2:4
INCH,TZ
;TYPE=PLATED
T1F00S00C0.0079
T2F00S00C0.0276
T3F00S00C0.0354
T4F00S00C0.0523
;TYPE=NON_PLATED
T5F00S00C0.1083
%
T01
X2126Y3701
X4291Y3583
X5472Y3386
X5591Y2008
X4016Y1969
X7717Y2008
X8150Y1339
X9646Y2165
X10669Y2835
Y4370
Y4961
Y5866
Y6693
X10866Y7165
X11417Y8150
X12402
X12953Y7165
Y6339
Y5512
Y4606
X14173Y5394
X15079
X15846Y7382
X14803Y8504
X13937Y7953
X13907Y9134
X13189Y10236
X11732
X10354
X9449
X9449Y11142
X10354
X9921Y7953
X9724Y6732
X8189Y7283
X7018Y7305
X6309
X5827Y6929
X5236Y6181
X4931Y5138
X5472Y4646
Y4016
X3740Y5315
X4134Y7283
X3268Y8150
X2126Y6890
X3386Y10787
X2756Y11417
X3386Y12913
X4961Y12441
X5630
X5000Y10630
X5354Y9449
X6732Y9370
X7559
X8386
X8071Y11220
Y11968
T02
X9518Y12264
X11427
X2165Y9685
Y8898
T03
X9055Y1339
X10055
X11055
X12055
X13055
T04
X9055Y13307
X11890
T05
X1575Y1575
X15157Y1575
Y12598
X1575Y12598
M30
